<?xml version="1.0" encoding="UTF-8"?>
<!DOCTYPE svg PUBLIC "-//W3C//DTD SVG 1.1//EN" "http://www.w3.org/Graphics/SVG/1.1/DTD/svg11.dtd">
<svg version="1.2" width="210mm" height="297mm" viewBox="0 0 21000 29700" preserveAspectRatio="xMidYMid" fill-rule="evenodd" stroke-width="28.222" stroke-linejoin="round" xmlns="http://www.w3.org/2000/svg" xmlns:ooo="http://xml.openoffice.org/svg/export" xmlns:xlink="http://www.w3.org/1999/xlink" xmlns:presentation="http://sun.com/xmlns/staroffice/presentation" xmlns:smil="http://www.w3.org/2001/SMIL20/" xmlns:anim="urn:oasis:names:tc:opendocument:xmlns:animation:1.0" xml:space="preserve">
 <defs class="ClipPathGroup">
  <clipPath id="presentation_clip_path" clipPathUnits="userSpaceOnUse">
   <rect x="0" y="0" width="21000" height="29700"/>
  </clipPath>
  <clipPath id="presentation_clip_path_shrink" clipPathUnits="userSpaceOnUse">
   <rect x="21" y="29" width="20958" height="29641"/>
  </clipPath>
 </defs>
 <defs class="TextShapeIndex">
  <g ooo:slide="id1" ooo:id-list="id3 id4 id5 id6 id7 id8"/>
 </defs>
 <defs class="EmbeddedBulletChars">
  <g id="bullet-char-template-57356" transform="scale(0.00048828125,-0.00048828125)">
   <path d="M 580,1141 L 1163,571 580,0 -4,571 580,1141 Z"/>
  </g>
  <g id="bullet-char-template-57354" transform="scale(0.00048828125,-0.00048828125)">
   <path d="M 8,1128 L 1137,1128 1137,0 8,0 8,1128 Z"/>
  </g>
  <g id="bullet-char-template-10146" transform="scale(0.00048828125,-0.00048828125)">
   <path d="M 174,0 L 602,739 174,1481 1456,739 174,0 Z M 1358,739 L 309,1346 659,739 1358,739 Z"/>
  </g>
  <g id="bullet-char-template-10132" transform="scale(0.00048828125,-0.00048828125)">
   <path d="M 2015,739 L 1276,0 717,0 1260,543 174,543 174,936 1260,936 717,1481 1274,1481 2015,739 Z"/>
  </g>
  <g id="bullet-char-template-10007" transform="scale(0.00048828125,-0.00048828125)">
   <path d="M 0,-2 C -7,14 -16,27 -25,37 L 356,567 C 262,823 215,952 215,954 215,979 228,992 255,992 264,992 276,990 289,987 310,991 331,999 354,1012 L 381,999 492,748 772,1049 836,1024 860,1049 C 881,1039 901,1025 922,1006 886,937 835,863 770,784 769,783 710,716 594,584 L 774,223 C 774,196 753,168 711,139 L 727,119 C 717,90 699,76 672,76 641,76 570,178 457,381 L 164,-76 C 142,-110 111,-127 72,-127 30,-127 9,-110 8,-76 1,-67 -2,-52 -2,-32 -2,-23 -1,-13 0,-2 Z"/>
  </g>
  <g id="bullet-char-template-10004" transform="scale(0.00048828125,-0.00048828125)">
   <path d="M 285,-33 C 182,-33 111,30 74,156 52,228 41,333 41,471 41,549 55,616 82,672 116,743 169,778 240,778 293,778 328,747 346,684 L 369,508 C 377,444 397,411 428,410 L 1163,1116 C 1174,1127 1196,1133 1229,1133 1271,1133 1292,1118 1292,1087 L 1292,965 C 1292,929 1282,901 1262,881 L 442,47 C 390,-6 338,-33 285,-33 Z"/>
  </g>
  <g id="bullet-char-template-9679" transform="scale(0.00048828125,-0.00048828125)">
   <path d="M 813,0 C 632,0 489,54 383,161 276,268 223,411 223,592 223,773 276,916 383,1023 489,1130 632,1184 813,1184 992,1184 1136,1130 1245,1023 1353,916 1407,772 1407,592 1407,412 1353,268 1245,161 1136,54 992,0 813,0 Z"/>
  </g>
  <g id="bullet-char-template-8226" transform="scale(0.00048828125,-0.00048828125)">
   <path d="M 346,457 C 273,457 209,483 155,535 101,586 74,649 74,723 74,796 101,859 155,911 209,963 273,989 346,989 419,989 480,963 531,910 582,859 608,796 608,723 608,648 583,586 532,535 482,483 420,457 346,457 Z"/>
  </g>
  <g id="bullet-char-template-8211" transform="scale(0.00048828125,-0.00048828125)">
   <path d="M -4,459 L 1135,459 1135,606 -4,606 -4,459 Z"/>
  </g>
  <g id="bullet-char-template-61548" transform="scale(0.00048828125,-0.00048828125)">
   <path d="M 173,740 C 173,903 231,1043 346,1159 462,1274 601,1332 765,1332 928,1332 1067,1274 1183,1159 1299,1043 1357,903 1357,740 1357,577 1299,437 1183,322 1067,206 928,148 765,148 601,148 462,206 346,322 231,437 173,577 173,740 Z"/>
  </g>
 </defs>
 <g>
  <g id="id2" class="Master_Slide">
   <g id="bg-id2" class="Background"/>
   <g id="bo-id2" class="BackgroundObjects"/>
  </g>
 </g>
 <g class="SlideGroup">
  <g>
   <g id="container-id1">
    <g id="id1" class="Slide" clip-path="url(#presentation_clip_path)">
     <g class="Page">
      <g class="com.sun.star.drawing.ClosedFreeHandShape">
       <g id="id3">
        <rect class="BoundingBox" stroke="none" fill="none" x="7299" y="7499" width="1654" height="1703"/>
        <path fill="rgb(255,255,255)" stroke="none" d="M 7770,8696 C 7785,8847 7859,8980 7940,9103 8008,9209 8159,9215 8268,9183 8393,9146 8513,9052 8556,8924 8589,8827 8425,8599 8536,8616 8706,8643 8801,8550 8874,8457 8940,8373 8998,8252 8894,8139 8794,8030 8674,8006 8556,7960 8475,7929 8302,8074 8347,7860 8370,7752 8433,7560 8218,7562 8101,7564 7992,7465 7880,7513 7756,7565 7738,7719 7721,7841 7705,7952 7894,8082 7810,8159 7715,8246 7527,8077 7422,8209 7351,8298 7230,8469 7353,8557 7461,8634 7555,8781 7711,8766 L 7751,8696 7770,8696 Z"/>
        <path fill="none" stroke="rgb(255,245,206)" d="M 7770,8696 C 7785,8847 7859,8980 7940,9103 8008,9209 8159,9215 8268,9183 8393,9146 8513,9052 8556,8924 8589,8827 8425,8599 8536,8616 8706,8643 8801,8550 8874,8457 8940,8373 8998,8252 8894,8139 8794,8030 8674,8006 8556,7960 8475,7929 8302,8074 8347,7860 8370,7752 8433,7560 8218,7562 8101,7564 7992,7465 7880,7513 7756,7565 7738,7719 7721,7841 7705,7952 7894,8082 7810,8159 7715,8246 7527,8077 7422,8209 7351,8298 7230,8469 7353,8557 7461,8634 7555,8781 7711,8766 L 7751,8696 7770,8696 Z"/>
       </g>
      </g>
      <g class="com.sun.star.drawing.ClosedFreeHandShape">
       <g id="id4">
        <rect class="BoundingBox" stroke="none" fill="none" x="9599" y="8199" width="1444" height="1588"/>
        <path fill="rgb(255,255,255)" stroke="none" d="M 9807,9003 C 9706,9125 9663,9276 9631,9426 9604,9553 9711,9669 9814,9726 9933,9791 10091,9809 10215,9747 10311,9700 10358,9412 10427,9506 10532,9650 10670,9652 10792,9638 10902,9624 11033,9578 11040,9419 11047,9265 10976,9159 10923,9039 10887,8957 10653,8936 10843,8813 10940,8750 11127,8655 10967,8499 10880,8414 10872,8262 10755,8215 10626,8162 10499,8262 10398,8338 10304,8409 10347,8643 10230,8638 10096,8632 10082,8370 9909,8389 9790,8403 9576,8439 9602,8594 9625,8731 9586,8907 9712,9010 L 9792,8988 9807,9003 Z"/>
        <path fill="none" stroke="rgb(255,245,206)" d="M 9807,9003 C 9706,9125 9663,9276 9631,9426 9604,9553 9711,9669 9814,9726 9933,9791 10091,9809 10215,9747 10311,9700 10358,9412 10427,9506 10532,9650 10670,9652 10792,9638 10902,9624 11033,9578 11040,9419 11047,9265 10976,9159 10923,9039 10887,8957 10653,8936 10843,8813 10940,8750 11127,8655 10967,8499 10880,8414 10872,8262 10755,8215 10626,8162 10499,8262 10398,8338 10304,8409 10347,8643 10230,8638 10096,8632 10082,8370 9909,8389 9790,8403 9576,8439 9602,8594 9625,8731 9586,8907 9712,9010 L 9792,8988 9807,9003 Z"/>
       </g>
      </g>
      <g class="com.sun.star.drawing.ClosedFreeHandShape">
       <g id="id5">
        <rect class="BoundingBox" stroke="none" fill="none" x="8699" y="7195" width="1323" height="1307"/>
        <path fill="rgb(255,255,255)" stroke="none" d="M 9153,7728 C 9019,7603 9134,7415 9244,7310 9336,7222 9444,7181 9553,7200 9672,7221 9787,7343 9762,7482 9744,7585 9597,7679 9653,7764 9719,7863 9894,7838 9962,7946 10025,8045 10036,8176 9998,8282 9963,8383 9892,8499 9753,8500 9652,8501 9553,8491 9462,8427 9362,8358 9233,8424 9117,8418 8997,8412 8869,8408 8771,8318 8638,8196 8716,7996 8808,7891 8883,7805 8989,7759 9099,7746 L 9181,7746 9153,7728 Z"/>
        <path fill="none" stroke="rgb(255,245,206)" d="M 9153,7728 C 9019,7603 9134,7415 9244,7310 9336,7222 9444,7181 9553,7200 9672,7221 9787,7343 9762,7482 9744,7585 9597,7679 9653,7764 9719,7863 9894,7838 9962,7946 10025,8045 10036,8176 9998,8282 9963,8383 9892,8499 9753,8500 9652,8501 9553,8491 9462,8427 9362,8358 9233,8424 9117,8418 8997,8412 8869,8408 8771,8318 8638,8196 8716,7996 8808,7891 8883,7805 8989,7759 9099,7746 L 9181,7746 9153,7728 Z"/>
       </g>
      </g>
      <g class="com.sun.star.drawing.ClosedFreeHandShape">
       <g id="id6">
        <rect class="BoundingBox" stroke="none" fill="none" x="8226" y="8465" width="1476" height="1337"/>
        <path fill="rgb(255,255,255)" stroke="none" d="M 8959,8704 C 8956,8510 9184,8460 9345,8467 9480,8473 9590,8526 9655,8623 9726,8729 9718,8907 9593,8990 9500,9051 9321,9008 9297,9113 9270,9236 9418,9351 9385,9482 9355,9604 9262,9708 9154,9757 9051,9804 8911,9834 8808,9729 8733,9652 8668,9569 8650,9453 8630,9325 8484,9275 8404,9182 8320,9086 8230,8985 8227,8844 8223,8653 8433,8566 8581,8560 8702,8555 8815,8601 8905,8675 L 8965,8738 8959,8704 Z"/>
        <path fill="none" stroke="rgb(255,245,206)" d="M 8959,8704 C 8956,8510 9184,8460 9345,8467 9480,8473 9590,8526 9655,8623 9726,8729 9718,8907 9593,8990 9500,9051 9321,9008 9297,9113 9270,9236 9418,9351 9385,9482 9355,9604 9262,9708 9154,9757 9051,9804 8911,9834 8808,9729 8733,9652 8668,9569 8650,9453 8630,9325 8484,9275 8404,9182 8320,9086 8230,8985 8227,8844 8223,8653 8433,8566 8581,8560 8702,8555 8815,8601 8905,8675 L 8965,8738 8959,8704 Z"/>
       </g>
      </g>
      <g class="com.sun.star.drawing.ClosedFreeHandShape">
       <g id="id7">
        <rect class="BoundingBox" stroke="none" fill="none" x="6825" y="8560" width="1677" height="1142"/>
        <path fill="rgb(255,255,255)" stroke="none" d="M 7789,8761 C 7540,8712 7198,8381 6907,8695 6616,9009 7221,9168 7039,9379 6705,9766 7223,9651 7370,9687 7833,9802 7456,9136 7899,9423 8117,9565 8667,9241 8450,9070 8209,8880 8221,8397 7877,8761 L 7789,8805 7789,8761 Z"/>
        <path fill="none" stroke="rgb(255,245,206)" d="M 7789,8761 C 7540,8712 7198,8381 6907,8695 6616,9009 7221,9168 7039,9379 6705,9766 7223,9651 7370,9687 7833,9802 7456,9136 7899,9423 8117,9565 8667,9241 8450,9070 8209,8880 8221,8397 7877,8761 L 7789,8805 7789,8761 Z"/>
       </g>
      </g>
      <g class="com.sun.star.drawing.CustomShape">
       <g id="id8">
        <rect class="BoundingBox" stroke="none" fill="none" x="7082" y="9482" width="3938" height="2538"/>
        <path fill="rgb(255,56,56)" stroke="none" d="M 7100,9500 L 11001,9500 10025,12001 8075,12001 7100,9500 Z"/>
        <path fill="none" stroke="rgb(255,0,0)" stroke-width="35" stroke-linejoin="round" d="M 7100,9500 L 11001,9500 10025,12001 8075,12001 7100,9500 Z"/>
       </g>
      </g>
     </g>
    </g>
   </g>
  </g>
 </g>
</svg>