<?xml version="1.0" encoding="UTF-8"?>
<!DOCTYPE svg PUBLIC "-//W3C//DTD SVG 1.1//EN" "http://www.w3.org/Graphics/SVG/1.1/DTD/svg11.dtd">
<svg version="1.2" width="297mm" height="210mm" viewBox="0 0 29700 21000" preserveAspectRatio="xMidYMid" fill-rule="evenodd" stroke-width="28.222" stroke-linejoin="round" xmlns="http://www.w3.org/2000/svg" xmlns:ooo="http://xml.openoffice.org/svg/export" xmlns:xlink="http://www.w3.org/1999/xlink" xmlns:presentation="http://sun.com/xmlns/staroffice/presentation" xmlns:smil="http://www.w3.org/2001/SMIL20/" xmlns:anim="urn:oasis:names:tc:opendocument:xmlns:animation:1.0" xml:space="preserve">
 <defs class="ClipPathGroup">
  <clipPath id="presentation_clip_path" clipPathUnits="userSpaceOnUse">
   <rect x="0" y="0" width="29700" height="21000"/>
  </clipPath>
  <clipPath id="presentation_clip_path_shrink" clipPathUnits="userSpaceOnUse">
   <rect x="29" y="21" width="29641" height="20958"/>
  </clipPath>
 </defs>
 <defs class="TextShapeIndex">
  <g ooo:slide="id1" ooo:id-list="id3 id4 id5"/>
 </defs>
 <defs class="EmbeddedBulletChars">
  <g id="bullet-char-template-57356" transform="scale(0.00048828125,-0.00048828125)">
   <path d="M 580,1141 L 1163,571 580,0 -4,571 580,1141 Z"/>
  </g>
  <g id="bullet-char-template-57354" transform="scale(0.00048828125,-0.00048828125)">
   <path d="M 8,1128 L 1137,1128 1137,0 8,0 8,1128 Z"/>
  </g>
  <g id="bullet-char-template-10146" transform="scale(0.00048828125,-0.00048828125)">
   <path d="M 174,0 L 602,739 174,1481 1456,739 174,0 Z M 1358,739 L 309,1346 659,739 1358,739 Z"/>
  </g>
  <g id="bullet-char-template-10132" transform="scale(0.00048828125,-0.00048828125)">
   <path d="M 2015,739 L 1276,0 717,0 1260,543 174,543 174,936 1260,936 717,1481 1274,1481 2015,739 Z"/>
  </g>
  <g id="bullet-char-template-10007" transform="scale(0.00048828125,-0.00048828125)">
   <path d="M 0,-2 C -7,14 -16,27 -25,37 L 356,567 C 262,823 215,952 215,954 215,979 228,992 255,992 264,992 276,990 289,987 310,991 331,999 354,1012 L 381,999 492,748 772,1049 836,1024 860,1049 C 881,1039 901,1025 922,1006 886,937 835,863 770,784 769,783 710,716 594,584 L 774,223 C 774,196 753,168 711,139 L 727,119 C 717,90 699,76 672,76 641,76 570,178 457,381 L 164,-76 C 142,-110 111,-127 72,-127 30,-127 9,-110 8,-76 1,-67 -2,-52 -2,-32 -2,-23 -1,-13 0,-2 Z"/>
  </g>
  <g id="bullet-char-template-10004" transform="scale(0.00048828125,-0.00048828125)">
   <path d="M 285,-33 C 182,-33 111,30 74,156 52,228 41,333 41,471 41,549 55,616 82,672 116,743 169,778 240,778 293,778 328,747 346,684 L 369,508 C 377,444 397,411 428,410 L 1163,1116 C 1174,1127 1196,1133 1229,1133 1271,1133 1292,1118 1292,1087 L 1292,965 C 1292,929 1282,901 1262,881 L 442,47 C 390,-6 338,-33 285,-33 Z"/>
  </g>
  <g id="bullet-char-template-9679" transform="scale(0.00048828125,-0.00048828125)">
   <path d="M 813,0 C 632,0 489,54 383,161 276,268 223,411 223,592 223,773 276,916 383,1023 489,1130 632,1184 813,1184 992,1184 1136,1130 1245,1023 1353,916 1407,772 1407,592 1407,412 1353,268 1245,161 1136,54 992,0 813,0 Z"/>
  </g>
  <g id="bullet-char-template-8226" transform="scale(0.00048828125,-0.00048828125)">
   <path d="M 346,457 C 273,457 209,483 155,535 101,586 74,649 74,723 74,796 101,859 155,911 209,963 273,989 346,989 419,989 480,963 531,910 582,859 608,796 608,723 608,648 583,586 532,535 482,483 420,457 346,457 Z"/>
  </g>
  <g id="bullet-char-template-8211" transform="scale(0.00048828125,-0.00048828125)">
   <path d="M -4,459 L 1135,459 1135,606 -4,606 -4,459 Z"/>
  </g>
  <g id="bullet-char-template-61548" transform="scale(0.00048828125,-0.00048828125)">
   <path d="M 173,740 C 173,903 231,1043 346,1159 462,1274 601,1332 765,1332 928,1332 1067,1274 1183,1159 1299,1043 1357,903 1357,740 1357,577 1299,437 1183,322 1067,206 928,148 765,148 601,148 462,206 346,322 231,437 173,577 173,740 Z"/>
  </g>
 </defs>
 <g>
  <g id="id2" class="Master_Slide">
   <g id="bg-id2" class="Background"/>
   <g id="bo-id2" class="BackgroundObjects"/>
  </g>
 </g>
 <g class="SlideGroup">
  <g>
   <g id="container-id1">
    <g id="id1" class="Slide" clip-path="url(#presentation_clip_path)">
     <g class="Page">
      <g class="com.sun.star.drawing.CustomShape">
       <g id="id3">
        <rect class="BoundingBox" stroke="none" fill="none" x="3799" y="4600" width="14041" height="12401"/>
        <path fill="rgb(51,51,51)" stroke="none" d="M 4515,4700 L 4516,4700 C 4408,4700 4301,4729 4207,4783 4114,4837 4036,4915 3982,5008 3928,5102 3899,5209 3899,5317 L 3899,16283 3899,16283 C 3899,16391 3928,16498 3982,16592 4036,16685 4114,16763 4207,16817 4301,16871 4408,16900 4516,16900 L 17122,16899 17122,16900 C 17230,16900 17337,16871 17431,16817 17524,16763 17602,16685 17656,16592 17710,16498 17739,16391 17739,16283 L 17739,5316 17739,5317 17739,5317 C 17739,5209 17710,5102 17656,5008 17602,4915 17524,4837 17431,4783 17337,4729 17230,4700 17122,4700 L 4515,4700 Z"/>
        <path fill="none" stroke="rgb(17,17,17)" stroke-width="200" stroke-linejoin="round" d="M 4515,4700 L 4516,4700 C 4408,4700 4301,4729 4207,4783 4114,4837 4036,4915 3982,5008 3928,5102 3899,5209 3899,5317 L 3899,16283 3899,16283 C 3899,16391 3928,16498 3982,16592 4036,16685 4114,16763 4207,16817 4301,16871 4408,16900 4516,16900 L 17122,16899 17122,16900 C 17230,16900 17337,16871 17431,16817 17524,16763 17602,16685 17656,16592 17710,16498 17739,16391 17739,16283 L 17739,5316 17739,5317 17739,5317 C 17739,5209 17710,5102 17656,5008 17602,4915 17524,4837 17431,4783 17337,4729 17230,4700 17122,4700 L 4515,4700 Z"/>
       </g>
      </g>
      <g class="com.sun.star.drawing.CustomShape">
       <g id="id4">
        <rect class="BoundingBox" stroke="none" fill="none" x="3799" y="4600" width="14041" height="12401"/>
        <path fill="rgb(204,204,204)" stroke="none" d="M 4515,4700 L 4516,4700 C 4408,4700 4301,4729 4207,4783 4114,4837 4036,4915 3982,5008 3928,5102 3899,5209 3899,5317 L 3899,16283 3899,16283 C 3899,16391 3928,16498 3982,16592 4036,16685 4114,16763 4207,16817 4301,16871 4408,16900 4516,16900 L 17122,16899 17122,16900 C 17230,16900 17337,16871 17431,16817 17524,16763 17602,16685 17656,16592 17710,16498 17739,16391 17739,16283 L 17739,5316 17739,5317 17739,5317 C 17739,5209 17710,5102 17656,5008 17602,4915 17524,4837 17431,4783 17337,4729 17230,4700 17122,4700 L 4515,4700 Z"/>
        <path fill="none" stroke="rgb(128,128,128)" stroke-width="200" stroke-linejoin="round" d="M 4515,4700 L 4516,4700 C 4408,4700 4301,4729 4207,4783 4114,4837 4036,4915 3982,5008 3928,5102 3899,5209 3899,5317 L 3899,16283 3899,16283 C 3899,16391 3928,16498 3982,16592 4036,16685 4114,16763 4207,16817 4301,16871 4408,16900 4516,16900 L 17122,16899 17122,16900 C 17230,16900 17337,16871 17431,16817 17524,16763 17602,16685 17656,16592 17710,16498 17739,16391 17739,16283 L 17739,5316 17739,5317 17739,5317 C 17739,5209 17710,5102 17656,5008 17602,4915 17524,4837 17431,4783 17337,4729 17230,4700 17122,4700 L 4515,4700 Z"/>
       </g>
      </g>
      <g class="com.sun.star.drawing.CustomShape">
       <g id="id5">
        <rect class="BoundingBox" stroke="none" fill="none" x="16402" y="5900" width="1400" height="9702"/>
        <path fill="rgb(51,51,51)" stroke="none" d="M 16562,6000 L 16563,6000 C 16552,6000 16542,6003 16532,6008 16523,6013 16515,6021 16510,6030 16505,6040 16502,6050 16502,6061 L 16502,15440 16502,15440 C 16502,15451 16505,15461 16510,15471 16515,15480 16523,15488 16532,15493 16542,15498 16552,15501 16563,15501 L 17640,15501 17640,15501 C 17651,15501 17661,15498 17671,15493 17680,15488 17688,15480 17693,15471 17698,15461 17701,15451 17701,15440 L 17701,6060 17701,6061 17701,6061 C 17701,6050 17698,6040 17693,6030 17688,6021 17680,6013 17671,6008 17661,6003 17651,6000 17640,6000 L 16562,6000 Z"/>
        <path fill="none" stroke="rgb(17,17,17)" stroke-width="200" stroke-linejoin="round" d="M 16562,6000 L 16563,6000 C 16552,6000 16542,6003 16532,6008 16523,6013 16515,6021 16510,6030 16505,6040 16502,6050 16502,6061 L 16502,15440 16502,15440 C 16502,15451 16505,15461 16510,15471 16515,15480 16523,15488 16532,15493 16542,15498 16552,15501 16563,15501 L 17640,15501 17640,15501 C 17651,15501 17661,15498 17671,15493 17680,15488 17688,15480 17693,15471 17698,15461 17701,15451 17701,15440 L 17701,6060 17701,6061 17701,6061 C 17701,6050 17698,6040 17693,6030 17688,6021 17680,6013 17671,6008 17661,6003 17651,6000 17640,6000 L 16562,6000 Z"/>
       </g>
      </g>
     </g>
    </g>
   </g>
  </g>
 </g>
</svg>