<?xml version="1.0" encoding="UTF-8"?>
<!DOCTYPE svg PUBLIC "-//W3C//DTD SVG 1.1//EN" "http://www.w3.org/Graphics/SVG/1.1/DTD/svg11.dtd">
<svg version="1.2" width="50mm" height="50mm" viewBox="0 0 5000 5000" preserveAspectRatio="xMidYMid" fill-rule="evenodd" stroke-width="28.222" stroke-linejoin="round" xmlns="http://www.w3.org/2000/svg" xmlns:ooo="http://xml.openoffice.org/svg/export" xmlns:xlink="http://www.w3.org/1999/xlink" xmlns:presentation="http://sun.com/xmlns/staroffice/presentation" xmlns:smil="http://www.w3.org/2001/SMIL20/" xmlns:anim="urn:oasis:names:tc:opendocument:xmlns:animation:1.0" xml:space="preserve">
 <defs class="ClipPathGroup">
  <clipPath id="presentation_clip_path" clipPathUnits="userSpaceOnUse">
   <rect x="0" y="0" width="5000" height="5000"/>
  </clipPath>
  <clipPath id="presentation_clip_path_shrink" clipPathUnits="userSpaceOnUse">
   <rect x="5" y="5" width="4990" height="4990"/>
  </clipPath>
 </defs>
 <defs class="TextShapeIndex">
  <g ooo:slide="id1" ooo:id-list="id3 id4 id5 id6 id7 id8 id9 id10 id11 id12 id13 id14 id15 id16 id17 id18 id19 id20 id21 id22 id23 id24 id25 id26 id27 id28 id29 id30 id31 id32 id33 id34 id35 id36 id37 id38 id39 id40 id41 id42 id43 id44 id45 id46 id47 id48 id49 id50 id51 id52 id53 id54 id55 id56 id57 id58 id59 id60 id61 id62 id63 id64 id65"/>
 </defs>
 <defs class="EmbeddedBulletChars">
  <g id="bullet-char-template-57356" transform="scale(0.00048828125,-0.00048828125)">
   <path d="M 580,1141 L 1163,571 580,0 -4,571 580,1141 Z"/>
  </g>
  <g id="bullet-char-template-57354" transform="scale(0.00048828125,-0.00048828125)">
   <path d="M 8,1128 L 1137,1128 1137,0 8,0 8,1128 Z"/>
  </g>
  <g id="bullet-char-template-10146" transform="scale(0.00048828125,-0.00048828125)">
   <path d="M 174,0 L 602,739 174,1481 1456,739 174,0 Z M 1358,739 L 309,1346 659,739 1358,739 Z"/>
  </g>
  <g id="bullet-char-template-10132" transform="scale(0.00048828125,-0.00048828125)">
   <path d="M 2015,739 L 1276,0 717,0 1260,543 174,543 174,936 1260,936 717,1481 1274,1481 2015,739 Z"/>
  </g>
  <g id="bullet-char-template-10007" transform="scale(0.00048828125,-0.00048828125)">
   <path d="M 0,-2 C -7,14 -16,27 -25,37 L 356,567 C 262,823 215,952 215,954 215,979 228,992 255,992 264,992 276,990 289,987 310,991 331,999 354,1012 L 381,999 492,748 772,1049 836,1024 860,1049 C 881,1039 901,1025 922,1006 886,937 835,863 770,784 769,783 710,716 594,584 L 774,223 C 774,196 753,168 711,139 L 727,119 C 717,90 699,76 672,76 641,76 570,178 457,381 L 164,-76 C 142,-110 111,-127 72,-127 30,-127 9,-110 8,-76 1,-67 -2,-52 -2,-32 -2,-23 -1,-13 0,-2 Z"/>
  </g>
  <g id="bullet-char-template-10004" transform="scale(0.00048828125,-0.00048828125)">
   <path d="M 285,-33 C 182,-33 111,30 74,156 52,228 41,333 41,471 41,549 55,616 82,672 116,743 169,778 240,778 293,778 328,747 346,684 L 369,508 C 377,444 397,411 428,410 L 1163,1116 C 1174,1127 1196,1133 1229,1133 1271,1133 1292,1118 1292,1087 L 1292,965 C 1292,929 1282,901 1262,881 L 442,47 C 390,-6 338,-33 285,-33 Z"/>
  </g>
  <g id="bullet-char-template-9679" transform="scale(0.00048828125,-0.00048828125)">
   <path d="M 813,0 C 632,0 489,54 383,161 276,268 223,411 223,592 223,773 276,916 383,1023 489,1130 632,1184 813,1184 992,1184 1136,1130 1245,1023 1353,916 1407,772 1407,592 1407,412 1353,268 1245,161 1136,54 992,0 813,0 Z"/>
  </g>
  <g id="bullet-char-template-8226" transform="scale(0.00048828125,-0.00048828125)">
   <path d="M 346,457 C 273,457 209,483 155,535 101,586 74,649 74,723 74,796 101,859 155,911 209,963 273,989 346,989 419,989 480,963 531,910 582,859 608,796 608,723 608,648 583,586 532,535 482,483 420,457 346,457 Z"/>
  </g>
  <g id="bullet-char-template-8211" transform="scale(0.00048828125,-0.00048828125)">
   <path d="M -4,459 L 1135,459 1135,606 -4,606 -4,459 Z"/>
  </g>
  <g id="bullet-char-template-61548" transform="scale(0.00048828125,-0.00048828125)">
   <path d="M 173,740 C 173,903 231,1043 346,1159 462,1274 601,1332 765,1332 928,1332 1067,1274 1183,1159 1299,1043 1357,903 1357,740 1357,577 1299,437 1183,322 1067,206 928,148 765,148 601,148 462,206 346,322 231,437 173,577 173,740 Z"/>
  </g>
 </defs>
 <g>
  <g id="id2" class="Master_Slide">
   <g id="bg-id2" class="Background"/>
   <g id="bo-id2" class="BackgroundObjects"/>
  </g>
 </g>
 <g class="SlideGroup">
  <g>
   <g id="container-id1">
    <g id="id1" class="Slide" clip-path="url(#presentation_clip_path)">
     <g class="Page">
      <g class="com.sun.star.drawing.ClosedBezierShape">
       <g id="id3">
        <rect class="BoundingBox" stroke="none" fill="none" x="7299" y="7499" width="1654" height="1703"/>
        <path fill="rgb(255,255,255)" stroke="none" d="M 7770,8695 C 7785,8847 7860,8980 7939,9103 8007,9208 8159,9215 8268,9183 8393,9146 8513,9051 8556,8924 8589,8827 8425,8599 8536,8616 8706,8642 8801,8550 8874,8457 8940,8373 8997,8252 8895,8139 8794,8030 8674,8006 8556,7959 8475,7928 8302,8074 8348,7860 8370,7752 8433,7560 8217,7562 8101,7563 7991,7466 7880,7513 7756,7565 7738,7719 7721,7841 7705,7952 7894,8082 7810,8159 7715,8245 7527,8077 7422,8209 7351,8298 7229,8468 7352,8557 7462,8634 7555,8780 7711,8766 L 7751,8695 7770,8695 Z"/>
        <path fill="none" stroke="rgb(255,245,206)" d="M 7770,8695 C 7785,8847 7860,8980 7939,9103 8007,9208 8159,9215 8268,9183 8393,9146 8513,9051 8556,8924 8589,8827 8425,8599 8536,8616 8706,8642 8801,8550 8874,8457 8940,8373 8997,8252 8895,8139 8794,8030 8674,8006 8556,7959 8475,7928 8302,8074 8348,7860 8370,7752 8433,7560 8217,7562 8101,7563 7991,7466 7880,7513 7756,7565 7738,7719 7721,7841 7705,7952 7894,8082 7810,8159 7715,8245 7527,8077 7422,8209 7351,8298 7229,8468 7352,8557 7462,8634 7555,8780 7711,8766 L 7751,8695 7770,8695 Z"/>
       </g>
      </g>
      <g class="com.sun.star.drawing.ClosedBezierShape">
       <g id="id4">
        <rect class="BoundingBox" stroke="none" fill="none" x="9599" y="8199" width="1444" height="1588"/>
        <path fill="rgb(255,255,255)" stroke="none" d="M 9806,9002 C 9707,9124 9663,9276 9632,9426 9604,9552 9710,9669 9814,9725 9933,9790 10091,9809 10216,9747 10310,9699 10358,9412 10427,9507 10533,9650 10670,9652 10792,9638 10901,9624 11033,9578 11041,9419 11046,9265 10976,9160 10923,9039 10887,8957 10653,8935 10843,8812 10940,8750 11127,8655 10967,8499 10880,8414 10872,8261 10756,8215 10626,8161 10499,8261 10398,8339 10305,8408 10348,8642 10230,8637 10096,8631 10082,8370 9909,8389 9790,8403 9576,8438 9602,8593 9625,8730 9586,8906 9711,9010 L 9792,8987 9806,9002 Z"/>
        <path fill="none" stroke="rgb(255,245,206)" d="M 9806,9002 C 9707,9124 9663,9276 9632,9426 9604,9552 9710,9669 9814,9725 9933,9790 10091,9809 10216,9747 10310,9699 10358,9412 10427,9507 10533,9650 10670,9652 10792,9638 10901,9624 11033,9578 11041,9419 11046,9265 10976,9160 10923,9039 10887,8957 10653,8935 10843,8812 10940,8750 11127,8655 10967,8499 10880,8414 10872,8261 10756,8215 10626,8161 10499,8261 10398,8339 10305,8408 10348,8642 10230,8637 10096,8631 10082,8370 9909,8389 9790,8403 9576,8438 9602,8593 9625,8730 9586,8906 9711,9010 L 9792,8987 9806,9002 Z"/>
       </g>
      </g>
      <g class="com.sun.star.drawing.ClosedBezierShape">
       <g id="id5">
        <rect class="BoundingBox" stroke="none" fill="none" x="8699" y="7195" width="1323" height="1307"/>
        <path fill="rgb(255,255,255)" stroke="none" d="M 9153,7728 C 9019,7604 9134,7415 9244,7310 9336,7222 9444,7181 9553,7201 9671,7222 9787,7343 9762,7483 9743,7585 9597,7679 9653,7764 9718,7864 9894,7838 9962,7946 10025,8046 10036,8177 9998,8282 9963,8384 9892,8499 9753,8500 9652,8501 9553,8491 9462,8428 9362,8359 9233,8424 9117,8418 8997,8412 8869,8408 8771,8318 8638,8196 8715,7996 8808,7891 8884,7806 8989,7759 9098,7746 L 9181,7746 9153,7728 Z"/>
        <path fill="none" stroke="rgb(255,245,206)" d="M 9153,7728 C 9019,7604 9134,7415 9244,7310 9336,7222 9444,7181 9553,7201 9671,7222 9787,7343 9762,7483 9743,7585 9597,7679 9653,7764 9718,7864 9894,7838 9962,7946 10025,8046 10036,8177 9998,8282 9963,8384 9892,8499 9753,8500 9652,8501 9553,8491 9462,8428 9362,8359 9233,8424 9117,8418 8997,8412 8869,8408 8771,8318 8638,8196 8715,7996 8808,7891 8884,7806 8989,7759 9098,7746 L 9181,7746 9153,7728 Z"/>
       </g>
      </g>
      <g class="com.sun.star.drawing.ClosedBezierShape">
       <g id="id6">
        <rect class="BoundingBox" stroke="none" fill="none" x="8226" y="8465" width="1476" height="1337"/>
        <path fill="rgb(255,255,255)" stroke="none" d="M 8958,8704 C 8955,8510 9184,8460 9345,8467 9480,8473 9590,8525 9656,8623 9726,8729 9718,8907 9592,8990 9500,9051 9321,9008 9297,9112 9270,9236 9417,9351 9385,9483 9354,9603 9262,9707 9154,9756 9051,9803 8910,9834 8807,9729 8732,9652 8668,9568 8650,9453 8630,9325 8484,9276 8404,9182 8320,9086 8230,8985 8227,8844 8223,8653 8432,8565 8581,8560 8702,8555 8815,8601 8905,8675 L 8965,8738 8958,8704 Z"/>
        <path fill="none" stroke="rgb(255,245,206)" d="M 8958,8704 C 8955,8510 9184,8460 9345,8467 9480,8473 9590,8525 9656,8623 9726,8729 9718,8907 9592,8990 9500,9051 9321,9008 9297,9112 9270,9236 9417,9351 9385,9483 9354,9603 9262,9707 9154,9756 9051,9803 8910,9834 8807,9729 8732,9652 8668,9568 8650,9453 8630,9325 8484,9276 8404,9182 8320,9086 8230,8985 8227,8844 8223,8653 8432,8565 8581,8560 8702,8555 8815,8601 8905,8675 L 8965,8738 8958,8704 Z"/>
       </g>
      </g>
      <g class="com.sun.star.drawing.ClosedBezierShape">
       <g id="id7">
        <rect class="BoundingBox" stroke="none" fill="none" x="6825" y="8561" width="1677" height="1141"/>
        <path fill="rgb(255,255,255)" stroke="none" d="M 7789,8761 C 7539,8712 7198,8382 6906,8695 6616,9010 7221,9168 7039,9379 6705,9766 7223,9651 7370,9687 7833,9802 7456,9136 7899,9423 8117,9564 8667,9241 8450,9071 8208,8880 8221,8397 7877,8761 L 7789,8805 7789,8761 Z"/>
        <path fill="none" stroke="rgb(255,245,206)" d="M 7789,8761 C 7539,8712 7198,8382 6906,8695 6616,9010 7221,9168 7039,9379 6705,9766 7223,9651 7370,9687 7833,9802 7456,9136 7899,9423 8117,9564 8667,9241 8450,9071 8208,8880 8221,8397 7877,8761 L 7789,8805 7789,8761 Z"/>
       </g>
      </g>
      <g class="com.sun.star.drawing.CustomShape">
       <g id="id8">
        <rect class="BoundingBox" stroke="none" fill="none" x="7082" y="9482" width="3938" height="2538"/>
        <path fill="rgb(255,56,56)" stroke="none" d="M 7100,9500 L 11001,9500 10025,12001 8075,12001 7100,9500 Z"/>
        <path fill="none" stroke="rgb(255,0,0)" stroke-width="35" stroke-linejoin="round" d="M 7100,9500 L 11001,9500 10025,12001 8075,12001 7100,9500 Z"/>
       </g>
      </g>
      <g class="com.sun.star.drawing.CustomShape">
       <g id="id9">
        <rect class="BoundingBox" stroke="none" fill="none" x="1064" y="3763" width="2833" height="433"/>
        <path fill="rgb(119,188,101)" stroke="none" d="M 3881,4114 L 3881,4113 C 3881,4125 3816,4136 3693,4147 3570,4157 3394,4165 3181,4171 2968,4177 2726,4180 2481,4180 L 2481,4180 C 2235,4180 1993,4177 1780,4171 1567,4165 1391,4157 1268,4147 1145,4136 1080,4125 1080,4113 L 1080,3779 1080,3779 C 1080,3791 1145,3802 1268,3812 1391,3823 1567,3831 1780,3837 1993,3843 2235,3846 2481,3846 L 2481,3846 C 2726,3846 2968,3843 3181,3837 3394,3831 3570,3823 3693,3812 3816,3802 3881,3791 3881,3779 L 3881,4114 Z"/>
        <path fill="none" stroke="rgb(6,154,46)" stroke-width="30" stroke-linejoin="round" d="M 3881,4114 L 3881,4113 C 3881,4125 3816,4136 3693,4147 3570,4157 3394,4165 3181,4171 2968,4177 2726,4180 2481,4180 L 2481,4180 C 2235,4180 1993,4177 1780,4171 1567,4165 1391,4157 1268,4147 1145,4136 1080,4125 1080,4113 L 1080,3779 1080,3779 C 1080,3791 1145,3802 1268,3812 1391,3823 1567,3831 1780,3837 1993,3843 2235,3846 2481,3846 L 2481,3846 C 2726,3846 2968,3843 3181,3837 3394,3831 3570,3823 3693,3812 3816,3802 3881,3791 3881,3779 L 3881,4114 Z"/>
       </g>
      </g>
      <g class="com.sun.star.drawing.CustomShape">
       <g id="id10">
        <rect class="BoundingBox" stroke="none" fill="none" x="1067" y="3700" width="307" height="136"/>
        <path fill="rgb(221,221,221)" stroke="none" d="M 1367,3728 C 1369,3737 1365,3747 1354,3758 1343,3769 1326,3780 1305,3790 1284,3800 1259,3809 1233,3816 1207,3823 1181,3828 1158,3829 1134,3831 1114,3830 1099,3826 1085,3822 1075,3815 1073,3806 1071,3798 1075,3788 1086,3777 1097,3766 1114,3755 1135,3745 1157,3735 1181,3726 1207,3719 1233,3712 1259,3707 1282,3706 1306,3704 1326,3705 1341,3709 1356,3713 1365,3720 1367,3728 L 1367,3728 Z"/>
        <path fill="none" stroke="rgb(153,153,153)" stroke-width="10" stroke-linejoin="round" d="M 1367,3728 C 1369,3737 1365,3747 1354,3758 1343,3769 1326,3780 1305,3790 1284,3800 1259,3809 1233,3816 1207,3823 1181,3828 1158,3829 1134,3831 1114,3830 1099,3826 1085,3822 1075,3815 1073,3806 1071,3798 1075,3788 1086,3777 1097,3766 1114,3755 1135,3745 1157,3735 1181,3726 1207,3719 1233,3712 1259,3707 1282,3706 1306,3704 1326,3705 1341,3709 1356,3713 1365,3720 1367,3728 Z"/>
       </g>
      </g>
      <g class="com.sun.star.drawing.CustomShape">
       <g id="id11">
        <rect class="BoundingBox" stroke="none" fill="none" x="1467" y="3600" width="307" height="136"/>
        <path fill="rgb(221,221,221)" stroke="none" d="M 1767,3628 C 1769,3637 1765,3647 1754,3658 1743,3669 1726,3680 1705,3690 1684,3700 1659,3709 1633,3716 1607,3723 1581,3728 1558,3729 1534,3731 1514,3730 1499,3726 1485,3722 1475,3715 1473,3706 1471,3698 1475,3688 1486,3677 1497,3666 1514,3655 1535,3645 1557,3635 1581,3626 1607,3619 1633,3612 1659,3607 1682,3606 1706,3604 1726,3605 1741,3609 1756,3613 1765,3620 1767,3628 L 1767,3628 Z"/>
        <path fill="none" stroke="rgb(153,153,153)" stroke-width="10" stroke-linejoin="round" d="M 1767,3628 C 1769,3637 1765,3647 1754,3658 1743,3669 1726,3680 1705,3690 1684,3700 1659,3709 1633,3716 1607,3723 1581,3728 1558,3729 1534,3731 1514,3730 1499,3726 1485,3722 1475,3715 1473,3706 1471,3698 1475,3688 1486,3677 1497,3666 1514,3655 1535,3645 1557,3635 1581,3626 1607,3619 1633,3612 1659,3607 1682,3606 1706,3604 1726,3605 1741,3609 1756,3613 1765,3620 1767,3628 Z"/>
       </g>
      </g>
      <g class="com.sun.star.drawing.CustomShape">
       <g id="id12">
        <rect class="BoundingBox" stroke="none" fill="none" x="1284" y="3632" width="309" height="132"/>
        <path fill="rgb(221,221,221)" stroke="none" d="M 1586,3731 C 1584,3740 1575,3747 1561,3751 1546,3756 1526,3758 1502,3757 1479,3756 1453,3753 1427,3747 1401,3741 1376,3733 1354,3723 1333,3714 1315,3703 1304,3693 1293,3682 1288,3672 1290,3664 1292,3655 1300,3648 1315,3644 1330,3639 1350,3637 1374,3638 1397,3639 1423,3642 1449,3648 1475,3654 1500,3662 1522,3672 1543,3681 1561,3692 1572,3702 1583,3713 1588,3723 1586,3731 L 1586,3731 Z"/>
        <path fill="none" stroke="rgb(153,153,153)" stroke-width="10" stroke-linejoin="round" d="M 1586,3731 C 1584,3740 1575,3747 1561,3751 1546,3756 1526,3758 1502,3757 1479,3756 1453,3753 1427,3747 1401,3741 1376,3733 1354,3723 1333,3714 1315,3703 1304,3693 1293,3682 1288,3672 1290,3664 1292,3655 1300,3648 1315,3644 1330,3639 1350,3637 1374,3638 1397,3639 1423,3642 1449,3648 1475,3654 1500,3662 1522,3672 1543,3681 1561,3692 1572,3702 1583,3713 1588,3723 1586,3731 Z"/>
       </g>
      </g>
      <g class="com.sun.star.drawing.CustomShape">
       <g id="id13">
        <rect class="BoundingBox" stroke="none" fill="none" x="1484" y="3697" width="309" height="132"/>
        <path fill="rgb(221,221,221)" stroke="none" d="M 1786,3796 C 1784,3805 1775,3812 1761,3816 1746,3821 1726,3823 1702,3822 1679,3821 1653,3818 1627,3812 1601,3806 1576,3798 1554,3788 1533,3779 1515,3768 1504,3758 1493,3747 1488,3737 1490,3729 1492,3720 1500,3713 1515,3709 1530,3704 1550,3702 1574,3703 1597,3704 1623,3707 1649,3713 1675,3719 1700,3727 1722,3737 1743,3746 1761,3757 1772,3767 1783,3778 1788,3788 1786,3796 L 1786,3796 Z"/>
        <path fill="none" stroke="rgb(153,153,153)" stroke-width="10" stroke-linejoin="round" d="M 1786,3796 C 1784,3805 1775,3812 1761,3816 1746,3821 1726,3823 1702,3822 1679,3821 1653,3818 1627,3812 1601,3806 1576,3798 1554,3788 1533,3779 1515,3768 1504,3758 1493,3747 1488,3737 1490,3729 1492,3720 1500,3713 1515,3709 1530,3704 1550,3702 1574,3703 1597,3704 1623,3707 1649,3713 1675,3719 1700,3727 1722,3737 1743,3746 1761,3757 1772,3767 1783,3778 1788,3788 1786,3796 Z"/>
       </g>
      </g>
      <g class="com.sun.star.drawing.CustomShape">
       <g id="id14">
        <rect class="BoundingBox" stroke="none" fill="none" x="1584" y="3632" width="309" height="132"/>
        <path fill="rgb(221,221,221)" stroke="none" d="M 1886,3731 C 1884,3740 1875,3747 1861,3751 1846,3756 1826,3758 1802,3757 1779,3756 1753,3753 1727,3747 1701,3741 1676,3733 1654,3723 1633,3714 1615,3703 1604,3693 1593,3682 1588,3672 1590,3664 1592,3655 1600,3648 1615,3644 1630,3639 1650,3637 1674,3638 1697,3639 1723,3642 1749,3648 1775,3654 1800,3662 1822,3672 1843,3681 1861,3692 1872,3702 1883,3713 1888,3723 1886,3731 L 1886,3731 Z"/>
        <path fill="none" stroke="rgb(153,153,153)" stroke-width="10" stroke-linejoin="round" d="M 1886,3731 C 1884,3740 1875,3747 1861,3751 1846,3756 1826,3758 1802,3757 1779,3756 1753,3753 1727,3747 1701,3741 1676,3733 1654,3723 1633,3714 1615,3703 1604,3693 1593,3682 1588,3672 1590,3664 1592,3655 1600,3648 1615,3644 1630,3639 1650,3637 1674,3638 1697,3639 1723,3642 1749,3648 1775,3654 1800,3662 1822,3672 1843,3681 1861,3692 1872,3702 1883,3713 1888,3723 1886,3731 Z"/>
       </g>
      </g>
      <g class="com.sun.star.drawing.CustomShape">
       <g id="id15">
        <rect class="BoundingBox" stroke="none" fill="none" x="1367" y="3534" width="309" height="130"/>
        <path fill="rgb(221,221,221)" stroke="none" d="M 1669,3565 C 1671,3574 1666,3584 1655,3594 1644,3605 1626,3615 1605,3625 1583,3634 1558,3642 1532,3648 1506,3654 1480,3657 1457,3658 1433,3659 1413,3657 1398,3652 1384,3647 1375,3640 1373,3632 1371,3623 1376,3613 1387,3603 1398,3592 1416,3582 1437,3572 1459,3563 1484,3555 1510,3549 1536,3543 1562,3540 1586,3539 1609,3538 1629,3540 1644,3545 1659,3550 1667,3557 1669,3565 L 1669,3565 Z"/>
        <path fill="none" stroke="rgb(153,153,153)" stroke-width="10" stroke-linejoin="round" d="M 1669,3565 C 1671,3574 1666,3584 1655,3594 1644,3605 1626,3615 1605,3625 1583,3634 1558,3642 1532,3648 1506,3654 1480,3657 1457,3658 1433,3659 1413,3657 1398,3652 1384,3647 1375,3640 1373,3632 1371,3623 1376,3613 1387,3603 1398,3592 1416,3582 1437,3572 1459,3563 1484,3555 1510,3549 1536,3543 1562,3540 1586,3539 1609,3538 1629,3540 1644,3545 1659,3550 1667,3557 1669,3565 Z"/>
       </g>
      </g>
      <g class="com.sun.star.drawing.CustomShape">
       <g id="id16">
        <rect class="BoundingBox" stroke="none" fill="none" x="1267" y="3732" width="309" height="132"/>
        <path fill="rgb(221,221,221)" stroke="none" d="M 1569,3831 C 1567,3840 1558,3847 1544,3851 1529,3856 1509,3858 1485,3857 1462,3856 1436,3853 1410,3847 1384,3841 1359,3833 1337,3823 1316,3814 1298,3803 1287,3793 1276,3782 1271,3772 1273,3764 1275,3755 1283,3748 1298,3744 1313,3739 1333,3737 1357,3738 1380,3739 1406,3742 1432,3748 1458,3754 1483,3762 1505,3772 1526,3781 1544,3792 1555,3802 1566,3813 1571,3823 1569,3831 L 1569,3831 Z"/>
        <path fill="none" stroke="rgb(153,153,153)" stroke-width="10" stroke-linejoin="round" d="M 1569,3831 C 1567,3840 1558,3847 1544,3851 1529,3856 1509,3858 1485,3857 1462,3856 1436,3853 1410,3847 1384,3841 1359,3833 1337,3823 1316,3814 1298,3803 1287,3793 1276,3782 1271,3772 1273,3764 1275,3755 1283,3748 1298,3744 1313,3739 1333,3737 1357,3738 1380,3739 1406,3742 1432,3748 1458,3754 1483,3762 1505,3772 1526,3781 1544,3792 1555,3802 1566,3813 1571,3823 1569,3831 Z"/>
       </g>
      </g>
      <g class="com.sun.star.drawing.CustomShape">
       <g id="id17">
        <rect class="BoundingBox" stroke="none" fill="none" x="1786" y="3727" width="307" height="136"/>
        <path fill="rgb(221,221,221)" stroke="none" d="M 2086,3755 C 2088,3764 2084,3774 2073,3785 2062,3796 2045,3807 2024,3817 2003,3827 1978,3836 1952,3843 1926,3850 1900,3855 1877,3856 1853,3858 1833,3857 1818,3853 1804,3849 1794,3842 1792,3833 1790,3825 1794,3815 1805,3804 1816,3793 1833,3782 1854,3772 1876,3762 1900,3753 1926,3746 1952,3739 1978,3734 2001,3733 2025,3731 2045,3732 2060,3736 2075,3740 2084,3747 2086,3755 L 2086,3755 Z"/>
        <path fill="none" stroke="rgb(153,153,153)" stroke-width="10" stroke-linejoin="round" d="M 2086,3755 C 2088,3764 2084,3774 2073,3785 2062,3796 2045,3807 2024,3817 2003,3827 1978,3836 1952,3843 1926,3850 1900,3855 1877,3856 1853,3858 1833,3857 1818,3853 1804,3849 1794,3842 1792,3833 1790,3825 1794,3815 1805,3804 1816,3793 1833,3782 1854,3772 1876,3762 1900,3753 1926,3746 1952,3739 1978,3734 2001,3733 2025,3731 2045,3732 2060,3736 2075,3740 2084,3747 2086,3755 Z"/>
       </g>
      </g>
      <g class="com.sun.star.drawing.CustomShape">
       <g id="id18">
        <rect class="BoundingBox" stroke="none" fill="none" x="2175" y="3665" width="307" height="136"/>
        <path fill="rgb(221,221,221)" stroke="none" d="M 2475,3693 C 2477,3702 2473,3712 2462,3723 2451,3734 2434,3745 2413,3755 2392,3765 2367,3774 2341,3781 2315,3788 2289,3793 2266,3794 2242,3796 2222,3795 2207,3791 2193,3787 2183,3780 2181,3771 2179,3763 2183,3753 2194,3742 2205,3731 2222,3720 2243,3710 2265,3700 2289,3691 2315,3684 2341,3677 2367,3672 2390,3671 2414,3669 2434,3670 2449,3674 2464,3678 2473,3685 2475,3693 L 2475,3693 Z"/>
        <path fill="none" stroke="rgb(153,153,153)" stroke-width="10" stroke-linejoin="round" d="M 2475,3693 C 2477,3702 2473,3712 2462,3723 2451,3734 2434,3745 2413,3755 2392,3765 2367,3774 2341,3781 2315,3788 2289,3793 2266,3794 2242,3796 2222,3795 2207,3791 2193,3787 2183,3780 2181,3771 2179,3763 2183,3753 2194,3742 2205,3731 2222,3720 2243,3710 2265,3700 2289,3691 2315,3684 2341,3677 2367,3672 2390,3671 2414,3669 2434,3670 2449,3674 2464,3678 2473,3685 2475,3693 Z"/>
       </g>
      </g>
      <g class="com.sun.star.drawing.CustomShape">
       <g id="id19">
        <rect class="BoundingBox" stroke="none" fill="none" x="1992" y="3697" width="309" height="132"/>
        <path fill="rgb(221,221,221)" stroke="none" d="M 2294,3796 C 2292,3805 2283,3812 2269,3816 2254,3821 2234,3823 2210,3822 2187,3821 2161,3818 2135,3812 2109,3806 2084,3798 2062,3788 2041,3779 2023,3768 2012,3758 2001,3747 1996,3737 1998,3729 2000,3720 2008,3713 2023,3709 2038,3704 2058,3702 2082,3703 2105,3704 2131,3707 2157,3713 2183,3719 2208,3727 2230,3737 2251,3746 2269,3757 2280,3767 2291,3778 2296,3788 2294,3796 L 2294,3796 Z"/>
        <path fill="none" stroke="rgb(153,153,153)" stroke-width="10" stroke-linejoin="round" d="M 2294,3796 C 2292,3805 2283,3812 2269,3816 2254,3821 2234,3823 2210,3822 2187,3821 2161,3818 2135,3812 2109,3806 2084,3798 2062,3788 2041,3779 2023,3768 2012,3758 2001,3747 1996,3737 1998,3729 2000,3720 2008,3713 2023,3709 2038,3704 2058,3702 2082,3703 2105,3704 2131,3707 2157,3713 2183,3719 2208,3727 2230,3737 2251,3746 2269,3757 2280,3767 2291,3778 2296,3788 2294,3796 Z"/>
       </g>
      </g>
      <g class="com.sun.star.drawing.CustomShape">
       <g id="id20">
        <rect class="BoundingBox" stroke="none" fill="none" x="2192" y="3762" width="309" height="132"/>
        <path fill="rgb(221,221,221)" stroke="none" d="M 2494,3861 C 2492,3870 2483,3877 2469,3881 2454,3886 2434,3888 2410,3887 2387,3886 2361,3883 2335,3877 2309,3871 2284,3863 2262,3853 2241,3844 2223,3833 2212,3823 2201,3812 2196,3802 2198,3794 2200,3785 2208,3778 2223,3774 2238,3769 2258,3767 2282,3768 2305,3769 2331,3772 2357,3778 2383,3784 2408,3792 2430,3802 2451,3811 2469,3822 2480,3832 2491,3843 2496,3853 2494,3861 L 2494,3861 Z"/>
        <path fill="none" stroke="rgb(153,153,153)" stroke-width="10" stroke-linejoin="round" d="M 2494,3861 C 2492,3870 2483,3877 2469,3881 2454,3886 2434,3888 2410,3887 2387,3886 2361,3883 2335,3877 2309,3871 2284,3863 2262,3853 2241,3844 2223,3833 2212,3823 2201,3812 2196,3802 2198,3794 2200,3785 2208,3778 2223,3774 2238,3769 2258,3767 2282,3768 2305,3769 2331,3772 2357,3778 2383,3784 2408,3792 2430,3802 2451,3811 2469,3822 2480,3832 2491,3843 2496,3853 2494,3861 Z"/>
       </g>
      </g>
      <g class="com.sun.star.drawing.CustomShape">
       <g id="id21">
        <rect class="BoundingBox" stroke="none" fill="none" x="1784" y="3632" width="309" height="132"/>
        <path fill="rgb(221,221,221)" stroke="none" d="M 2086,3731 C 2084,3740 2075,3747 2061,3751 2046,3756 2026,3758 2002,3757 1979,3756 1953,3753 1927,3747 1901,3741 1876,3733 1854,3723 1833,3714 1815,3703 1804,3693 1793,3682 1788,3672 1790,3664 1792,3655 1800,3648 1815,3644 1830,3639 1850,3637 1874,3638 1897,3639 1923,3642 1949,3648 1975,3654 2000,3662 2022,3672 2043,3681 2061,3692 2072,3702 2083,3713 2088,3723 2086,3731 L 2086,3731 Z"/>
        <path fill="none" stroke="rgb(153,153,153)" stroke-width="10" stroke-linejoin="round" d="M 2086,3731 C 2084,3740 2075,3747 2061,3751 2046,3756 2026,3758 2002,3757 1979,3756 1953,3753 1927,3747 1901,3741 1876,3733 1854,3723 1833,3714 1815,3703 1804,3693 1793,3682 1788,3672 1790,3664 1792,3655 1800,3648 1815,3644 1830,3639 1850,3637 1874,3638 1897,3639 1923,3642 1949,3648 1975,3654 2000,3662 2022,3672 2043,3681 2061,3692 2072,3702 2083,3713 2088,3723 2086,3731 Z"/>
       </g>
      </g>
      <g class="com.sun.star.drawing.CustomShape">
       <g id="id22">
        <rect class="BoundingBox" stroke="none" fill="none" x="2075" y="3599" width="309" height="130"/>
        <path fill="rgb(221,221,221)" stroke="none" d="M 2377,3630 C 2379,3639 2374,3649 2363,3659 2352,3670 2334,3680 2313,3690 2291,3699 2266,3707 2240,3713 2214,3719 2188,3722 2165,3723 2141,3724 2121,3722 2106,3717 2092,3712 2083,3705 2081,3697 2079,3688 2084,3678 2095,3668 2106,3657 2124,3647 2145,3637 2167,3628 2192,3620 2218,3614 2244,3608 2270,3605 2294,3604 2317,3603 2337,3605 2352,3610 2367,3615 2375,3622 2377,3630 L 2377,3630 Z"/>
        <path fill="none" stroke="rgb(153,153,153)" stroke-width="10" stroke-linejoin="round" d="M 2377,3630 C 2379,3639 2374,3649 2363,3659 2352,3670 2334,3680 2313,3690 2291,3699 2266,3707 2240,3713 2214,3719 2188,3722 2165,3723 2141,3724 2121,3722 2106,3717 2092,3712 2083,3705 2081,3697 2079,3688 2084,3678 2095,3668 2106,3657 2124,3647 2145,3637 2167,3628 2192,3620 2218,3614 2244,3608 2270,3605 2294,3604 2317,3603 2337,3605 2352,3610 2367,3615 2375,3622 2377,3630 Z"/>
       </g>
      </g>
      <g class="com.sun.star.drawing.CustomShape">
       <g id="id23">
        <rect class="BoundingBox" stroke="none" fill="none" x="1975" y="3762" width="309" height="132"/>
        <path fill="rgb(221,221,221)" stroke="none" d="M 2277,3861 C 2275,3870 2266,3877 2252,3881 2237,3886 2217,3888 2193,3887 2170,3886 2144,3883 2118,3877 2092,3871 2067,3863 2045,3853 2024,3844 2006,3833 1995,3823 1984,3812 1979,3802 1981,3794 1983,3785 1991,3778 2006,3774 2021,3769 2041,3767 2065,3768 2088,3769 2114,3772 2140,3778 2166,3784 2191,3792 2213,3802 2234,3811 2252,3822 2263,3832 2274,3843 2279,3853 2277,3861 L 2277,3861 Z"/>
        <path fill="none" stroke="rgb(153,153,153)" stroke-width="10" stroke-linejoin="round" d="M 2277,3861 C 2275,3870 2266,3877 2252,3881 2237,3886 2217,3888 2193,3887 2170,3886 2144,3883 2118,3877 2092,3871 2067,3863 2045,3853 2024,3844 2006,3833 1995,3823 1984,3812 1979,3802 1981,3794 1983,3785 1991,3778 2006,3774 2021,3769 2041,3767 2065,3768 2088,3769 2114,3772 2140,3778 2166,3784 2191,3792 2213,3802 2234,3811 2252,3822 2263,3832 2274,3843 2279,3853 2277,3861 Z"/>
       </g>
      </g>
      <g class="com.sun.star.drawing.CustomShape">
       <g id="id24">
        <rect class="BoundingBox" stroke="none" fill="none" x="3261" y="3697" width="307" height="136"/>
        <path fill="rgb(221,221,221)" stroke="none" d="M 3561,3725 C 3563,3734 3559,3744 3548,3755 3537,3766 3520,3777 3499,3787 3478,3797 3453,3806 3427,3813 3401,3820 3375,3825 3352,3826 3328,3828 3308,3827 3293,3823 3279,3819 3269,3812 3267,3803 3265,3795 3269,3785 3280,3774 3291,3763 3308,3752 3329,3742 3351,3732 3375,3723 3401,3716 3427,3709 3453,3704 3476,3703 3500,3701 3520,3702 3535,3706 3550,3710 3559,3717 3561,3725 L 3561,3725 Z"/>
        <path fill="none" stroke="rgb(153,153,153)" stroke-width="10" stroke-linejoin="round" d="M 3561,3725 C 3563,3734 3559,3744 3548,3755 3537,3766 3520,3777 3499,3787 3478,3797 3453,3806 3427,3813 3401,3820 3375,3825 3352,3826 3328,3828 3308,3827 3293,3823 3279,3819 3269,3812 3267,3803 3265,3795 3269,3785 3280,3774 3291,3763 3308,3752 3329,3742 3351,3732 3375,3723 3401,3716 3427,3709 3453,3704 3476,3703 3500,3701 3520,3702 3535,3706 3550,3710 3559,3717 3561,3725 Z"/>
       </g>
      </g>
      <g class="com.sun.star.drawing.CustomShape">
       <g id="id25">
        <rect class="BoundingBox" stroke="none" fill="none" x="3567" y="3625" width="307" height="136"/>
        <path fill="rgb(221,221,221)" stroke="none" d="M 3867,3653 C 3869,3662 3865,3672 3854,3683 3843,3694 3826,3705 3805,3715 3784,3725 3759,3734 3733,3741 3707,3748 3681,3753 3658,3754 3634,3756 3614,3755 3599,3751 3585,3747 3575,3740 3573,3731 3571,3723 3575,3713 3586,3702 3597,3691 3614,3680 3635,3670 3657,3660 3681,3651 3707,3644 3733,3637 3759,3632 3782,3631 3806,3629 3826,3630 3841,3634 3856,3638 3865,3645 3867,3653 L 3867,3653 Z"/>
        <path fill="none" stroke="rgb(153,153,153)" stroke-width="10" stroke-linejoin="round" d="M 3867,3653 C 3869,3662 3865,3672 3854,3683 3843,3694 3826,3705 3805,3715 3784,3725 3759,3734 3733,3741 3707,3748 3681,3753 3658,3754 3634,3756 3614,3755 3599,3751 3585,3747 3575,3740 3573,3731 3571,3723 3575,3713 3586,3702 3597,3691 3614,3680 3635,3670 3657,3660 3681,3651 3707,3644 3733,3637 3759,3632 3782,3631 3806,3629 3826,3630 3841,3634 3856,3638 3865,3645 3867,3653 Z"/>
       </g>
      </g>
      <g class="com.sun.star.drawing.CustomShape">
       <g id="id26">
        <rect class="BoundingBox" stroke="none" fill="none" x="3467" y="3667" width="309" height="132"/>
        <path fill="rgb(221,221,221)" stroke="none" d="M 3769,3766 C 3767,3775 3758,3782 3744,3786 3729,3791 3709,3793 3685,3792 3662,3791 3636,3788 3610,3782 3584,3776 3559,3768 3537,3758 3516,3749 3498,3738 3487,3728 3476,3717 3471,3707 3473,3699 3475,3690 3483,3683 3498,3679 3513,3674 3533,3672 3557,3673 3580,3674 3606,3677 3632,3683 3658,3689 3683,3697 3705,3707 3726,3716 3744,3727 3755,3737 3766,3748 3771,3758 3769,3766 L 3769,3766 Z"/>
        <path fill="none" stroke="rgb(153,153,153)" stroke-width="10" stroke-linejoin="round" d="M 3769,3766 C 3767,3775 3758,3782 3744,3786 3729,3791 3709,3793 3685,3792 3662,3791 3636,3788 3610,3782 3584,3776 3559,3768 3537,3758 3516,3749 3498,3738 3487,3728 3476,3717 3471,3707 3473,3699 3475,3690 3483,3683 3498,3679 3513,3674 3533,3672 3557,3673 3580,3674 3606,3677 3632,3683 3658,3689 3683,3697 3705,3707 3726,3716 3744,3727 3755,3737 3766,3748 3771,3758 3769,3766 Z"/>
       </g>
      </g>
      <g class="com.sun.star.drawing.CustomShape">
       <g id="id27">
        <rect class="BoundingBox" stroke="none" fill="none" x="3667" y="3732" width="309" height="132"/>
        <path fill="rgb(221,221,221)" stroke="none" d="M 3969,3831 C 3967,3840 3958,3847 3944,3851 3929,3856 3909,3858 3885,3857 3862,3856 3836,3853 3810,3847 3784,3841 3759,3833 3737,3823 3716,3814 3698,3803 3687,3793 3676,3782 3671,3772 3673,3764 3675,3755 3683,3748 3698,3744 3713,3739 3733,3737 3757,3738 3780,3739 3806,3742 3832,3748 3858,3754 3883,3762 3905,3772 3926,3781 3944,3792 3955,3802 3966,3813 3971,3823 3969,3831 L 3969,3831 Z"/>
        <path fill="none" stroke="rgb(153,153,153)" stroke-width="10" stroke-linejoin="round" d="M 3969,3831 C 3967,3840 3958,3847 3944,3851 3929,3856 3909,3858 3885,3857 3862,3856 3836,3853 3810,3847 3784,3841 3759,3833 3737,3823 3716,3814 3698,3803 3687,3793 3676,3782 3671,3772 3673,3764 3675,3755 3683,3748 3698,3744 3713,3739 3733,3737 3757,3738 3780,3739 3806,3742 3832,3748 3858,3754 3883,3762 3905,3772 3926,3781 3944,3792 3955,3802 3966,3813 3971,3823 3969,3831 Z"/>
       </g>
      </g>
      <g class="com.sun.star.drawing.CustomShape">
       <g id="id28">
        <rect class="BoundingBox" stroke="none" fill="none" x="3367" y="3567" width="309" height="132"/>
        <path fill="rgb(221,221,221)" stroke="none" d="M 3669,3666 C 3667,3675 3658,3682 3644,3686 3629,3691 3609,3693 3585,3692 3562,3691 3536,3688 3510,3682 3484,3676 3459,3668 3437,3658 3416,3649 3398,3638 3387,3628 3376,3617 3371,3607 3373,3599 3375,3590 3383,3583 3398,3579 3413,3574 3433,3572 3457,3573 3480,3574 3506,3577 3532,3583 3558,3589 3583,3597 3605,3607 3626,3616 3644,3627 3655,3637 3666,3648 3671,3658 3669,3666 L 3669,3666 Z"/>
        <path fill="none" stroke="rgb(153,153,153)" stroke-width="10" stroke-linejoin="round" d="M 3669,3666 C 3667,3675 3658,3682 3644,3686 3629,3691 3609,3693 3585,3692 3562,3691 3536,3688 3510,3682 3484,3676 3459,3668 3437,3658 3416,3649 3398,3638 3387,3628 3376,3617 3371,3607 3373,3599 3375,3590 3383,3583 3398,3579 3413,3574 3433,3572 3457,3573 3480,3574 3506,3577 3532,3583 3558,3589 3583,3597 3605,3607 3626,3616 3644,3627 3655,3637 3666,3648 3671,3658 3669,3666 Z"/>
       </g>
      </g>
      <g class="com.sun.star.drawing.CustomShape">
       <g id="id29">
        <rect class="BoundingBox" stroke="none" fill="none" x="1967" y="3434" width="309" height="130"/>
        <path fill="rgb(221,221,221)" stroke="none" d="M 2269,3465 C 2271,3474 2266,3484 2255,3494 2244,3505 2226,3515 2205,3525 2183,3534 2158,3542 2132,3548 2106,3554 2080,3557 2057,3558 2033,3559 2013,3557 1998,3552 1984,3547 1975,3540 1973,3532 1971,3523 1976,3513 1987,3503 1998,3492 2016,3482 2037,3472 2059,3463 2084,3455 2110,3449 2136,3443 2162,3440 2186,3439 2209,3438 2229,3440 2244,3445 2259,3450 2267,3457 2269,3465 L 2269,3465 Z"/>
        <path fill="none" stroke="rgb(153,153,153)" stroke-width="10" stroke-linejoin="round" d="M 2269,3465 C 2271,3474 2266,3484 2255,3494 2244,3505 2226,3515 2205,3525 2183,3534 2158,3542 2132,3548 2106,3554 2080,3557 2057,3558 2033,3559 2013,3557 1998,3552 1984,3547 1975,3540 1973,3532 1971,3523 1976,3513 1987,3503 1998,3492 2016,3482 2037,3472 2059,3463 2084,3455 2110,3449 2136,3443 2162,3440 2186,3439 2209,3438 2229,3440 2244,3445 2259,3450 2267,3457 2269,3465 Z"/>
       </g>
      </g>
      <g class="com.sun.star.drawing.CustomShape">
       <g id="id30">
        <rect class="BoundingBox" stroke="none" fill="none" x="3450" y="3732" width="309" height="132"/>
        <path fill="rgb(221,221,221)" stroke="none" d="M 3752,3831 C 3750,3840 3741,3847 3727,3851 3712,3856 3692,3858 3668,3857 3645,3856 3619,3853 3593,3847 3567,3841 3542,3833 3520,3823 3499,3814 3481,3803 3470,3793 3459,3782 3454,3772 3456,3764 3458,3755 3466,3748 3481,3744 3496,3739 3516,3737 3540,3738 3563,3739 3589,3742 3615,3748 3641,3754 3666,3762 3688,3772 3709,3781 3727,3792 3738,3802 3749,3813 3754,3823 3752,3831 L 3752,3831 Z"/>
        <path fill="none" stroke="rgb(153,153,153)" stroke-width="10" stroke-linejoin="round" d="M 3752,3831 C 3750,3840 3741,3847 3727,3851 3712,3856 3692,3858 3668,3857 3645,3856 3619,3853 3593,3847 3567,3841 3542,3833 3520,3823 3499,3814 3481,3803 3470,3793 3459,3782 3454,3772 3456,3764 3458,3755 3466,3748 3481,3744 3496,3739 3516,3737 3540,3738 3563,3739 3589,3742 3615,3748 3641,3754 3666,3762 3688,3772 3709,3781 3727,3792 3738,3802 3749,3813 3754,3823 3752,3831 Z"/>
       </g>
      </g>
      <g class="com.sun.star.drawing.CustomShape">
       <g id="id31">
        <rect class="BoundingBox" stroke="none" fill="none" x="2686" y="3697" width="307" height="136"/>
        <path fill="rgb(221,221,221)" stroke="none" d="M 2986,3725 C 2988,3734 2984,3744 2973,3755 2962,3766 2945,3777 2924,3787 2903,3797 2878,3806 2852,3813 2826,3820 2800,3825 2777,3826 2753,3828 2733,3827 2718,3823 2704,3819 2694,3812 2692,3803 2690,3795 2694,3785 2705,3774 2716,3763 2733,3752 2754,3742 2776,3732 2800,3723 2826,3716 2852,3709 2878,3704 2901,3703 2925,3701 2945,3702 2960,3706 2975,3710 2984,3717 2986,3725 L 2986,3725 Z"/>
        <path fill="none" stroke="rgb(153,153,153)" stroke-width="10" stroke-linejoin="round" d="M 2986,3725 C 2988,3734 2984,3744 2973,3755 2962,3766 2945,3777 2924,3787 2903,3797 2878,3806 2852,3813 2826,3820 2800,3825 2777,3826 2753,3828 2733,3827 2718,3823 2704,3819 2694,3812 2692,3803 2690,3795 2694,3785 2705,3774 2716,3763 2733,3752 2754,3742 2776,3732 2800,3723 2826,3716 2852,3709 2878,3704 2901,3703 2925,3701 2945,3702 2960,3706 2975,3710 2984,3717 2986,3725 Z"/>
       </g>
      </g>
      <g class="com.sun.star.drawing.CustomShape">
       <g id="id32">
        <rect class="BoundingBox" stroke="none" fill="none" x="3075" y="3635" width="307" height="136"/>
        <path fill="rgb(221,221,221)" stroke="none" d="M 3375,3663 C 3377,3672 3373,3682 3362,3693 3351,3704 3334,3715 3313,3725 3292,3735 3267,3744 3241,3751 3215,3758 3189,3763 3166,3764 3142,3766 3122,3765 3107,3761 3093,3757 3083,3750 3081,3741 3079,3733 3083,3723 3094,3712 3105,3701 3122,3690 3143,3680 3165,3670 3189,3661 3215,3654 3241,3647 3267,3642 3290,3641 3314,3639 3334,3640 3349,3644 3364,3648 3373,3655 3375,3663 L 3375,3663 Z"/>
        <path fill="none" stroke="rgb(153,153,153)" stroke-width="10" stroke-linejoin="round" d="M 3375,3663 C 3377,3672 3373,3682 3362,3693 3351,3704 3334,3715 3313,3725 3292,3735 3267,3744 3241,3751 3215,3758 3189,3763 3166,3764 3142,3766 3122,3765 3107,3761 3093,3757 3083,3750 3081,3741 3079,3733 3083,3723 3094,3712 3105,3701 3122,3690 3143,3680 3165,3670 3189,3661 3215,3654 3241,3647 3267,3642 3290,3641 3314,3639 3334,3640 3349,3644 3364,3648 3373,3655 3375,3663 Z"/>
       </g>
      </g>
      <g class="com.sun.star.drawing.CustomShape">
       <g id="id33">
        <rect class="BoundingBox" stroke="none" fill="none" x="2892" y="3667" width="309" height="132"/>
        <path fill="rgb(221,221,221)" stroke="none" d="M 3194,3766 C 3192,3775 3183,3782 3169,3786 3154,3791 3134,3793 3110,3792 3087,3791 3061,3788 3035,3782 3009,3776 2984,3768 2962,3758 2941,3749 2923,3738 2912,3728 2901,3717 2896,3707 2898,3699 2900,3690 2908,3683 2923,3679 2938,3674 2958,3672 2982,3673 3005,3674 3031,3677 3057,3683 3083,3689 3108,3697 3130,3707 3151,3716 3169,3727 3180,3737 3191,3748 3196,3758 3194,3766 L 3194,3766 Z"/>
        <path fill="none" stroke="rgb(153,153,153)" stroke-width="10" stroke-linejoin="round" d="M 3194,3766 C 3192,3775 3183,3782 3169,3786 3154,3791 3134,3793 3110,3792 3087,3791 3061,3788 3035,3782 3009,3776 2984,3768 2962,3758 2941,3749 2923,3738 2912,3728 2901,3717 2896,3707 2898,3699 2900,3690 2908,3683 2923,3679 2938,3674 2958,3672 2982,3673 3005,3674 3031,3677 3057,3683 3083,3689 3108,3697 3130,3707 3151,3716 3169,3727 3180,3737 3191,3748 3196,3758 3194,3766 Z"/>
       </g>
      </g>
      <g class="com.sun.star.drawing.CustomShape">
       <g id="id34">
        <rect class="BoundingBox" stroke="none" fill="none" x="3092" y="3732" width="309" height="132"/>
        <path fill="rgb(221,221,221)" stroke="none" d="M 3394,3831 C 3392,3840 3383,3847 3369,3851 3354,3856 3334,3858 3310,3857 3287,3856 3261,3853 3235,3847 3209,3841 3184,3833 3162,3823 3141,3814 3123,3803 3112,3793 3101,3782 3096,3772 3098,3764 3100,3755 3108,3748 3123,3744 3138,3739 3158,3737 3182,3738 3205,3739 3231,3742 3257,3748 3283,3754 3308,3762 3330,3772 3351,3781 3369,3792 3380,3802 3391,3813 3396,3823 3394,3831 L 3394,3831 Z"/>
        <path fill="none" stroke="rgb(153,153,153)" stroke-width="10" stroke-linejoin="round" d="M 3394,3831 C 3392,3840 3383,3847 3369,3851 3354,3856 3334,3858 3310,3857 3287,3856 3261,3853 3235,3847 3209,3841 3184,3833 3162,3823 3141,3814 3123,3803 3112,3793 3101,3782 3096,3772 3098,3764 3100,3755 3108,3748 3123,3744 3138,3739 3158,3737 3182,3738 3205,3739 3231,3742 3257,3748 3283,3754 3308,3762 3330,3772 3351,3781 3369,3792 3380,3802 3391,3813 3396,3823 3394,3831 Z"/>
       </g>
      </g>
      <g class="com.sun.star.drawing.CustomShape">
       <g id="id35">
        <rect class="BoundingBox" stroke="none" fill="none" x="3267" y="3632" width="309" height="132"/>
        <path fill="rgb(221,221,221)" stroke="none" d="M 3569,3731 C 3567,3740 3558,3747 3544,3751 3529,3756 3509,3758 3485,3757 3462,3756 3436,3753 3410,3747 3384,3741 3359,3733 3337,3723 3316,3714 3298,3703 3287,3693 3276,3682 3271,3672 3273,3664 3275,3655 3283,3648 3298,3644 3313,3639 3333,3637 3357,3638 3380,3639 3406,3642 3432,3648 3458,3654 3483,3662 3505,3672 3526,3681 3544,3692 3555,3702 3566,3713 3571,3723 3569,3731 L 3569,3731 Z"/>
        <path fill="none" stroke="rgb(153,153,153)" stroke-width="10" stroke-linejoin="round" d="M 3569,3731 C 3567,3740 3558,3747 3544,3751 3529,3756 3509,3758 3485,3757 3462,3756 3436,3753 3410,3747 3384,3741 3359,3733 3337,3723 3316,3714 3298,3703 3287,3693 3276,3682 3271,3672 3273,3664 3275,3655 3283,3648 3298,3644 3313,3639 3333,3637 3357,3638 3380,3639 3406,3642 3432,3648 3458,3654 3483,3662 3505,3672 3526,3681 3544,3692 3555,3702 3566,3713 3571,3723 3569,3731 Z"/>
       </g>
      </g>
      <g class="com.sun.star.drawing.CustomShape">
       <g id="id36">
        <rect class="BoundingBox" stroke="none" fill="none" x="2975" y="3569" width="309" height="130"/>
        <path fill="rgb(221,221,221)" stroke="none" d="M 3277,3600 C 3279,3609 3274,3619 3263,3629 3252,3640 3234,3650 3213,3660 3191,3669 3166,3677 3140,3683 3114,3689 3088,3692 3065,3693 3041,3694 3021,3692 3006,3687 2992,3682 2983,3675 2981,3667 2979,3658 2984,3648 2995,3638 3006,3627 3024,3617 3045,3607 3067,3598 3092,3590 3118,3584 3144,3578 3170,3575 3194,3574 3217,3573 3237,3575 3252,3580 3267,3585 3275,3592 3277,3600 L 3277,3600 Z"/>
        <path fill="none" stroke="rgb(153,153,153)" stroke-width="10" stroke-linejoin="round" d="M 3277,3600 C 3279,3609 3274,3619 3263,3629 3252,3640 3234,3650 3213,3660 3191,3669 3166,3677 3140,3683 3114,3689 3088,3692 3065,3693 3041,3694 3021,3692 3006,3687 2992,3682 2983,3675 2981,3667 2979,3658 2984,3648 2995,3638 3006,3627 3024,3617 3045,3607 3067,3598 3092,3590 3118,3584 3144,3578 3170,3575 3194,3574 3217,3573 3237,3575 3252,3580 3267,3585 3275,3592 3277,3600 Z"/>
       </g>
      </g>
      <g class="com.sun.star.drawing.CustomShape">
       <g id="id37">
        <rect class="BoundingBox" stroke="none" fill="none" x="2875" y="3732" width="309" height="132"/>
        <path fill="rgb(221,221,221)" stroke="none" d="M 3177,3831 C 3175,3840 3166,3847 3152,3851 3137,3856 3117,3858 3093,3857 3070,3856 3044,3853 3018,3847 2992,3841 2967,3833 2945,3823 2924,3814 2906,3803 2895,3793 2884,3782 2879,3772 2881,3764 2883,3755 2891,3748 2906,3744 2921,3739 2941,3737 2965,3738 2988,3739 3014,3742 3040,3748 3066,3754 3091,3762 3113,3772 3134,3781 3152,3792 3163,3802 3174,3813 3179,3823 3177,3831 L 3177,3831 Z"/>
        <path fill="none" stroke="rgb(153,153,153)" stroke-width="10" stroke-linejoin="round" d="M 3177,3831 C 3175,3840 3166,3847 3152,3851 3137,3856 3117,3858 3093,3857 3070,3856 3044,3853 3018,3847 2992,3841 2967,3833 2945,3823 2924,3814 2906,3803 2895,3793 2884,3782 2879,3772 2881,3764 2883,3755 2891,3748 2906,3744 2921,3739 2941,3737 2965,3738 2988,3739 3014,3742 3040,3748 3066,3754 3091,3762 3113,3772 3134,3781 3152,3792 3163,3802 3174,3813 3179,3823 3177,3831 Z"/>
       </g>
      </g>
      <g class="com.sun.star.drawing.CustomShape">
       <g id="id38">
        <rect class="BoundingBox" stroke="none" fill="none" x="2767" y="3627" width="307" height="136"/>
        <path fill="rgb(221,221,221)" stroke="none" d="M 2773,3734 C 2771,3725 2775,3715 2786,3704 2797,3693 2814,3682 2835,3672 2856,3662 2881,3653 2907,3646 2933,3639 2959,3634 2982,3633 3006,3631 3026,3632 3041,3636 3055,3640 3065,3647 3067,3656 3069,3664 3065,3674 3054,3685 3043,3696 3026,3707 3005,3717 2983,3727 2959,3736 2933,3743 2907,3750 2881,3755 2858,3756 2834,3758 2814,3757 2799,3753 2784,3749 2775,3742 2773,3734 L 2773,3734 Z"/>
        <path fill="none" stroke="rgb(153,153,153)" stroke-width="10" stroke-linejoin="round" d="M 2773,3734 C 2771,3725 2775,3715 2786,3704 2797,3693 2814,3682 2835,3672 2856,3662 2881,3653 2907,3646 2933,3639 2959,3634 2982,3633 3006,3631 3026,3632 3041,3636 3055,3640 3065,3647 3067,3656 3069,3664 3065,3674 3054,3685 3043,3696 3026,3707 3005,3717 2983,3727 2959,3736 2933,3743 2907,3750 2881,3755 2858,3756 2834,3758 2814,3757 2799,3753 2784,3749 2775,3742 2773,3734 Z"/>
       </g>
      </g>
      <g class="com.sun.star.drawing.CustomShape">
       <g id="id39">
        <rect class="BoundingBox" stroke="none" fill="none" x="2378" y="3689" width="307" height="136"/>
        <path fill="rgb(221,221,221)" stroke="none" d="M 2384,3796 C 2382,3787 2386,3777 2397,3766 2408,3755 2425,3744 2446,3734 2467,3724 2492,3715 2518,3708 2544,3701 2570,3696 2593,3695 2617,3693 2637,3694 2652,3698 2666,3702 2676,3709 2678,3718 2680,3726 2676,3736 2665,3747 2654,3758 2637,3769 2616,3779 2594,3789 2570,3798 2544,3805 2518,3812 2492,3817 2469,3818 2445,3820 2425,3819 2410,3815 2395,3811 2386,3804 2384,3796 L 2384,3796 Z"/>
        <path fill="none" stroke="rgb(153,153,153)" stroke-width="10" stroke-linejoin="round" d="M 2384,3796 C 2382,3787 2386,3777 2397,3766 2408,3755 2425,3744 2446,3734 2467,3724 2492,3715 2518,3708 2544,3701 2570,3696 2593,3695 2617,3693 2637,3694 2652,3698 2666,3702 2676,3709 2678,3718 2680,3726 2676,3736 2665,3747 2654,3758 2637,3769 2616,3779 2594,3789 2570,3798 2544,3805 2518,3812 2492,3817 2469,3818 2445,3820 2425,3819 2410,3815 2395,3811 2386,3804 2384,3796 Z"/>
       </g>
      </g>
      <g class="com.sun.star.drawing.CustomShape">
       <g id="id40">
        <rect class="BoundingBox" stroke="none" fill="none" x="2559" y="3661" width="309" height="132"/>
        <path fill="rgb(221,221,221)" stroke="none" d="M 2565,3693 C 2567,3684 2576,3677 2590,3673 2605,3668 2625,3666 2649,3667 2672,3668 2698,3671 2724,3677 2750,3683 2775,3691 2797,3701 2818,3710 2836,3721 2847,3731 2858,3742 2863,3752 2861,3760 2859,3769 2851,3776 2836,3780 2821,3785 2801,3787 2777,3786 2754,3785 2728,3782 2702,3776 2676,3770 2651,3762 2629,3752 2608,3743 2590,3732 2579,3722 2568,3711 2563,3701 2565,3693 L 2565,3693 Z"/>
        <path fill="none" stroke="rgb(153,153,153)" stroke-width="10" stroke-linejoin="round" d="M 2565,3693 C 2567,3684 2576,3677 2590,3673 2605,3668 2625,3666 2649,3667 2672,3668 2698,3671 2724,3677 2750,3683 2775,3691 2797,3701 2818,3710 2836,3721 2847,3731 2858,3742 2863,3752 2861,3760 2859,3769 2851,3776 2836,3780 2821,3785 2801,3787 2777,3786 2754,3785 2728,3782 2702,3776 2676,3770 2651,3762 2629,3752 2608,3743 2590,3732 2579,3722 2568,3711 2563,3701 2565,3693 Z"/>
       </g>
      </g>
      <g class="com.sun.star.drawing.CustomShape">
       <g id="id41">
        <rect class="BoundingBox" stroke="none" fill="none" x="2359" y="3596" width="309" height="132"/>
        <path fill="rgb(221,221,221)" stroke="none" d="M 2365,3628 C 2367,3619 2376,3612 2390,3608 2405,3603 2425,3601 2449,3602 2472,3603 2498,3606 2524,3612 2550,3618 2575,3626 2597,3636 2618,3645 2636,3656 2647,3666 2658,3677 2663,3687 2661,3695 2659,3704 2651,3711 2636,3715 2621,3720 2601,3722 2577,3721 2554,3720 2528,3717 2502,3711 2476,3705 2451,3697 2429,3687 2408,3678 2390,3667 2379,3657 2368,3646 2363,3636 2365,3628 L 2365,3628 Z"/>
        <path fill="none" stroke="rgb(153,153,153)" stroke-width="10" stroke-linejoin="round" d="M 2365,3628 C 2367,3619 2376,3612 2390,3608 2405,3603 2425,3601 2449,3602 2472,3603 2498,3606 2524,3612 2550,3618 2575,3626 2597,3636 2618,3645 2636,3656 2647,3666 2658,3677 2663,3687 2661,3695 2659,3704 2651,3711 2636,3715 2621,3720 2601,3722 2577,3721 2554,3720 2528,3717 2502,3711 2476,3705 2451,3697 2429,3687 2408,3678 2390,3667 2379,3657 2368,3646 2363,3636 2365,3628 Z"/>
       </g>
      </g>
      <g class="com.sun.star.drawing.CustomShape">
       <g id="id42">
        <rect class="BoundingBox" stroke="none" fill="none" x="2659" y="3761" width="309" height="132"/>
        <path fill="rgb(221,221,221)" stroke="none" d="M 2665,3793 C 2667,3784 2676,3777 2690,3773 2705,3768 2725,3766 2749,3767 2772,3768 2798,3771 2824,3777 2850,3783 2875,3791 2897,3801 2918,3810 2936,3821 2947,3831 2958,3842 2963,3852 2961,3860 2959,3869 2951,3876 2936,3880 2921,3885 2901,3887 2877,3886 2854,3885 2828,3882 2802,3876 2776,3870 2751,3862 2729,3852 2708,3843 2690,3832 2679,3822 2668,3811 2663,3801 2665,3793 L 2665,3793 Z"/>
        <path fill="none" stroke="rgb(153,153,153)" stroke-width="10" stroke-linejoin="round" d="M 2665,3793 C 2667,3784 2676,3777 2690,3773 2705,3768 2725,3766 2749,3767 2772,3768 2798,3771 2824,3777 2850,3783 2875,3791 2897,3801 2918,3810 2936,3821 2947,3831 2958,3842 2963,3852 2961,3860 2959,3869 2951,3876 2936,3880 2921,3885 2901,3887 2877,3886 2854,3885 2828,3882 2802,3876 2776,3870 2751,3862 2729,3852 2708,3843 2690,3832 2679,3822 2668,3811 2663,3801 2665,3793 Z"/>
       </g>
      </g>
      <g class="com.sun.star.drawing.CustomShape">
       <g id="id43">
        <rect class="BoundingBox" stroke="none" fill="none" x="2477" y="3762" width="309" height="130"/>
        <path fill="rgb(221,221,221)" stroke="none" d="M 2483,3860 C 2481,3851 2486,3841 2497,3831 2508,3820 2526,3810 2547,3800 2569,3791 2594,3783 2620,3777 2646,3771 2672,3768 2695,3767 2719,3766 2739,3768 2754,3773 2768,3778 2777,3785 2779,3793 2781,3802 2776,3812 2765,3822 2754,3833 2736,3843 2715,3853 2693,3862 2668,3870 2642,3876 2616,3882 2590,3885 2566,3886 2543,3887 2523,3885 2508,3880 2493,3875 2485,3868 2483,3860 L 2483,3860 Z"/>
        <path fill="none" stroke="rgb(153,153,153)" stroke-width="10" stroke-linejoin="round" d="M 2483,3860 C 2481,3851 2486,3841 2497,3831 2508,3820 2526,3810 2547,3800 2569,3791 2594,3783 2620,3777 2646,3771 2672,3768 2695,3767 2719,3766 2739,3768 2754,3773 2768,3778 2777,3785 2779,3793 2781,3802 2776,3812 2765,3822 2754,3833 2736,3843 2715,3853 2693,3862 2668,3870 2642,3876 2616,3882 2590,3885 2566,3886 2543,3887 2523,3885 2508,3880 2493,3875 2485,3868 2483,3860 Z"/>
       </g>
      </g>
      <g class="com.sun.star.drawing.CustomShape">
       <g id="id44">
        <rect class="BoundingBox" stroke="none" fill="none" x="2576" y="3596" width="309" height="132"/>
        <path fill="rgb(221,221,221)" stroke="none" d="M 2582,3628 C 2584,3619 2593,3612 2607,3608 2622,3603 2642,3601 2666,3602 2689,3603 2715,3606 2741,3612 2767,3618 2792,3626 2814,3636 2835,3645 2853,3656 2864,3666 2875,3677 2880,3687 2878,3695 2876,3704 2868,3711 2853,3715 2838,3720 2818,3722 2794,3721 2771,3720 2745,3717 2719,3711 2693,3705 2668,3697 2646,3687 2625,3678 2607,3667 2596,3657 2585,3646 2580,3636 2582,3628 L 2582,3628 Z"/>
        <path fill="none" stroke="rgb(153,153,153)" stroke-width="10" stroke-linejoin="round" d="M 2582,3628 C 2584,3619 2593,3612 2607,3608 2622,3603 2642,3601 2666,3602 2689,3603 2715,3606 2741,3612 2767,3618 2792,3626 2814,3636 2835,3645 2853,3656 2864,3666 2875,3677 2880,3687 2878,3695 2876,3704 2868,3711 2853,3715 2838,3720 2818,3722 2794,3721 2771,3720 2745,3717 2719,3711 2693,3705 2668,3697 2646,3687 2625,3678 2607,3667 2596,3657 2585,3646 2580,3636 2582,3628 Z"/>
       </g>
      </g>
      <g class="com.sun.star.drawing.CustomShape">
       <g id="id45">
        <rect class="BoundingBox" stroke="none" fill="none" x="1992" y="3527" width="307" height="136"/>
        <path fill="rgb(221,221,221)" stroke="none" d="M 1998,3634 C 1996,3625 2000,3615 2011,3604 2022,3593 2039,3582 2060,3572 2081,3562 2106,3553 2132,3546 2158,3539 2184,3534 2207,3533 2231,3531 2251,3532 2266,3536 2280,3540 2290,3547 2292,3556 2294,3564 2290,3574 2279,3585 2268,3596 2251,3607 2230,3617 2208,3627 2184,3636 2158,3643 2132,3650 2106,3655 2083,3656 2059,3658 2039,3657 2024,3653 2009,3649 2000,3642 1998,3634 L 1998,3634 Z"/>
        <path fill="none" stroke="rgb(153,153,153)" stroke-width="10" stroke-linejoin="round" d="M 1998,3634 C 1996,3625 2000,3615 2011,3604 2022,3593 2039,3582 2060,3572 2081,3562 2106,3553 2132,3546 2158,3539 2184,3534 2207,3533 2231,3531 2251,3532 2266,3536 2280,3540 2290,3547 2292,3556 2294,3564 2290,3574 2279,3585 2268,3596 2251,3607 2230,3617 2208,3627 2184,3636 2158,3643 2132,3650 2106,3655 2083,3656 2059,3658 2039,3657 2024,3653 2009,3649 2000,3642 1998,3634 Z"/>
       </g>
      </g>
      <g class="com.sun.star.drawing.CustomShape">
       <g id="id46">
        <rect class="BoundingBox" stroke="none" fill="none" x="1603" y="3589" width="307" height="136"/>
        <path fill="rgb(221,221,221)" stroke="none" d="M 1609,3696 C 1607,3687 1611,3677 1622,3666 1633,3655 1650,3644 1671,3634 1692,3624 1717,3615 1743,3608 1769,3601 1795,3596 1818,3595 1842,3593 1862,3594 1877,3598 1891,3602 1901,3609 1903,3618 1905,3626 1901,3636 1890,3647 1879,3658 1862,3669 1841,3679 1819,3689 1795,3698 1769,3705 1743,3712 1717,3717 1694,3718 1670,3720 1650,3719 1635,3715 1620,3711 1611,3704 1609,3696 L 1609,3696 Z"/>
        <path fill="none" stroke="rgb(153,153,153)" stroke-width="10" stroke-linejoin="round" d="M 1609,3696 C 1607,3687 1611,3677 1622,3666 1633,3655 1650,3644 1671,3634 1692,3624 1717,3615 1743,3608 1769,3601 1795,3596 1818,3595 1842,3593 1862,3594 1877,3598 1891,3602 1901,3609 1903,3618 1905,3626 1901,3636 1890,3647 1879,3658 1862,3669 1841,3679 1819,3689 1795,3698 1769,3705 1743,3712 1717,3717 1694,3718 1670,3720 1650,3719 1635,3715 1620,3711 1611,3704 1609,3696 Z"/>
       </g>
      </g>
      <g class="com.sun.star.drawing.CustomShape">
       <g id="id47">
        <rect class="BoundingBox" stroke="none" fill="none" x="1784" y="3561" width="309" height="132"/>
        <path fill="rgb(221,221,221)" stroke="none" d="M 1790,3593 C 1792,3584 1801,3577 1815,3573 1830,3568 1850,3566 1874,3567 1897,3568 1923,3571 1949,3577 1975,3583 2000,3591 2022,3601 2043,3610 2061,3621 2072,3631 2083,3642 2088,3652 2086,3660 2084,3669 2076,3676 2061,3680 2046,3685 2026,3687 2002,3686 1979,3685 1953,3682 1927,3676 1901,3670 1876,3662 1854,3652 1833,3643 1815,3632 1804,3622 1793,3611 1788,3601 1790,3593 L 1790,3593 Z"/>
        <path fill="none" stroke="rgb(153,153,153)" stroke-width="10" stroke-linejoin="round" d="M 1790,3593 C 1792,3584 1801,3577 1815,3573 1830,3568 1850,3566 1874,3567 1897,3568 1923,3571 1949,3577 1975,3583 2000,3591 2022,3601 2043,3610 2061,3621 2072,3631 2083,3642 2088,3652 2086,3660 2084,3669 2076,3676 2061,3680 2046,3685 2026,3687 2002,3686 1979,3685 1953,3682 1927,3676 1901,3670 1876,3662 1854,3652 1833,3643 1815,3632 1804,3622 1793,3611 1788,3601 1790,3593 Z"/>
       </g>
      </g>
      <g class="com.sun.star.drawing.CustomShape">
       <g id="id48">
        <rect class="BoundingBox" stroke="none" fill="none" x="1584" y="3496" width="309" height="132"/>
        <path fill="rgb(221,221,221)" stroke="none" d="M 1590,3528 C 1592,3519 1601,3512 1615,3508 1630,3503 1650,3501 1674,3502 1697,3503 1723,3506 1749,3512 1775,3518 1800,3526 1822,3536 1843,3545 1861,3556 1872,3566 1883,3577 1888,3587 1886,3595 1884,3604 1876,3611 1861,3615 1846,3620 1826,3622 1802,3621 1779,3620 1753,3617 1727,3611 1701,3605 1676,3597 1654,3587 1633,3578 1615,3567 1604,3557 1593,3546 1588,3536 1590,3528 L 1590,3528 Z"/>
        <path fill="none" stroke="rgb(153,153,153)" stroke-width="10" stroke-linejoin="round" d="M 1590,3528 C 1592,3519 1601,3512 1615,3508 1630,3503 1650,3501 1674,3502 1697,3503 1723,3506 1749,3512 1775,3518 1800,3526 1822,3536 1843,3545 1861,3556 1872,3566 1883,3577 1888,3587 1886,3595 1884,3604 1876,3611 1861,3615 1846,3620 1826,3622 1802,3621 1779,3620 1753,3617 1727,3611 1701,3605 1676,3597 1654,3587 1633,3578 1615,3567 1604,3557 1593,3546 1588,3536 1590,3528 Z"/>
       </g>
      </g>
      <g class="com.sun.star.drawing.CustomShape">
       <g id="id49">
        <rect class="BoundingBox" stroke="none" fill="none" x="1884" y="3661" width="309" height="132"/>
        <path fill="rgb(221,221,221)" stroke="none" d="M 1890,3693 C 1892,3684 1901,3677 1915,3673 1930,3668 1950,3666 1974,3667 1997,3668 2023,3671 2049,3677 2075,3683 2100,3691 2122,3701 2143,3710 2161,3721 2172,3731 2183,3742 2188,3752 2186,3760 2184,3769 2176,3776 2161,3780 2146,3785 2126,3787 2102,3786 2079,3785 2053,3782 2027,3776 2001,3770 1976,3762 1954,3752 1933,3743 1915,3732 1904,3722 1893,3711 1888,3701 1890,3693 L 1890,3693 Z"/>
        <path fill="none" stroke="rgb(153,153,153)" stroke-width="10" stroke-linejoin="round" d="M 1890,3693 C 1892,3684 1901,3677 1915,3673 1930,3668 1950,3666 1974,3667 1997,3668 2023,3671 2049,3677 2075,3683 2100,3691 2122,3701 2143,3710 2161,3721 2172,3731 2183,3742 2188,3752 2186,3760 2184,3769 2176,3776 2161,3780 2146,3785 2126,3787 2102,3786 2079,3785 2053,3782 2027,3776 2001,3770 1976,3762 1954,3752 1933,3743 1915,3732 1904,3722 1893,3711 1888,3701 1890,3693 Z"/>
       </g>
      </g>
      <g class="com.sun.star.drawing.CustomShape">
       <g id="id50">
        <rect class="BoundingBox" stroke="none" fill="none" x="1702" y="3662" width="309" height="130"/>
        <path fill="rgb(221,221,221)" stroke="none" d="M 1708,3760 C 1706,3751 1711,3741 1722,3731 1733,3720 1751,3710 1772,3700 1794,3691 1819,3683 1845,3677 1871,3671 1897,3668 1920,3667 1944,3666 1964,3668 1979,3673 1993,3678 2002,3685 2004,3693 2006,3702 2001,3712 1990,3722 1979,3733 1961,3743 1940,3753 1918,3762 1893,3770 1867,3776 1841,3782 1815,3785 1791,3786 1768,3787 1748,3785 1733,3780 1718,3775 1710,3768 1708,3760 L 1708,3760 Z"/>
        <path fill="none" stroke="rgb(153,153,153)" stroke-width="10" stroke-linejoin="round" d="M 1708,3760 C 1706,3751 1711,3741 1722,3731 1733,3720 1751,3710 1772,3700 1794,3691 1819,3683 1845,3677 1871,3671 1897,3668 1920,3667 1944,3666 1964,3668 1979,3673 1993,3678 2002,3685 2004,3693 2006,3702 2001,3712 1990,3722 1979,3733 1961,3743 1940,3753 1918,3762 1893,3770 1867,3776 1841,3782 1815,3785 1791,3786 1768,3787 1748,3785 1733,3780 1718,3775 1710,3768 1708,3760 Z"/>
       </g>
      </g>
      <g class="com.sun.star.drawing.CustomShape">
       <g id="id51">
        <rect class="BoundingBox" stroke="none" fill="none" x="1801" y="3496" width="309" height="132"/>
        <path fill="rgb(221,221,221)" stroke="none" d="M 1807,3528 C 1809,3519 1818,3512 1832,3508 1847,3503 1867,3501 1891,3502 1914,3503 1940,3506 1966,3512 1992,3518 2017,3526 2039,3536 2060,3545 2078,3556 2089,3566 2100,3577 2105,3587 2103,3595 2101,3604 2093,3611 2078,3615 2063,3620 2043,3622 2019,3621 1996,3620 1970,3617 1944,3611 1918,3605 1893,3597 1871,3587 1850,3578 1832,3567 1821,3557 1810,3546 1805,3536 1807,3528 L 1807,3528 Z"/>
        <path fill="none" stroke="rgb(153,153,153)" stroke-width="10" stroke-linejoin="round" d="M 1807,3528 C 1809,3519 1818,3512 1832,3508 1847,3503 1867,3501 1891,3502 1914,3503 1940,3506 1966,3512 1992,3518 2017,3526 2039,3536 2060,3545 2078,3556 2089,3566 2100,3577 2105,3587 2103,3595 2101,3604 2093,3611 2078,3615 2063,3620 2043,3622 2019,3621 1996,3620 1970,3617 1944,3611 1918,3605 1893,3597 1871,3587 1850,3578 1832,3567 1821,3557 1810,3546 1805,3536 1807,3528 Z"/>
       </g>
      </g>
      <g class="com.sun.star.drawing.CustomShape">
       <g id="id52">
        <rect class="BoundingBox" stroke="none" fill="none" x="3192" y="3527" width="307" height="136"/>
        <path fill="rgb(221,221,221)" stroke="none" d="M 3198,3634 C 3196,3625 3200,3615 3211,3604 3222,3593 3239,3582 3260,3572 3281,3562 3306,3553 3332,3546 3358,3539 3384,3534 3407,3533 3431,3531 3451,3532 3466,3536 3480,3540 3490,3547 3492,3556 3494,3564 3490,3574 3479,3585 3468,3596 3451,3607 3430,3617 3408,3627 3384,3636 3358,3643 3332,3650 3306,3655 3283,3656 3259,3658 3239,3657 3224,3653 3209,3649 3200,3642 3198,3634 L 3198,3634 Z"/>
        <path fill="none" stroke="rgb(153,153,153)" stroke-width="10" stroke-linejoin="round" d="M 3198,3634 C 3196,3625 3200,3615 3211,3604 3222,3593 3239,3582 3260,3572 3281,3562 3306,3553 3332,3546 3358,3539 3384,3534 3407,3533 3431,3531 3451,3532 3466,3536 3480,3540 3490,3547 3492,3556 3494,3564 3490,3574 3479,3585 3468,3596 3451,3607 3430,3617 3408,3627 3384,3636 3358,3643 3332,3650 3306,3655 3283,3656 3259,3658 3239,3657 3224,3653 3209,3649 3200,3642 3198,3634 Z"/>
       </g>
      </g>
      <g class="com.sun.star.drawing.CustomShape">
       <g id="id53">
        <rect class="BoundingBox" stroke="none" fill="none" x="2803" y="3589" width="307" height="136"/>
        <path fill="rgb(221,221,221)" stroke="none" d="M 2809,3696 C 2807,3687 2811,3677 2822,3666 2833,3655 2850,3644 2871,3634 2892,3624 2917,3615 2943,3608 2969,3601 2995,3596 3018,3595 3042,3593 3062,3594 3077,3598 3091,3602 3101,3609 3103,3618 3105,3626 3101,3636 3090,3647 3079,3658 3062,3669 3041,3679 3019,3689 2995,3698 2969,3705 2943,3712 2917,3717 2894,3718 2870,3720 2850,3719 2835,3715 2820,3711 2811,3704 2809,3696 L 2809,3696 Z"/>
        <path fill="none" stroke="rgb(153,153,153)" stroke-width="10" stroke-linejoin="round" d="M 2809,3696 C 2807,3687 2811,3677 2822,3666 2833,3655 2850,3644 2871,3634 2892,3624 2917,3615 2943,3608 2969,3601 2995,3596 3018,3595 3042,3593 3062,3594 3077,3598 3091,3602 3101,3609 3103,3618 3105,3626 3101,3636 3090,3647 3079,3658 3062,3669 3041,3679 3019,3689 2995,3698 2969,3705 2943,3712 2917,3717 2894,3718 2870,3720 2850,3719 2835,3715 2820,3711 2811,3704 2809,3696 Z"/>
       </g>
      </g>
      <g class="com.sun.star.drawing.CustomShape">
       <g id="id54">
        <rect class="BoundingBox" stroke="none" fill="none" x="2984" y="3561" width="309" height="132"/>
        <path fill="rgb(221,221,221)" stroke="none" d="M 2990,3593 C 2992,3584 3001,3577 3015,3573 3030,3568 3050,3566 3074,3567 3097,3568 3123,3571 3149,3577 3175,3583 3200,3591 3222,3601 3243,3610 3261,3621 3272,3631 3283,3642 3288,3652 3286,3660 3284,3669 3276,3676 3261,3680 3246,3685 3226,3687 3202,3686 3179,3685 3153,3682 3127,3676 3101,3670 3076,3662 3054,3652 3033,3643 3015,3632 3004,3622 2993,3611 2988,3601 2990,3593 L 2990,3593 Z"/>
        <path fill="none" stroke="rgb(153,153,153)" stroke-width="10" stroke-linejoin="round" d="M 2990,3593 C 2992,3584 3001,3577 3015,3573 3030,3568 3050,3566 3074,3567 3097,3568 3123,3571 3149,3577 3175,3583 3200,3591 3222,3601 3243,3610 3261,3621 3272,3631 3283,3642 3288,3652 3286,3660 3284,3669 3276,3676 3261,3680 3246,3685 3226,3687 3202,3686 3179,3685 3153,3682 3127,3676 3101,3670 3076,3662 3054,3652 3033,3643 3015,3632 3004,3622 2993,3611 2988,3601 2990,3593 Z"/>
       </g>
      </g>
      <g class="com.sun.star.drawing.CustomShape">
       <g id="id55">
        <rect class="BoundingBox" stroke="none" fill="none" x="2784" y="3496" width="309" height="132"/>
        <path fill="rgb(221,221,221)" stroke="none" d="M 2790,3528 C 2792,3519 2801,3512 2815,3508 2830,3503 2850,3501 2874,3502 2897,3503 2923,3506 2949,3512 2975,3518 3000,3526 3022,3536 3043,3545 3061,3556 3072,3566 3083,3577 3088,3587 3086,3595 3084,3604 3076,3611 3061,3615 3046,3620 3026,3622 3002,3621 2979,3620 2953,3617 2927,3611 2901,3605 2876,3597 2854,3587 2833,3578 2815,3567 2804,3557 2793,3546 2788,3536 2790,3528 L 2790,3528 Z"/>
        <path fill="none" stroke="rgb(153,153,153)" stroke-width="10" stroke-linejoin="round" d="M 2790,3528 C 2792,3519 2801,3512 2815,3508 2830,3503 2850,3501 2874,3502 2897,3503 2923,3506 2949,3512 2975,3518 3000,3526 3022,3536 3043,3545 3061,3556 3072,3566 3083,3577 3088,3587 3086,3595 3084,3604 3076,3611 3061,3615 3046,3620 3026,3622 3002,3621 2979,3620 2953,3617 2927,3611 2901,3605 2876,3597 2854,3587 2833,3578 2815,3567 2804,3557 2793,3546 2788,3536 2790,3528 Z"/>
       </g>
      </g>
      <g class="com.sun.star.drawing.CustomShape">
       <g id="id56">
        <rect class="BoundingBox" stroke="none" fill="none" x="3084" y="3661" width="309" height="132"/>
        <path fill="rgb(221,221,221)" stroke="none" d="M 3090,3693 C 3092,3684 3101,3677 3115,3673 3130,3668 3150,3666 3174,3667 3197,3668 3223,3671 3249,3677 3275,3683 3300,3691 3322,3701 3343,3710 3361,3721 3372,3731 3383,3742 3388,3752 3386,3760 3384,3769 3376,3776 3361,3780 3346,3785 3326,3787 3302,3786 3279,3785 3253,3782 3227,3776 3201,3770 3176,3762 3154,3752 3133,3743 3115,3732 3104,3722 3093,3711 3088,3701 3090,3693 L 3090,3693 Z"/>
        <path fill="none" stroke="rgb(153,153,153)" stroke-width="10" stroke-linejoin="round" d="M 3090,3693 C 3092,3684 3101,3677 3115,3673 3130,3668 3150,3666 3174,3667 3197,3668 3223,3671 3249,3677 3275,3683 3300,3691 3322,3701 3343,3710 3361,3721 3372,3731 3383,3742 3388,3752 3386,3760 3384,3769 3376,3776 3361,3780 3346,3785 3326,3787 3302,3786 3279,3785 3253,3782 3227,3776 3201,3770 3176,3762 3154,3752 3133,3743 3115,3732 3104,3722 3093,3711 3088,3701 3090,3693 Z"/>
       </g>
      </g>
      <g class="com.sun.star.drawing.CustomShape">
       <g id="id57">
        <rect class="BoundingBox" stroke="none" fill="none" x="2902" y="3662" width="309" height="130"/>
        <path fill="rgb(221,221,221)" stroke="none" d="M 2908,3760 C 2906,3751 2911,3741 2922,3731 2933,3720 2951,3710 2972,3700 2994,3691 3019,3683 3045,3677 3071,3671 3097,3668 3120,3667 3144,3666 3164,3668 3179,3673 3193,3678 3202,3685 3204,3693 3206,3702 3201,3712 3190,3722 3179,3733 3161,3743 3140,3753 3118,3762 3093,3770 3067,3776 3041,3782 3015,3785 2991,3786 2968,3787 2948,3785 2933,3780 2918,3775 2910,3768 2908,3760 L 2908,3760 Z"/>
        <path fill="none" stroke="rgb(153,153,153)" stroke-width="10" stroke-linejoin="round" d="M 2908,3760 C 2906,3751 2911,3741 2922,3731 2933,3720 2951,3710 2972,3700 2994,3691 3019,3683 3045,3677 3071,3671 3097,3668 3120,3667 3144,3666 3164,3668 3179,3673 3193,3678 3202,3685 3204,3693 3206,3702 3201,3712 3190,3722 3179,3733 3161,3743 3140,3753 3118,3762 3093,3770 3067,3776 3041,3782 3015,3785 2991,3786 2968,3787 2948,3785 2933,3780 2918,3775 2910,3768 2908,3760 Z"/>
       </g>
      </g>
      <g class="com.sun.star.drawing.CustomShape">
       <g id="id58">
        <rect class="BoundingBox" stroke="none" fill="none" x="3001" y="3496" width="309" height="132"/>
        <path fill="rgb(221,221,221)" stroke="none" d="M 3007,3528 C 3009,3519 3018,3512 3032,3508 3047,3503 3067,3501 3091,3502 3114,3503 3140,3506 3166,3512 3192,3518 3217,3526 3239,3536 3260,3545 3278,3556 3289,3566 3300,3577 3305,3587 3303,3595 3301,3604 3293,3611 3278,3615 3263,3620 3243,3622 3219,3621 3196,3620 3170,3617 3144,3611 3118,3605 3093,3597 3071,3587 3050,3578 3032,3567 3021,3557 3010,3546 3005,3536 3007,3528 L 3007,3528 Z"/>
        <path fill="none" stroke="rgb(153,153,153)" stroke-width="10" stroke-linejoin="round" d="M 3007,3528 C 3009,3519 3018,3512 3032,3508 3047,3503 3067,3501 3091,3502 3114,3503 3140,3506 3166,3512 3192,3518 3217,3526 3239,3536 3260,3545 3278,3556 3289,3566 3300,3577 3305,3587 3303,3595 3301,3604 3293,3611 3278,3615 3263,3620 3243,3622 3219,3621 3196,3620 3170,3617 3144,3611 3118,3605 3093,3597 3071,3587 3050,3578 3032,3567 3021,3557 3010,3546 3005,3536 3007,3528 Z"/>
       </g>
      </g>
      <g class="com.sun.star.drawing.CustomShape">
       <g id="id59">
        <rect class="BoundingBox" stroke="none" fill="none" x="2567" y="3497" width="307" height="136"/>
        <path fill="rgb(221,221,221)" stroke="none" d="M 2573,3604 C 2571,3595 2575,3585 2586,3574 2597,3563 2614,3552 2635,3542 2656,3532 2681,3523 2707,3516 2733,3509 2759,3504 2782,3503 2806,3501 2826,3502 2841,3506 2855,3510 2865,3517 2867,3526 2869,3534 2865,3544 2854,3555 2843,3566 2826,3577 2805,3587 2783,3597 2759,3606 2733,3613 2707,3620 2681,3625 2658,3626 2634,3628 2614,3627 2599,3623 2584,3619 2575,3612 2573,3604 L 2573,3604 Z"/>
        <path fill="none" stroke="rgb(153,153,153)" stroke-width="10" stroke-linejoin="round" d="M 2573,3604 C 2571,3595 2575,3585 2586,3574 2597,3563 2614,3552 2635,3542 2656,3532 2681,3523 2707,3516 2733,3509 2759,3504 2782,3503 2806,3501 2826,3502 2841,3506 2855,3510 2865,3517 2867,3526 2869,3534 2865,3544 2854,3555 2843,3566 2826,3577 2805,3587 2783,3597 2759,3606 2733,3613 2707,3620 2681,3625 2658,3626 2634,3628 2614,3627 2599,3623 2584,3619 2575,3612 2573,3604 Z"/>
       </g>
      </g>
      <g class="com.sun.star.drawing.CustomShape">
       <g id="id60">
        <rect class="BoundingBox" stroke="none" fill="none" x="2178" y="3559" width="307" height="136"/>
        <path fill="rgb(221,221,221)" stroke="none" d="M 2184,3666 C 2182,3657 2186,3647 2197,3636 2208,3625 2225,3614 2246,3604 2267,3594 2292,3585 2318,3578 2344,3571 2370,3566 2393,3565 2417,3563 2437,3564 2452,3568 2466,3572 2476,3579 2478,3588 2480,3596 2476,3606 2465,3617 2454,3628 2437,3639 2416,3649 2394,3659 2370,3668 2344,3675 2318,3682 2292,3687 2269,3688 2245,3690 2225,3689 2210,3685 2195,3681 2186,3674 2184,3666 L 2184,3666 Z"/>
        <path fill="none" stroke="rgb(153,153,153)" stroke-width="10" stroke-linejoin="round" d="M 2184,3666 C 2182,3657 2186,3647 2197,3636 2208,3625 2225,3614 2246,3604 2267,3594 2292,3585 2318,3578 2344,3571 2370,3566 2393,3565 2417,3563 2437,3564 2452,3568 2466,3572 2476,3579 2478,3588 2480,3596 2476,3606 2465,3617 2454,3628 2437,3639 2416,3649 2394,3659 2370,3668 2344,3675 2318,3682 2292,3687 2269,3688 2245,3690 2225,3689 2210,3685 2195,3681 2186,3674 2184,3666 Z"/>
       </g>
      </g>
      <g class="com.sun.star.drawing.CustomShape">
       <g id="id61">
        <rect class="BoundingBox" stroke="none" fill="none" x="2359" y="3531" width="309" height="132"/>
        <path fill="rgb(221,221,221)" stroke="none" d="M 2365,3563 C 2367,3554 2376,3547 2390,3543 2405,3538 2425,3536 2449,3537 2472,3538 2498,3541 2524,3547 2550,3553 2575,3561 2597,3571 2618,3580 2636,3591 2647,3601 2658,3612 2663,3622 2661,3630 2659,3639 2651,3646 2636,3650 2621,3655 2601,3657 2577,3656 2554,3655 2528,3652 2502,3646 2476,3640 2451,3632 2429,3622 2408,3613 2390,3602 2379,3592 2368,3581 2363,3571 2365,3563 L 2365,3563 Z"/>
        <path fill="none" stroke="rgb(153,153,153)" stroke-width="10" stroke-linejoin="round" d="M 2365,3563 C 2367,3554 2376,3547 2390,3543 2405,3538 2425,3536 2449,3537 2472,3538 2498,3541 2524,3547 2550,3553 2575,3561 2597,3571 2618,3580 2636,3591 2647,3601 2658,3612 2663,3622 2661,3630 2659,3639 2651,3646 2636,3650 2621,3655 2601,3657 2577,3656 2554,3655 2528,3652 2502,3646 2476,3640 2451,3632 2429,3622 2408,3613 2390,3602 2379,3592 2368,3581 2363,3571 2365,3563 Z"/>
       </g>
      </g>
      <g class="com.sun.star.drawing.CustomShape">
       <g id="id62">
        <rect class="BoundingBox" stroke="none" fill="none" x="2159" y="3466" width="309" height="132"/>
        <path fill="rgb(221,221,221)" stroke="none" d="M 2165,3498 C 2167,3489 2176,3482 2190,3478 2205,3473 2225,3471 2249,3472 2272,3473 2298,3476 2324,3482 2350,3488 2375,3496 2397,3506 2418,3515 2436,3526 2447,3536 2458,3547 2463,3557 2461,3565 2459,3574 2451,3581 2436,3585 2421,3590 2401,3592 2377,3591 2354,3590 2328,3587 2302,3581 2276,3575 2251,3567 2229,3557 2208,3548 2190,3537 2179,3527 2168,3516 2163,3506 2165,3498 L 2165,3498 Z"/>
        <path fill="none" stroke="rgb(153,153,153)" stroke-width="10" stroke-linejoin="round" d="M 2165,3498 C 2167,3489 2176,3482 2190,3478 2205,3473 2225,3471 2249,3472 2272,3473 2298,3476 2324,3482 2350,3488 2375,3496 2397,3506 2418,3515 2436,3526 2447,3536 2458,3547 2463,3557 2461,3565 2459,3574 2451,3581 2436,3585 2421,3590 2401,3592 2377,3591 2354,3590 2328,3587 2302,3581 2276,3575 2251,3567 2229,3557 2208,3548 2190,3537 2179,3527 2168,3516 2163,3506 2165,3498 Z"/>
       </g>
      </g>
      <g class="com.sun.star.drawing.CustomShape">
       <g id="id63">
        <rect class="BoundingBox" stroke="none" fill="none" x="2459" y="3631" width="309" height="132"/>
        <path fill="rgb(221,221,221)" stroke="none" d="M 2465,3663 C 2467,3654 2476,3647 2490,3643 2505,3638 2525,3636 2549,3637 2572,3638 2598,3641 2624,3647 2650,3653 2675,3661 2697,3671 2718,3680 2736,3691 2747,3701 2758,3712 2763,3722 2761,3730 2759,3739 2751,3746 2736,3750 2721,3755 2701,3757 2677,3756 2654,3755 2628,3752 2602,3746 2576,3740 2551,3732 2529,3722 2508,3713 2490,3702 2479,3692 2468,3681 2463,3671 2465,3663 L 2465,3663 Z"/>
        <path fill="none" stroke="rgb(153,153,153)" stroke-width="10" stroke-linejoin="round" d="M 2465,3663 C 2467,3654 2476,3647 2490,3643 2505,3638 2525,3636 2549,3637 2572,3638 2598,3641 2624,3647 2650,3653 2675,3661 2697,3671 2718,3680 2736,3691 2747,3701 2758,3712 2763,3722 2761,3730 2759,3739 2751,3746 2736,3750 2721,3755 2701,3757 2677,3756 2654,3755 2628,3752 2602,3746 2576,3740 2551,3732 2529,3722 2508,3713 2490,3702 2479,3692 2468,3681 2463,3671 2465,3663 Z"/>
       </g>
      </g>
      <g class="com.sun.star.drawing.CustomShape">
       <g id="id64">
        <rect class="BoundingBox" stroke="none" fill="none" x="2685" y="3533" width="309" height="130"/>
        <path fill="rgb(221,221,221)" stroke="none" d="M 2691,3631 C 2689,3622 2694,3612 2705,3602 2716,3591 2734,3581 2755,3571 2777,3562 2802,3554 2828,3548 2854,3542 2880,3539 2903,3538 2927,3537 2947,3539 2962,3544 2976,3549 2985,3556 2987,3564 2989,3573 2984,3583 2973,3593 2962,3604 2944,3614 2923,3624 2901,3633 2876,3641 2850,3647 2824,3653 2798,3656 2774,3657 2751,3658 2731,3656 2716,3651 2701,3646 2693,3639 2691,3631 L 2691,3631 Z"/>
        <path fill="none" stroke="rgb(153,153,153)" stroke-width="10" stroke-linejoin="round" d="M 2691,3631 C 2689,3622 2694,3612 2705,3602 2716,3591 2734,3581 2755,3571 2777,3562 2802,3554 2828,3548 2854,3542 2880,3539 2903,3538 2927,3537 2947,3539 2962,3544 2976,3549 2985,3556 2987,3564 2989,3573 2984,3583 2973,3593 2962,3604 2944,3614 2923,3624 2901,3633 2876,3641 2850,3647 2824,3653 2798,3656 2774,3657 2751,3658 2731,3656 2716,3651 2701,3646 2693,3639 2691,3631 Z"/>
       </g>
      </g>
      <g class="com.sun.star.drawing.CustomShape">
       <g id="id65">
        <rect class="BoundingBox" stroke="none" fill="none" x="2376" y="3466" width="309" height="132"/>
        <path fill="rgb(221,221,221)" stroke="none" d="M 2382,3498 C 2384,3489 2393,3482 2407,3478 2422,3473 2442,3471 2466,3472 2489,3473 2515,3476 2541,3482 2567,3488 2592,3496 2614,3506 2635,3515 2653,3526 2664,3536 2675,3547 2680,3557 2678,3565 2676,3574 2668,3581 2653,3585 2638,3590 2618,3592 2594,3591 2571,3590 2545,3587 2519,3581 2493,3575 2468,3567 2446,3557 2425,3548 2407,3537 2396,3527 2385,3516 2380,3506 2382,3498 L 2382,3498 Z"/>
        <path fill="none" stroke="rgb(153,153,153)" stroke-width="10" stroke-linejoin="round" d="M 2382,3498 C 2384,3489 2393,3482 2407,3478 2422,3473 2442,3471 2466,3472 2489,3473 2515,3476 2541,3482 2567,3488 2592,3496 2614,3506 2635,3515 2653,3526 2664,3536 2675,3547 2680,3557 2678,3565 2676,3574 2668,3581 2653,3585 2638,3590 2618,3592 2594,3591 2571,3590 2545,3587 2519,3581 2493,3575 2468,3567 2446,3557 2425,3548 2407,3537 2396,3527 2385,3516 2380,3506 2382,3498 Z"/>
       </g>
      </g>
     </g>
    </g>
   </g>
  </g>
 </g>
</svg>