<?xml version="1.0" encoding="UTF-8"?>
<!DOCTYPE svg PUBLIC "-//W3C//DTD SVG 1.1//EN" "http://www.w3.org/Graphics/SVG/1.1/DTD/svg11.dtd">
<svg version="1.2" width="50mm" height="50mm" viewBox="0 0 5000 5000" preserveAspectRatio="xMidYMid" fill-rule="evenodd" stroke-width="28.222" stroke-linejoin="round" xmlns="http://www.w3.org/2000/svg" xmlns:ooo="http://xml.openoffice.org/svg/export" xmlns:xlink="http://www.w3.org/1999/xlink" xmlns:presentation="http://sun.com/xmlns/staroffice/presentation" xmlns:smil="http://www.w3.org/2001/SMIL20/" xmlns:anim="urn:oasis:names:tc:opendocument:xmlns:animation:1.0" xml:space="preserve">
 <defs class="ClipPathGroup">
  <clipPath id="presentation_clip_path" clipPathUnits="userSpaceOnUse">
   <rect x="0" y="0" width="5000" height="5000"/>
  </clipPath>
  <clipPath id="presentation_clip_path_shrink" clipPathUnits="userSpaceOnUse">
   <rect x="5" y="5" width="4990" height="4990"/>
  </clipPath>
 </defs>
 <defs class="TextShapeIndex">
  <g ooo:slide="id1" ooo:id-list="id3 id4 id5 id6 id7 id8 id9 id10 id11 id12 id13 id14 id15 id16 id17 id18"/>
 </defs>
 <defs class="EmbeddedBulletChars">
  <g id="bullet-char-template-57356" transform="scale(0.00048828125,-0.00048828125)">
   <path d="M 580,1141 L 1163,571 580,0 -4,571 580,1141 Z"/>
  </g>
  <g id="bullet-char-template-57354" transform="scale(0.00048828125,-0.00048828125)">
   <path d="M 8,1128 L 1137,1128 1137,0 8,0 8,1128 Z"/>
  </g>
  <g id="bullet-char-template-10146" transform="scale(0.00048828125,-0.00048828125)">
   <path d="M 174,0 L 602,739 174,1481 1456,739 174,0 Z M 1358,739 L 309,1346 659,739 1358,739 Z"/>
  </g>
  <g id="bullet-char-template-10132" transform="scale(0.00048828125,-0.00048828125)">
   <path d="M 2015,739 L 1276,0 717,0 1260,543 174,543 174,936 1260,936 717,1481 1274,1481 2015,739 Z"/>
  </g>
  <g id="bullet-char-template-10007" transform="scale(0.00048828125,-0.00048828125)">
   <path d="M 0,-2 C -7,14 -16,27 -25,37 L 356,567 C 262,823 215,952 215,954 215,979 228,992 255,992 264,992 276,990 289,987 310,991 331,999 354,1012 L 381,999 492,748 772,1049 836,1024 860,1049 C 881,1039 901,1025 922,1006 886,937 835,863 770,784 769,783 710,716 594,584 L 774,223 C 774,196 753,168 711,139 L 727,119 C 717,90 699,76 672,76 641,76 570,178 457,381 L 164,-76 C 142,-110 111,-127 72,-127 30,-127 9,-110 8,-76 1,-67 -2,-52 -2,-32 -2,-23 -1,-13 0,-2 Z"/>
  </g>
  <g id="bullet-char-template-10004" transform="scale(0.00048828125,-0.00048828125)">
   <path d="M 285,-33 C 182,-33 111,30 74,156 52,228 41,333 41,471 41,549 55,616 82,672 116,743 169,778 240,778 293,778 328,747 346,684 L 369,508 C 377,444 397,411 428,410 L 1163,1116 C 1174,1127 1196,1133 1229,1133 1271,1133 1292,1118 1292,1087 L 1292,965 C 1292,929 1282,901 1262,881 L 442,47 C 390,-6 338,-33 285,-33 Z"/>
  </g>
  <g id="bullet-char-template-9679" transform="scale(0.00048828125,-0.00048828125)">
   <path d="M 813,0 C 632,0 489,54 383,161 276,268 223,411 223,592 223,773 276,916 383,1023 489,1130 632,1184 813,1184 992,1184 1136,1130 1245,1023 1353,916 1407,772 1407,592 1407,412 1353,268 1245,161 1136,54 992,0 813,0 Z"/>
  </g>
  <g id="bullet-char-template-8226" transform="scale(0.00048828125,-0.00048828125)">
   <path d="M 346,457 C 273,457 209,483 155,535 101,586 74,649 74,723 74,796 101,859 155,911 209,963 273,989 346,989 419,989 480,963 531,910 582,859 608,796 608,723 608,648 583,586 532,535 482,483 420,457 346,457 Z"/>
  </g>
  <g id="bullet-char-template-8211" transform="scale(0.00048828125,-0.00048828125)">
   <path d="M -4,459 L 1135,459 1135,606 -4,606 -4,459 Z"/>
  </g>
  <g id="bullet-char-template-61548" transform="scale(0.00048828125,-0.00048828125)">
   <path d="M 173,740 C 173,903 231,1043 346,1159 462,1274 601,1332 765,1332 928,1332 1067,1274 1183,1159 1299,1043 1357,903 1357,740 1357,577 1299,437 1183,322 1067,206 928,148 765,148 601,148 462,206 346,322 231,437 173,577 173,740 Z"/>
  </g>
 </defs>
 <g>
  <g id="id2" class="Master_Slide">
   <g id="bg-id2" class="Background"/>
   <g id="bo-id2" class="BackgroundObjects"/>
  </g>
 </g>
 <g class="SlideGroup">
  <g>
   <g id="container-id1">
    <g id="id1" class="Slide" clip-path="url(#presentation_clip_path)">
     <g class="Page">
      <g class="com.sun.star.drawing.CustomShape">
       <g id="id3">
        <rect class="BoundingBox" stroke="none" fill="none" x="1055" y="3670" width="1175" height="553"/>
        <path fill="rgb(255,151,47)" stroke="none" d="M 1642,3696 C 1740,3696 1837,3708 1922,3730 2008,3752 2078,3783 2128,3821 2177,3859 2203,3903 2203,3946 2203,3990 2177,4034 2128,4072 2078,4110 2008,4141 1922,4163 1837,4185 1740,4197 1641,4197 1543,4197 1446,4185 1361,4163 1275,4141 1205,4110 1155,4072 1106,4034 1080,3990 1080,3946 1080,3903 1106,3859 1155,3821 1205,3783 1275,3752 1361,3730 1446,3708 1543,3696 1641,3696 L 1642,3696 Z"/>
        <path fill="none" stroke="rgb(234,117,0)" stroke-width="50" stroke-linejoin="round" d="M 1642,3696 C 1740,3696 1837,3708 1922,3730 2008,3752 2078,3783 2128,3821 2177,3859 2203,3903 2203,3946 2203,3990 2177,4034 2128,4072 2078,4110 2008,4141 1922,4163 1837,4185 1740,4197 1641,4197 1543,4197 1446,4185 1361,4163 1275,4141 1205,4110 1155,4072 1106,4034 1080,3990 1080,3946 1080,3903 1106,3859 1155,3821 1205,3783 1275,3752 1361,3730 1446,3708 1543,3696 1641,3696 L 1642,3696 Z"/>
       </g>
      </g>
      <g class="com.sun.star.drawing.CustomShape">
       <g id="id4">
        <rect class="BoundingBox" stroke="none" fill="none" x="2805" y="2097" width="857" height="749"/>
        <path fill="rgb(255,151,47)" stroke="none" d="M 3397,2702 C 3333,2747 3262,2782 3191,2801 3121,2821 3054,2825 2997,2813 2940,2801 2894,2773 2866,2732 2837,2692 2825,2640 2833,2582 2840,2524 2866,2462 2907,2402 2949,2342 3004,2286 3069,2240 3133,2195 3204,2160 3275,2141 3345,2121 3412,2117 3469,2129 3526,2141 3572,2169 3600,2210 3629,2250 3641,2302 3633,2360 3626,2418 3600,2480 3559,2540 3517,2600 3462,2656 3397,2702 L 3397,2702 Z"/>
        <path fill="none" stroke="rgb(234,117,0)" stroke-width="50" stroke-linejoin="round" d="M 3397,2702 C 3333,2747 3262,2782 3191,2801 3121,2821 3054,2825 2997,2813 2940,2801 2894,2773 2866,2732 2837,2692 2825,2640 2833,2582 2840,2524 2866,2462 2907,2402 2949,2342 3004,2286 3069,2240 3133,2195 3204,2160 3275,2141 3345,2121 3412,2117 3469,2129 3526,2141 3572,2169 3600,2210 3629,2250 3641,2302 3633,2360 3626,2418 3600,2480 3559,2540 3517,2600 3462,2656 3397,2702 L 3397,2702 Z"/>
       </g>
      </g>
      <g class="com.sun.star.drawing.CustomShape">
       <g id="id5">
        <rect class="BoundingBox" stroke="none" fill="none" x="3377" y="1971" width="552" height="553"/>
        <path fill="rgb(221,221,221)" stroke="none" d="M 3903,2248 C 3903,2291 3891,2335 3869,2373 3847,2411 3816,2442 3778,2464 3740,2486 3696,2498 3653,2498 3609,2498 3565,2486 3527,2464 3489,2442 3458,2411 3436,2373 3414,2335 3402,2291 3402,2248 3402,2204 3414,2160 3436,2122 3458,2084 3489,2053 3527,2031 3565,2009 3609,1997 3653,1997 3696,1997 3740,2009 3778,2031 3816,2053 3847,2084 3869,2122 3891,2160 3903,2204 3903,2247 L 3903,2248 Z"/>
        <path fill="none" stroke="rgb(153,153,153)" stroke-width="50" stroke-linejoin="round" d="M 3903,2248 C 3903,2291 3891,2335 3869,2373 3847,2411 3816,2442 3778,2464 3740,2486 3696,2498 3653,2498 3609,2498 3565,2486 3527,2464 3489,2442 3458,2411 3436,2373 3414,2335 3402,2291 3402,2248 3402,2204 3414,2160 3436,2122 3458,2084 3489,2053 3527,2031 3565,2009 3609,1997 3653,1997 3696,1997 3740,2009 3778,2031 3816,2053 3847,2084 3869,2122 3891,2160 3903,2204 3903,2247 L 3903,2248 Z"/>
       </g>
      </g>
      <g class="com.sun.star.drawing.CustomShape">
       <g id="id6">
        <rect class="BoundingBox" stroke="none" fill="none" x="2842" y="2437" width="1004" height="1004"/>
        <path fill="rgb(255,151,47)" stroke="none" d="M 3606,2676 C 3675,2746 3732,2826 3769,2910 3806,2993 3823,3076 3818,3151 3813,3226 3786,3289 3740,3335 3694,3381 3631,3408 3556,3413 3481,3418 3398,3401 3315,3364 3231,3327 3151,3270 3081,3201 3011,3131 2955,3050 2918,2967 2880,2884 2863,2800 2868,2726 2873,2651 2900,2587 2946,2541 2992,2495 3056,2468 3131,2463 3205,2458 3289,2475 3372,2513 3455,2550 3536,2606 3606,2676 L 3606,2676 Z"/>
        <path fill="none" stroke="rgb(234,117,0)" stroke-width="50" stroke-linejoin="round" d="M 3606,2676 C 3675,2746 3732,2826 3769,2910 3806,2993 3823,3076 3818,3151 3813,3226 3786,3289 3740,3335 3694,3381 3631,3408 3556,3413 3481,3418 3398,3401 3315,3364 3231,3327 3151,3270 3081,3201 3011,3131 2955,3050 2918,2967 2880,2884 2863,2800 2868,2726 2873,2651 2900,2587 2946,2541 2992,2495 3056,2468 3131,2463 3205,2458 3289,2475 3372,2513 3455,2550 3536,2606 3606,2676 Z"/>
       </g>
      </g>
      <g class="com.sun.star.drawing.CustomShape">
       <g id="id7">
        <rect class="BoundingBox" stroke="none" fill="none" x="1423" y="2238" width="1306" height="1088"/>
        <path fill="rgb(255,151,47)" stroke="none" d="M 2702,3296 C 2390,3219 2076,3084 2063,2810 2050,2536 2349,2372 2652,2264 1977,2297 1435,2556 1449,2840 1462,3123 2027,3328 2702,3296 L 2702,3296 Z"/>
        <path fill="none" stroke="rgb(234,117,0)" stroke-width="50" stroke-linejoin="round" d="M 2702,3296 C 2390,3219 2076,3084 2063,2810 2050,2536 2349,2372 2652,2264 1977,2297 1435,2556 1449,2840 1462,3123 2027,3328 2702,3296 Z"/>
       </g>
      </g>
      <g class="com.sun.star.drawing.ClosedBezierShape">
       <g id="id8">
        <rect class="BoundingBox" stroke="none" fill="none" x="7299" y="7499" width="1654" height="1703"/>
        <path fill="rgb(255,255,255)" stroke="none" d="M 7770,8695 C 7785,8847 7860,8980 7939,9103 8007,9208 8159,9215 8268,9183 8393,9146 8513,9051 8556,8924 8589,8827 8425,8599 8536,8616 8706,8642 8801,8550 8874,8457 8940,8373 8997,8252 8895,8139 8794,8030 8674,8006 8556,7959 8475,7928 8302,8074 8348,7860 8370,7752 8433,7560 8217,7562 8101,7563 7991,7466 7880,7513 7756,7565 7738,7719 7721,7841 7705,7952 7894,8082 7810,8159 7715,8245 7527,8077 7422,8209 7351,8298 7229,8468 7352,8557 7462,8634 7555,8780 7711,8766 L 7751,8695 7770,8695 Z"/>
        <path fill="none" stroke="rgb(255,245,206)" d="M 7770,8695 C 7785,8847 7860,8980 7939,9103 8007,9208 8159,9215 8268,9183 8393,9146 8513,9051 8556,8924 8589,8827 8425,8599 8536,8616 8706,8642 8801,8550 8874,8457 8940,8373 8997,8252 8895,8139 8794,8030 8674,8006 8556,7959 8475,7928 8302,8074 8348,7860 8370,7752 8433,7560 8217,7562 8101,7563 7991,7466 7880,7513 7756,7565 7738,7719 7721,7841 7705,7952 7894,8082 7810,8159 7715,8245 7527,8077 7422,8209 7351,8298 7229,8468 7352,8557 7462,8634 7555,8780 7711,8766 L 7751,8695 7770,8695 Z"/>
       </g>
      </g>
      <g class="com.sun.star.drawing.ClosedBezierShape">
       <g id="id9">
        <rect class="BoundingBox" stroke="none" fill="none" x="9599" y="8199" width="1444" height="1588"/>
        <path fill="rgb(255,255,255)" stroke="none" d="M 9806,9002 C 9707,9124 9663,9276 9632,9426 9604,9552 9710,9669 9814,9725 9933,9790 10091,9809 10216,9747 10310,9699 10358,9412 10427,9507 10533,9650 10670,9652 10792,9638 10901,9624 11033,9578 11041,9419 11046,9265 10976,9160 10923,9039 10887,8957 10653,8935 10843,8812 10940,8750 11127,8655 10967,8499 10880,8414 10872,8261 10756,8215 10626,8161 10499,8261 10398,8339 10305,8408 10348,8642 10230,8637 10096,8631 10082,8370 9909,8389 9790,8403 9576,8438 9602,8593 9625,8730 9586,8906 9711,9010 L 9792,8987 9806,9002 Z"/>
        <path fill="none" stroke="rgb(255,245,206)" d="M 9806,9002 C 9707,9124 9663,9276 9632,9426 9604,9552 9710,9669 9814,9725 9933,9790 10091,9809 10216,9747 10310,9699 10358,9412 10427,9507 10533,9650 10670,9652 10792,9638 10901,9624 11033,9578 11041,9419 11046,9265 10976,9160 10923,9039 10887,8957 10653,8935 10843,8812 10940,8750 11127,8655 10967,8499 10880,8414 10872,8261 10756,8215 10626,8161 10499,8261 10398,8339 10305,8408 10348,8642 10230,8637 10096,8631 10082,8370 9909,8389 9790,8403 9576,8438 9602,8593 9625,8730 9586,8906 9711,9010 L 9792,8987 9806,9002 Z"/>
       </g>
      </g>
      <g class="com.sun.star.drawing.ClosedBezierShape">
       <g id="id10">
        <rect class="BoundingBox" stroke="none" fill="none" x="8699" y="7195" width="1323" height="1307"/>
        <path fill="rgb(255,255,255)" stroke="none" d="M 9153,7728 C 9019,7604 9134,7415 9244,7310 9336,7222 9444,7181 9553,7201 9671,7222 9787,7343 9762,7483 9743,7585 9597,7679 9653,7764 9718,7864 9894,7838 9962,7946 10025,8046 10036,8177 9998,8282 9963,8384 9892,8499 9753,8500 9652,8501 9553,8491 9462,8428 9362,8359 9233,8424 9117,8418 8997,8412 8869,8408 8771,8318 8638,8196 8715,7996 8808,7891 8884,7806 8989,7759 9098,7746 L 9181,7746 9153,7728 Z"/>
        <path fill="none" stroke="rgb(255,245,206)" d="M 9153,7728 C 9019,7604 9134,7415 9244,7310 9336,7222 9444,7181 9553,7201 9671,7222 9787,7343 9762,7483 9743,7585 9597,7679 9653,7764 9718,7864 9894,7838 9962,7946 10025,8046 10036,8177 9998,8282 9963,8384 9892,8499 9753,8500 9652,8501 9553,8491 9462,8428 9362,8359 9233,8424 9117,8418 8997,8412 8869,8408 8771,8318 8638,8196 8715,7996 8808,7891 8884,7806 8989,7759 9098,7746 L 9181,7746 9153,7728 Z"/>
       </g>
      </g>
      <g class="com.sun.star.drawing.ClosedBezierShape">
       <g id="id11">
        <rect class="BoundingBox" stroke="none" fill="none" x="8226" y="8465" width="1476" height="1337"/>
        <path fill="rgb(255,255,255)" stroke="none" d="M 8958,8704 C 8955,8510 9184,8460 9345,8467 9480,8473 9590,8525 9656,8623 9726,8729 9718,8907 9592,8990 9500,9051 9321,9008 9297,9112 9270,9236 9417,9351 9385,9483 9354,9603 9262,9707 9154,9756 9051,9803 8910,9834 8807,9729 8732,9652 8668,9568 8650,9453 8630,9325 8484,9276 8404,9182 8320,9086 8230,8985 8227,8844 8223,8653 8432,8565 8581,8560 8702,8555 8815,8601 8905,8675 L 8965,8738 8958,8704 Z"/>
        <path fill="none" stroke="rgb(255,245,206)" d="M 8958,8704 C 8955,8510 9184,8460 9345,8467 9480,8473 9590,8525 9656,8623 9726,8729 9718,8907 9592,8990 9500,9051 9321,9008 9297,9112 9270,9236 9417,9351 9385,9483 9354,9603 9262,9707 9154,9756 9051,9803 8910,9834 8807,9729 8732,9652 8668,9568 8650,9453 8630,9325 8484,9276 8404,9182 8320,9086 8230,8985 8227,8844 8223,8653 8432,8565 8581,8560 8702,8555 8815,8601 8905,8675 L 8965,8738 8958,8704 Z"/>
       </g>
      </g>
      <g class="com.sun.star.drawing.ClosedBezierShape">
       <g id="id12">
        <rect class="BoundingBox" stroke="none" fill="none" x="6825" y="8561" width="1677" height="1141"/>
        <path fill="rgb(255,255,255)" stroke="none" d="M 7789,8761 C 7539,8712 7198,8382 6906,8695 6616,9010 7221,9168 7039,9379 6705,9766 7223,9651 7370,9687 7833,9802 7456,9136 7899,9423 8117,9564 8667,9241 8450,9071 8208,8880 8221,8397 7877,8761 L 7789,8805 7789,8761 Z"/>
        <path fill="none" stroke="rgb(255,245,206)" d="M 7789,8761 C 7539,8712 7198,8382 6906,8695 6616,9010 7221,9168 7039,9379 6705,9766 7223,9651 7370,9687 7833,9802 7456,9136 7899,9423 8117,9564 8667,9241 8450,9071 8208,8880 8221,8397 7877,8761 L 7789,8805 7789,8761 Z"/>
       </g>
      </g>
      <g class="com.sun.star.drawing.CustomShape">
       <g id="id13">
        <rect class="BoundingBox" stroke="none" fill="none" x="7082" y="9482" width="3938" height="2538"/>
        <path fill="rgb(255,56,56)" stroke="none" d="M 7100,9500 L 11001,9500 10025,12001 8075,12001 7100,9500 Z"/>
        <path fill="none" stroke="rgb(255,0,0)" stroke-width="35" stroke-linejoin="round" d="M 7100,9500 L 11001,9500 10025,12001 8075,12001 7100,9500 Z"/>
       </g>
      </g>
      <g class="com.sun.star.drawing.CustomShape">
       <g id="id14">
        <rect class="BoundingBox" stroke="none" fill="none" x="1375" y="2670" width="2384" height="1594"/>
        <path fill="rgb(255,151,47)" stroke="none" d="M 2567,2696 C 2772,2696 2973,2732 3150,2799 3327,2867 3474,2964 3577,3081 3679,3199 3733,3332 3733,3467 3733,3602 3679,3735 3577,3853 3474,3970 3327,4067 3150,4135 2973,4202 2772,4238 2567,4238 2362,4238 2161,4202 1984,4135 1807,4067 1660,3970 1557,3853 1455,3735 1401,3602 1401,3467 1401,3332 1455,3199 1557,3082 1660,2964 1807,2867 1984,2799 2161,2732 2362,2696 2567,2696 L 2567,2696 Z"/>
        <path fill="none" stroke="rgb(234,117,0)" stroke-width="50" stroke-linejoin="round" d="M 2567,2696 C 2772,2696 2973,2732 3150,2799 3327,2867 3474,2964 3577,3081 3679,3199 3733,3332 3733,3467 3733,3602 3679,3735 3577,3853 3474,3970 3327,4067 3150,4135 2973,4202 2772,4238 2567,4238 2362,4238 2161,4202 1984,4135 1807,4067 1660,3970 1557,3853 1455,3735 1401,3602 1401,3467 1401,3332 1455,3199 1557,3082 1660,2964 1807,2867 1984,2799 2161,2732 2362,2696 2567,2696 L 2567,2696 Z"/>
       </g>
      </g>
      <g class="com.sun.star.drawing.CustomShape">
       <g id="id15">
        <rect class="BoundingBox" stroke="none" fill="none" x="2805" y="2314" width="857" height="749"/>
        <path fill="rgb(255,151,47)" stroke="none" d="M 3397,2919 C 3333,2964 3262,2999 3191,3018 3121,3038 3054,3042 2997,3030 2940,3018 2894,2990 2866,2949 2837,2909 2825,2857 2833,2799 2840,2741 2866,2679 2907,2619 2949,2559 3004,2503 3069,2457 3133,2412 3204,2377 3275,2358 3345,2338 3412,2334 3469,2346 3526,2358 3572,2386 3600,2427 3629,2467 3641,2519 3633,2577 3626,2635 3600,2697 3559,2757 3517,2817 3462,2873 3397,2919 L 3397,2919 Z"/>
        <path fill="none" stroke="rgb(234,117,0)" stroke-width="50" stroke-linejoin="round" d="M 3397,2919 C 3333,2964 3262,2999 3191,3018 3121,3038 3054,3042 2997,3030 2940,3018 2894,2990 2866,2949 2837,2909 2825,2857 2833,2799 2840,2741 2866,2679 2907,2619 2949,2559 3004,2503 3069,2457 3133,2412 3204,2377 3275,2358 3345,2338 3412,2334 3469,2346 3526,2358 3572,2386 3600,2427 3629,2467 3641,2519 3633,2577 3626,2635 3600,2697 3559,2757 3517,2817 3462,2873 3397,2919 L 3397,2919 Z"/>
       </g>
      </g>
      <g class="com.sun.star.drawing.CustomShape">
       <g id="id16">
        <rect class="BoundingBox" stroke="none" fill="none" x="1421" y="2443" width="1306" height="1083"/>
        <path fill="rgb(255,151,47)" stroke="none" d="M 2700,3496 C 2388,3419 2074,3285 2061,3012 2048,2740 2347,2577 2651,2469 1975,2502 1433,2760 1447,3042 1460,3324 2025,3528 2700,3496 L 2700,3496 Z"/>
        <path fill="none" stroke="rgb(234,117,0)" stroke-width="50" stroke-linejoin="round" d="M 2700,3496 C 2388,3419 2074,3285 2061,3012 2048,2740 2347,2577 2651,2469 1975,2502 1433,2760 1447,3042 1460,3324 2025,3528 2700,3496 Z"/>
       </g>
      </g>
      <g class="com.sun.star.drawing.CustomShape">
       <g id="id17">
        <rect class="BoundingBox" stroke="none" fill="none" x="2842" y="2654" width="1004" height="1004"/>
        <path fill="rgb(255,151,47)" stroke="none" d="M 3606,2893 C 3675,2963 3732,3043 3769,3127 3806,3210 3823,3293 3818,3368 3813,3443 3786,3506 3740,3552 3694,3598 3631,3625 3556,3630 3481,3635 3398,3618 3315,3581 3231,3544 3151,3487 3081,3418 3011,3348 2955,3267 2918,3184 2880,3101 2863,3017 2868,2943 2873,2868 2900,2804 2946,2758 2992,2712 3056,2685 3131,2680 3205,2675 3289,2692 3372,2730 3455,2767 3536,2823 3606,2893 L 3606,2893 Z"/>
        <path fill="none" stroke="rgb(234,117,0)" stroke-width="50" stroke-linejoin="round" d="M 3606,2893 C 3675,2963 3732,3043 3769,3127 3806,3210 3823,3293 3818,3368 3813,3443 3786,3506 3740,3552 3694,3598 3631,3625 3556,3630 3481,3635 3398,3618 3315,3581 3231,3544 3151,3487 3081,3418 3011,3348 2955,3267 2918,3184 2880,3101 2863,3017 2868,2943 2873,2868 2900,2804 2946,2758 2992,2712 3056,2685 3131,2680 3205,2675 3289,2692 3372,2730 3455,2767 3536,2823 3606,2893 Z"/>
       </g>
      </g>
      <g class="com.sun.star.drawing.CustomShape">
       <g id="id18">
        <rect class="BoundingBox" stroke="none" fill="none" x="3477" y="2171" width="552" height="553"/>
        <path fill="rgb(221,221,221)" stroke="none" d="M 4003,2448 C 4003,2491 3991,2535 3969,2573 3947,2611 3916,2642 3878,2664 3840,2686 3796,2698 3752,2698 3709,2698 3665,2686 3627,2664 3589,2642 3558,2611 3536,2573 3514,2535 3502,2491 3502,2448 3502,2404 3514,2360 3536,2322 3558,2284 3589,2253 3627,2231 3665,2209 3709,2197 3752,2197 3796,2197 3840,2209 3878,2231 3916,2253 3947,2284 3969,2322 3991,2360 4003,2404 4003,2447 L 4003,2448 Z"/>
        <path fill="none" stroke="rgb(153,153,153)" stroke-width="50" stroke-linejoin="round" d="M 4003,2448 C 4003,2491 3991,2535 3969,2573 3947,2611 3916,2642 3878,2664 3840,2686 3796,2698 3752,2698 3709,2698 3665,2686 3627,2664 3589,2642 3558,2611 3536,2573 3514,2535 3502,2491 3502,2448 3502,2404 3514,2360 3536,2322 3558,2284 3589,2253 3627,2231 3665,2209 3709,2197 3752,2197 3796,2197 3840,2209 3878,2231 3916,2253 3947,2284 3969,2322 3991,2360 4003,2404 4003,2447 L 4003,2448 Z"/>
       </g>
      </g>
     </g>
    </g>
   </g>
  </g>
 </g>
</svg>