<?xml version="1.0" encoding="UTF-8"?>
<!DOCTYPE svg PUBLIC "-//W3C//DTD SVG 1.1//EN" "http://www.w3.org/Graphics/SVG/1.1/DTD/svg11.dtd">
<svg version="1.2" width="50mm" height="50mm" viewBox="0 0 5000 5000" preserveAspectRatio="xMidYMid" fill-rule="evenodd" stroke-width="28.222" stroke-linejoin="round" xmlns="http://www.w3.org/2000/svg" xmlns:ooo="http://xml.openoffice.org/svg/export" xmlns:xlink="http://www.w3.org/1999/xlink" xmlns:presentation="http://sun.com/xmlns/staroffice/presentation" xmlns:smil="http://www.w3.org/2001/SMIL20/" xmlns:anim="urn:oasis:names:tc:opendocument:xmlns:animation:1.0" xml:space="preserve">
 <defs class="ClipPathGroup">
  <clipPath id="presentation_clip_path" clipPathUnits="userSpaceOnUse">
   <rect x="0" y="0" width="5000" height="5000"/>
  </clipPath>
  <clipPath id="presentation_clip_path_shrink" clipPathUnits="userSpaceOnUse">
   <rect x="5" y="5" width="4990" height="4990"/>
  </clipPath>
 </defs>
 <defs class="TextShapeIndex">
  <g ooo:slide="id1" ooo:id-list="id3 id4 id5 id6 id7 id8 id9 id10 id11 id12 id13 id14 id15 id16 id17 id18 id19 id20 id21 id22 id23 id24 id25 id26 id27 id28 id29 id30 id31 id32 id33 id34 id35 id36 id37 id38 id39"/>
 </defs>
 <defs class="EmbeddedBulletChars">
  <g id="bullet-char-template-57356" transform="scale(0.00048828125,-0.00048828125)">
   <path d="M 580,1141 L 1163,571 580,0 -4,571 580,1141 Z"/>
  </g>
  <g id="bullet-char-template-57354" transform="scale(0.00048828125,-0.00048828125)">
   <path d="M 8,1128 L 1137,1128 1137,0 8,0 8,1128 Z"/>
  </g>
  <g id="bullet-char-template-10146" transform="scale(0.00048828125,-0.00048828125)">
   <path d="M 174,0 L 602,739 174,1481 1456,739 174,0 Z M 1358,739 L 309,1346 659,739 1358,739 Z"/>
  </g>
  <g id="bullet-char-template-10132" transform="scale(0.00048828125,-0.00048828125)">
   <path d="M 2015,739 L 1276,0 717,0 1260,543 174,543 174,936 1260,936 717,1481 1274,1481 2015,739 Z"/>
  </g>
  <g id="bullet-char-template-10007" transform="scale(0.00048828125,-0.00048828125)">
   <path d="M 0,-2 C -7,14 -16,27 -25,37 L 356,567 C 262,823 215,952 215,954 215,979 228,992 255,992 264,992 276,990 289,987 310,991 331,999 354,1012 L 381,999 492,748 772,1049 836,1024 860,1049 C 881,1039 901,1025 922,1006 886,937 835,863 770,784 769,783 710,716 594,584 L 774,223 C 774,196 753,168 711,139 L 727,119 C 717,90 699,76 672,76 641,76 570,178 457,381 L 164,-76 C 142,-110 111,-127 72,-127 30,-127 9,-110 8,-76 1,-67 -2,-52 -2,-32 -2,-23 -1,-13 0,-2 Z"/>
  </g>
  <g id="bullet-char-template-10004" transform="scale(0.00048828125,-0.00048828125)">
   <path d="M 285,-33 C 182,-33 111,30 74,156 52,228 41,333 41,471 41,549 55,616 82,672 116,743 169,778 240,778 293,778 328,747 346,684 L 369,508 C 377,444 397,411 428,410 L 1163,1116 C 1174,1127 1196,1133 1229,1133 1271,1133 1292,1118 1292,1087 L 1292,965 C 1292,929 1282,901 1262,881 L 442,47 C 390,-6 338,-33 285,-33 Z"/>
  </g>
  <g id="bullet-char-template-9679" transform="scale(0.00048828125,-0.00048828125)">
   <path d="M 813,0 C 632,0 489,54 383,161 276,268 223,411 223,592 223,773 276,916 383,1023 489,1130 632,1184 813,1184 992,1184 1136,1130 1245,1023 1353,916 1407,772 1407,592 1407,412 1353,268 1245,161 1136,54 992,0 813,0 Z"/>
  </g>
  <g id="bullet-char-template-8226" transform="scale(0.00048828125,-0.00048828125)">
   <path d="M 346,457 C 273,457 209,483 155,535 101,586 74,649 74,723 74,796 101,859 155,911 209,963 273,989 346,989 419,989 480,963 531,910 582,859 608,796 608,723 608,648 583,586 532,535 482,483 420,457 346,457 Z"/>
  </g>
  <g id="bullet-char-template-8211" transform="scale(0.00048828125,-0.00048828125)">
   <path d="M -4,459 L 1135,459 1135,606 -4,606 -4,459 Z"/>
  </g>
  <g id="bullet-char-template-61548" transform="scale(0.00048828125,-0.00048828125)">
   <path d="M 173,740 C 173,903 231,1043 346,1159 462,1274 601,1332 765,1332 928,1332 1067,1274 1183,1159 1299,1043 1357,903 1357,740 1357,577 1299,437 1183,322 1067,206 928,148 765,148 601,148 462,206 346,322 231,437 173,577 173,740 Z"/>
  </g>
 </defs>
 <g>
  <g id="id2" class="Master_Slide">
   <g id="bg-id2" class="Background"/>
   <g id="bo-id2" class="BackgroundObjects"/>
  </g>
 </g>
 <g class="SlideGroup">
  <g>
   <g id="container-id1">
    <g id="id1" class="Slide" clip-path="url(#presentation_clip_path)">
     <g class="Page">
      <g class="com.sun.star.drawing.ClosedBezierShape">
       <g id="id3">
        <rect class="BoundingBox" stroke="none" fill="none" x="7299" y="7499" width="1654" height="1703"/>
        <path fill="rgb(255,255,255)" stroke="none" d="M 7770,8695 C 7785,8847 7860,8980 7939,9103 8007,9208 8159,9215 8268,9183 8393,9146 8513,9051 8556,8924 8589,8827 8425,8599 8536,8616 8706,8642 8801,8550 8874,8457 8940,8373 8997,8252 8895,8139 8794,8030 8674,8006 8556,7959 8475,7928 8302,8074 8348,7860 8370,7752 8433,7560 8217,7562 8101,7563 7991,7466 7880,7513 7756,7565 7738,7719 7721,7841 7705,7952 7894,8082 7810,8159 7715,8245 7527,8077 7422,8209 7351,8298 7229,8468 7352,8557 7462,8634 7555,8780 7711,8766 L 7751,8695 7770,8695 Z"/>
        <path fill="none" stroke="rgb(255,245,206)" d="M 7770,8695 C 7785,8847 7860,8980 7939,9103 8007,9208 8159,9215 8268,9183 8393,9146 8513,9051 8556,8924 8589,8827 8425,8599 8536,8616 8706,8642 8801,8550 8874,8457 8940,8373 8997,8252 8895,8139 8794,8030 8674,8006 8556,7959 8475,7928 8302,8074 8348,7860 8370,7752 8433,7560 8217,7562 8101,7563 7991,7466 7880,7513 7756,7565 7738,7719 7721,7841 7705,7952 7894,8082 7810,8159 7715,8245 7527,8077 7422,8209 7351,8298 7229,8468 7352,8557 7462,8634 7555,8780 7711,8766 L 7751,8695 7770,8695 Z"/>
       </g>
      </g>
      <g class="com.sun.star.drawing.ClosedBezierShape">
       <g id="id4">
        <rect class="BoundingBox" stroke="none" fill="none" x="9599" y="8199" width="1444" height="1588"/>
        <path fill="rgb(255,255,255)" stroke="none" d="M 9806,9002 C 9707,9124 9663,9276 9632,9426 9604,9552 9710,9669 9814,9725 9933,9790 10091,9809 10216,9747 10310,9699 10358,9412 10427,9507 10533,9650 10670,9652 10792,9638 10901,9624 11033,9578 11041,9419 11046,9265 10976,9160 10923,9039 10887,8957 10653,8935 10843,8812 10940,8750 11127,8655 10967,8499 10880,8414 10872,8261 10756,8215 10626,8161 10499,8261 10398,8339 10305,8408 10348,8642 10230,8637 10096,8631 10082,8370 9909,8389 9790,8403 9576,8438 9602,8593 9625,8730 9586,8906 9711,9010 L 9792,8987 9806,9002 Z"/>
        <path fill="none" stroke="rgb(255,245,206)" d="M 9806,9002 C 9707,9124 9663,9276 9632,9426 9604,9552 9710,9669 9814,9725 9933,9790 10091,9809 10216,9747 10310,9699 10358,9412 10427,9507 10533,9650 10670,9652 10792,9638 10901,9624 11033,9578 11041,9419 11046,9265 10976,9160 10923,9039 10887,8957 10653,8935 10843,8812 10940,8750 11127,8655 10967,8499 10880,8414 10872,8261 10756,8215 10626,8161 10499,8261 10398,8339 10305,8408 10348,8642 10230,8637 10096,8631 10082,8370 9909,8389 9790,8403 9576,8438 9602,8593 9625,8730 9586,8906 9711,9010 L 9792,8987 9806,9002 Z"/>
       </g>
      </g>
      <g class="com.sun.star.drawing.ClosedBezierShape">
       <g id="id5">
        <rect class="BoundingBox" stroke="none" fill="none" x="8699" y="7195" width="1323" height="1307"/>
        <path fill="rgb(255,255,255)" stroke="none" d="M 9153,7728 C 9019,7604 9134,7415 9244,7310 9336,7222 9444,7181 9553,7201 9671,7222 9787,7343 9762,7483 9743,7585 9597,7679 9653,7764 9718,7864 9894,7838 9962,7946 10025,8046 10036,8177 9998,8282 9963,8384 9892,8499 9753,8500 9652,8501 9553,8491 9462,8428 9362,8359 9233,8424 9117,8418 8997,8412 8869,8408 8771,8318 8638,8196 8715,7996 8808,7891 8884,7806 8989,7759 9098,7746 L 9181,7746 9153,7728 Z"/>
        <path fill="none" stroke="rgb(255,245,206)" d="M 9153,7728 C 9019,7604 9134,7415 9244,7310 9336,7222 9444,7181 9553,7201 9671,7222 9787,7343 9762,7483 9743,7585 9597,7679 9653,7764 9718,7864 9894,7838 9962,7946 10025,8046 10036,8177 9998,8282 9963,8384 9892,8499 9753,8500 9652,8501 9553,8491 9462,8428 9362,8359 9233,8424 9117,8418 8997,8412 8869,8408 8771,8318 8638,8196 8715,7996 8808,7891 8884,7806 8989,7759 9098,7746 L 9181,7746 9153,7728 Z"/>
       </g>
      </g>
      <g class="com.sun.star.drawing.ClosedBezierShape">
       <g id="id6">
        <rect class="BoundingBox" stroke="none" fill="none" x="8226" y="8465" width="1476" height="1337"/>
        <path fill="rgb(255,255,255)" stroke="none" d="M 8958,8704 C 8955,8510 9184,8460 9345,8467 9480,8473 9590,8525 9656,8623 9726,8729 9718,8907 9592,8990 9500,9051 9321,9008 9297,9112 9270,9236 9417,9351 9385,9483 9354,9603 9262,9707 9154,9756 9051,9803 8910,9834 8807,9729 8732,9652 8668,9568 8650,9453 8630,9325 8484,9276 8404,9182 8320,9086 8230,8985 8227,8844 8223,8653 8432,8565 8581,8560 8702,8555 8815,8601 8905,8675 L 8965,8738 8958,8704 Z"/>
        <path fill="none" stroke="rgb(255,245,206)" d="M 8958,8704 C 8955,8510 9184,8460 9345,8467 9480,8473 9590,8525 9656,8623 9726,8729 9718,8907 9592,8990 9500,9051 9321,9008 9297,9112 9270,9236 9417,9351 9385,9483 9354,9603 9262,9707 9154,9756 9051,9803 8910,9834 8807,9729 8732,9652 8668,9568 8650,9453 8630,9325 8484,9276 8404,9182 8320,9086 8230,8985 8227,8844 8223,8653 8432,8565 8581,8560 8702,8555 8815,8601 8905,8675 L 8965,8738 8958,8704 Z"/>
       </g>
      </g>
      <g class="com.sun.star.drawing.ClosedBezierShape">
       <g id="id7">
        <rect class="BoundingBox" stroke="none" fill="none" x="6825" y="8561" width="1677" height="1141"/>
        <path fill="rgb(255,255,255)" stroke="none" d="M 7789,8761 C 7539,8712 7198,8382 6906,8695 6616,9010 7221,9168 7039,9379 6705,9766 7223,9651 7370,9687 7833,9802 7456,9136 7899,9423 8117,9564 8667,9241 8450,9071 8208,8880 8221,8397 7877,8761 L 7789,8805 7789,8761 Z"/>
        <path fill="none" stroke="rgb(255,245,206)" d="M 7789,8761 C 7539,8712 7198,8382 6906,8695 6616,9010 7221,9168 7039,9379 6705,9766 7223,9651 7370,9687 7833,9802 7456,9136 7899,9423 8117,9564 8667,9241 8450,9071 8208,8880 8221,8397 7877,8761 L 7789,8805 7789,8761 Z"/>
       </g>
      </g>
      <g class="com.sun.star.drawing.CustomShape">
       <g id="id8">
        <rect class="BoundingBox" stroke="none" fill="none" x="7082" y="9482" width="3938" height="2538"/>
        <path fill="rgb(255,56,56)" stroke="none" d="M 7100,9500 L 11001,9500 10025,12001 8075,12001 7100,9500 Z"/>
        <path fill="none" stroke="rgb(255,0,0)" stroke-width="35" stroke-linejoin="round" d="M 7100,9500 L 11001,9500 10025,12001 8075,12001 7100,9500 Z"/>
       </g>
      </g>
      <g class="com.sun.star.drawing.CustomShape">
       <g id="id9">
        <rect class="BoundingBox" stroke="none" fill="none" x="1330" y="1929" width="2202" height="2243"/>
        <path fill="rgb(255,56,56)" stroke="none" d="M 1380,1980 L 3481,1980 3050,4121 1810,4121 1380,1980 Z"/>
        <path fill="none" stroke="rgb(241,13,12)" stroke-width="100" stroke-linejoin="round" d="M 1380,1980 L 3481,1980 3050,4121 1810,4121 1380,1980 Z"/>
       </g>
      </g>
      <g class="com.sun.star.drawing.CustomShape">
       <g id="id10">
        <rect class="BoundingBox" stroke="none" fill="none" x="1479" y="1427" width="404" height="380"/>
        <path fill="rgb(255,245,206)" stroke="none" d="M 1881,1616 C 1881,1650 1872,1682 1854,1711 1837,1739 1811,1763 1781,1780 1750,1796 1716,1805 1681,1805 1645,1805 1611,1796 1580,1780 1550,1763 1524,1739 1507,1711 1489,1682 1480,1650 1480,1616 1480,1583 1489,1551 1507,1522 1524,1494 1550,1470 1580,1453 1611,1437 1645,1428 1680,1428 1716,1428 1750,1437 1781,1453 1811,1470 1837,1494 1854,1522 1872,1551 1881,1583 1881,1616 L 1881,1616 Z"/>
        <path fill="none" stroke="rgb(255,245,206)" d="M 1881,1616 C 1881,1650 1872,1682 1854,1711 1837,1739 1811,1763 1781,1780 1750,1796 1716,1805 1681,1805 1645,1805 1611,1796 1580,1780 1550,1763 1524,1739 1507,1711 1489,1682 1480,1650 1480,1616 1480,1583 1489,1551 1507,1522 1524,1494 1550,1470 1580,1453 1611,1437 1645,1428 1680,1428 1716,1428 1750,1437 1781,1453 1811,1470 1837,1494 1854,1522 1872,1551 1881,1583 1881,1616 L 1881,1616 Z"/>
       </g>
      </g>
      <g class="com.sun.star.drawing.CustomShape">
       <g id="id11">
        <rect class="BoundingBox" stroke="none" fill="none" x="1279" y="1703" width="304" height="280"/>
        <path fill="rgb(255,245,206)" stroke="none" d="M 1581,1843 C 1581,1867 1574,1891 1561,1912 1548,1933 1529,1950 1506,1962 1483,1975 1457,1981 1431,1981 1404,1981 1378,1975 1355,1962 1332,1950 1313,1933 1300,1912 1287,1891 1280,1867 1280,1843 1280,1818 1287,1794 1300,1773 1313,1752 1332,1735 1355,1723 1378,1710 1404,1704 1431,1704 1457,1704 1483,1710 1506,1723 1529,1735 1548,1752 1561,1773 1574,1794 1581,1818 1581,1842 L 1581,1843 Z"/>
        <path fill="none" stroke="rgb(255,245,206)" d="M 1581,1843 C 1581,1867 1574,1891 1561,1912 1548,1933 1529,1950 1506,1962 1483,1975 1457,1981 1431,1981 1404,1981 1378,1975 1355,1962 1332,1950 1313,1933 1300,1912 1287,1891 1280,1867 1280,1843 1280,1818 1287,1794 1300,1773 1313,1752 1332,1735 1355,1723 1378,1710 1404,1704 1431,1704 1457,1704 1483,1710 1506,1723 1529,1735 1548,1752 1561,1773 1574,1794 1581,1818 1581,1842 L 1581,1843 Z"/>
       </g>
      </g>
      <g class="com.sun.star.drawing.CustomShape">
       <g id="id12">
        <rect class="BoundingBox" stroke="none" fill="none" x="1678" y="1579" width="535" height="404"/>
        <path fill="rgb(255,245,206)" stroke="none" d="M 2211,1781 C 2211,1816 2199,1850 2175,1881 2152,1911 2118,1937 2078,1954 2038,1972 1992,1981 1945,1981 1898,1981 1852,1972 1812,1954 1772,1937 1738,1911 1715,1881 1691,1850 1679,1816 1679,1781 1679,1745 1691,1711 1715,1680 1738,1650 1772,1624 1812,1607 1852,1589 1898,1580 1945,1580 1992,1580 2038,1589 2078,1607 2118,1624 2152,1650 2175,1680 2199,1711 2211,1745 2211,1780 L 2211,1781 Z"/>
        <path fill="none" stroke="rgb(255,245,206)" d="M 2211,1781 C 2211,1816 2199,1850 2175,1881 2152,1911 2118,1937 2078,1954 2038,1972 1992,1981 1945,1981 1898,1981 1852,1972 1812,1954 1772,1937 1738,1911 1715,1881 1691,1850 1679,1816 1679,1781 1679,1745 1691,1711 1715,1680 1738,1650 1772,1624 1812,1607 1852,1589 1898,1580 1945,1580 1992,1580 2038,1589 2078,1607 2118,1624 2152,1650 2175,1680 2199,1711 2211,1745 2211,1780 L 2211,1781 Z"/>
       </g>
      </g>
      <g class="com.sun.star.drawing.CustomShape">
       <g id="id13">
        <rect class="BoundingBox" stroke="none" fill="none" x="1479" y="1803" width="404" height="380"/>
        <path fill="rgb(255,245,206)" stroke="none" d="M 1881,1993 C 1881,2026 1872,2058 1854,2087 1837,2115 1811,2139 1781,2156 1750,2172 1716,2181 1681,2181 1645,2181 1611,2172 1580,2156 1550,2139 1524,2115 1507,2087 1489,2058 1480,2026 1480,1993 1480,1959 1489,1927 1507,1898 1524,1870 1550,1846 1580,1829 1611,1813 1645,1804 1680,1804 1716,1804 1750,1813 1781,1829 1811,1846 1837,1870 1854,1898 1872,1927 1881,1959 1881,1992 L 1881,1993 Z"/>
        <path fill="none" stroke="rgb(255,245,206)" d="M 1881,1993 C 1881,2026 1872,2058 1854,2087 1837,2115 1811,2139 1781,2156 1750,2172 1716,2181 1681,2181 1645,2181 1611,2172 1580,2156 1550,2139 1524,2115 1507,2087 1489,2058 1480,2026 1480,1993 1480,1959 1489,1927 1507,1898 1524,1870 1550,1846 1580,1829 1611,1813 1645,1804 1680,1804 1716,1804 1750,1813 1781,1829 1811,1846 1837,1870 1854,1898 1872,1927 1881,1959 1881,1992 L 1881,1993 Z"/>
       </g>
      </g>
      <g class="com.sun.star.drawing.CustomShape">
       <g id="id14">
        <rect class="BoundingBox" stroke="none" fill="none" x="1379" y="1527" width="304" height="280"/>
        <path fill="rgb(255,245,206)" stroke="none" d="M 1681,1667 C 1681,1691 1674,1715 1661,1736 1648,1757 1629,1774 1606,1786 1583,1799 1557,1805 1531,1805 1504,1805 1478,1799 1455,1786 1432,1774 1413,1757 1400,1736 1387,1715 1380,1691 1380,1667 1380,1642 1387,1618 1400,1597 1413,1576 1432,1559 1455,1547 1478,1534 1504,1528 1531,1528 1557,1528 1583,1534 1606,1547 1629,1559 1648,1576 1661,1597 1674,1618 1681,1642 1681,1666 L 1681,1667 Z"/>
        <path fill="none" stroke="rgb(255,245,206)" d="M 1681,1667 C 1681,1691 1674,1715 1661,1736 1648,1757 1629,1774 1606,1786 1583,1799 1557,1805 1531,1805 1504,1805 1478,1799 1455,1786 1432,1774 1413,1757 1400,1736 1387,1715 1380,1691 1380,1667 1380,1642 1387,1618 1400,1597 1413,1576 1432,1559 1455,1547 1478,1534 1504,1528 1531,1528 1557,1528 1583,1534 1606,1547 1629,1559 1648,1576 1661,1597 1674,1618 1681,1642 1681,1666 L 1681,1667 Z"/>
       </g>
      </g>
      <g class="com.sun.star.drawing.CustomShape">
       <g id="id15">
        <rect class="BoundingBox" stroke="none" fill="none" x="3176" y="1708" width="386" height="399"/>
        <path fill="rgb(255,245,206)" stroke="none" d="M 3271,2082 C 3242,2066 3218,2042 3201,2013 3185,1983 3176,1950 3177,1915 3177,1880 3187,1846 3204,1815 3221,1785 3245,1759 3275,1740 3304,1722 3337,1711 3371,1710 3404,1708 3437,1716 3466,1732 3495,1748 3519,1772 3535,1802 3552,1831 3560,1865 3560,1899 3559,1934 3550,1968 3533,1999 3516,2030 3491,2056 3462,2074 3433,2093 3399,2103 3366,2105 3332,2106 3299,2098 3271,2082 L 3271,2082 Z"/>
        <path fill="none" stroke="rgb(255,245,206)" d="M 3271,2082 C 3242,2066 3218,2042 3201,2013 3185,1983 3176,1950 3177,1915 3177,1880 3187,1846 3204,1815 3221,1785 3245,1759 3275,1740 3304,1722 3337,1711 3371,1710 3404,1708 3437,1716 3466,1732 3495,1748 3519,1772 3535,1802 3552,1831 3560,1865 3560,1899 3559,1934 3550,1968 3533,1999 3516,2030 3491,2056 3462,2074 3433,2093 3399,2103 3366,2105 3332,2106 3299,2098 3271,2082 L 3271,2082 Z"/>
       </g>
      </g>
      <g class="com.sun.star.drawing.CustomShape">
       <g id="id16">
        <rect class="BoundingBox" stroke="none" fill="none" x="3151" y="1429" width="286" height="299"/>
        <path fill="rgb(255,245,206)" stroke="none" d="M 3220,1710 C 3199,1698 3181,1680 3169,1658 3157,1636 3151,1611 3152,1585 3152,1559 3160,1534 3172,1511 3185,1488 3204,1468 3225,1454 3247,1440 3272,1432 3296,1431 3321,1429 3346,1435 3367,1447 3388,1459 3405,1476 3417,1498 3429,1520 3435,1545 3435,1571 3434,1597 3427,1623 3414,1646 3401,1669 3383,1688 3361,1702 3340,1716 3315,1724 3290,1726 3265,1727 3241,1721 3220,1710 L 3220,1710 Z"/>
        <path fill="none" stroke="rgb(255,245,206)" d="M 3220,1710 C 3199,1698 3181,1680 3169,1658 3157,1636 3151,1611 3152,1585 3152,1559 3160,1534 3172,1511 3185,1488 3204,1468 3225,1454 3247,1440 3272,1432 3296,1431 3321,1429 3346,1435 3367,1447 3388,1459 3405,1476 3417,1498 3429,1520 3435,1545 3435,1571 3434,1597 3427,1623 3414,1646 3401,1669 3383,1688 3361,1702 3340,1716 3315,1724 3290,1726 3265,1727 3241,1721 3220,1710 L 3220,1710 Z"/>
       </g>
      </g>
      <g class="com.sun.star.drawing.CustomShape">
       <g id="id17">
        <rect class="BoundingBox" stroke="none" fill="none" x="2906" y="1706" width="438" height="507"/>
        <path fill="rgb(255,245,206)" stroke="none" d="M 2995,2191 C 2964,2174 2940,2146 2925,2111 2909,2076 2904,2034 2908,1990 2912,1946 2927,1902 2950,1861 2972,1820 3003,1785 3038,1758 3073,1731 3111,1714 3149,1709 3187,1703 3224,1709 3254,1727 3285,1744 3309,1771 3324,1807 3340,1842 3345,1883 3341,1927 3337,1971 3322,2016 3300,2057 3277,2097 3246,2133 3211,2160 3176,2186 3138,2203 3100,2209 3062,2214 3026,2208 2995,2191 L 2995,2191 Z"/>
        <path fill="none" stroke="rgb(255,245,206)" d="M 2995,2191 C 2964,2174 2940,2146 2925,2111 2909,2076 2904,2034 2908,1990 2912,1946 2927,1902 2950,1861 2972,1820 3003,1785 3038,1758 3073,1731 3111,1714 3149,1709 3187,1703 3224,1709 3254,1727 3285,1744 3309,1771 3324,1807 3340,1842 3345,1883 3341,1927 3337,1971 3322,2016 3300,2057 3277,2097 3246,2133 3211,2160 3176,2186 3138,2203 3100,2209 3062,2214 3026,2208 2995,2191 Z"/>
       </g>
      </g>
      <g class="com.sun.star.drawing.CustomShape">
       <g id="id18">
        <rect class="BoundingBox" stroke="none" fill="none" x="2848" y="1524" width="386" height="399"/>
        <path fill="rgb(255,245,206)" stroke="none" d="M 2943,1898 C 2914,1882 2890,1858 2873,1829 2857,1799 2848,1766 2849,1731 2849,1696 2859,1662 2876,1631 2893,1601 2917,1575 2947,1556 2976,1538 3009,1527 3043,1526 3076,1524 3109,1532 3138,1548 3167,1564 3191,1588 3207,1618 3224,1647 3232,1681 3232,1715 3231,1750 3222,1784 3205,1815 3188,1846 3163,1872 3134,1890 3105,1909 3071,1919 3038,1921 3004,1922 2971,1914 2943,1898 L 2943,1898 Z"/>
        <path fill="none" stroke="rgb(255,245,206)" d="M 2943,1898 C 2914,1882 2890,1858 2873,1829 2857,1799 2848,1766 2849,1731 2849,1696 2859,1662 2876,1631 2893,1601 2917,1575 2947,1556 2976,1538 3009,1527 3043,1526 3076,1524 3109,1532 3138,1548 3167,1564 3191,1588 3207,1618 3224,1647 3232,1681 3232,1715 3231,1750 3222,1784 3205,1815 3188,1846 3163,1872 3134,1890 3105,1909 3071,1919 3038,1921 3004,1922 2971,1914 2943,1898 L 2943,1898 Z"/>
       </g>
      </g>
      <g class="com.sun.star.drawing.CustomShape">
       <g id="id19">
        <rect class="BoundingBox" stroke="none" fill="none" x="3256" y="1602" width="286" height="299"/>
        <path fill="rgb(255,245,206)" stroke="none" d="M 3325,1883 C 3304,1871 3286,1853 3274,1831 3262,1809 3256,1784 3257,1758 3257,1732 3265,1707 3277,1684 3290,1661 3309,1641 3330,1627 3352,1613 3377,1605 3401,1604 3426,1602 3451,1608 3472,1620 3493,1632 3510,1649 3522,1671 3534,1693 3540,1718 3540,1744 3539,1770 3532,1796 3519,1819 3506,1842 3488,1861 3466,1875 3445,1889 3420,1897 3395,1899 3370,1900 3346,1894 3325,1883 L 3325,1883 Z"/>
        <path fill="none" stroke="rgb(255,245,206)" d="M 3325,1883 C 3304,1871 3286,1853 3274,1831 3262,1809 3256,1784 3257,1758 3257,1732 3265,1707 3277,1684 3290,1661 3309,1641 3330,1627 3352,1613 3377,1605 3401,1604 3426,1602 3451,1608 3472,1620 3493,1632 3510,1649 3522,1671 3534,1693 3540,1718 3540,1744 3539,1770 3532,1796 3519,1819 3506,1842 3488,1861 3466,1875 3445,1889 3420,1897 3395,1899 3370,1900 3346,1894 3325,1883 L 3325,1883 Z"/>
       </g>
      </g>
      <g class="com.sun.star.drawing.CustomShape">
       <g id="id20">
        <rect class="BoundingBox" stroke="none" fill="none" x="2127" y="1762" width="391" height="394"/>
        <path fill="rgb(255,245,206)" stroke="none" d="M 2191,1806 C 2216,1785 2247,1771 2280,1765 2313,1760 2348,1764 2380,1776 2413,1788 2442,1809 2465,1835 2488,1862 2504,1894 2511,1928 2519,1962 2517,1996 2507,2028 2497,2060 2478,2089 2453,2110 2428,2132 2397,2146 2364,2151 2331,2157 2296,2153 2264,2141 2231,2128 2202,2108 2179,2081 2156,2055 2140,2023 2133,1989 2126,1955 2127,1920 2137,1888 2148,1856 2166,1828 2191,1806 L 2191,1806 Z"/>
        <path fill="none" stroke="rgb(255,245,206)" d="M 2191,1806 C 2216,1785 2247,1771 2280,1765 2313,1760 2348,1764 2380,1776 2413,1788 2442,1809 2465,1835 2488,1862 2504,1894 2511,1928 2519,1962 2517,1996 2507,2028 2497,2060 2478,2089 2453,2110 2428,2132 2397,2146 2364,2151 2331,2157 2296,2153 2264,2141 2231,2128 2202,2108 2179,2081 2156,2055 2140,2023 2133,1989 2126,1955 2127,1920 2137,1888 2148,1856 2166,1828 2191,1806 L 2191,1806 Z"/>
       </g>
      </g>
      <g class="com.sun.star.drawing.CustomShape">
       <g id="id21">
        <rect class="BoundingBox" stroke="none" fill="none" x="2511" y="1854" width="291" height="294"/>
        <path fill="rgb(255,245,206)" stroke="none" d="M 2558,1886 C 2576,1870 2599,1860 2623,1856 2648,1853 2674,1856 2698,1865 2722,1874 2744,1890 2761,1910 2778,1930 2790,1954 2796,1979 2802,2004 2801,2030 2794,2054 2786,2078 2773,2098 2754,2114 2736,2130 2713,2141 2689,2144 2664,2148 2638,2145 2614,2136 2590,2126 2568,2111 2551,2091 2534,2071 2522,2047 2516,2022 2510,1996 2511,1970 2519,1947 2526,1923 2539,1902 2558,1886 L 2558,1886 Z"/>
        <path fill="none" stroke="rgb(255,245,206)" d="M 2558,1886 C 2576,1870 2599,1860 2623,1856 2648,1853 2674,1856 2698,1865 2722,1874 2744,1890 2761,1910 2778,1930 2790,1954 2796,1979 2802,2004 2801,2030 2794,2054 2786,2078 2773,2098 2754,2114 2736,2130 2713,2141 2689,2144 2664,2148 2638,2145 2614,2136 2590,2126 2568,2111 2551,2091 2534,2071 2522,2047 2516,2022 2510,1996 2511,1970 2519,1947 2526,1923 2539,1902 2558,1886 Z"/>
       </g>
      </g>
      <g class="com.sun.star.drawing.CustomShape">
       <g id="id22">
        <rect class="BoundingBox" stroke="none" fill="none" x="2174" y="1506" width="464" height="484"/>
        <path fill="rgb(255,245,206)" stroke="none" d="M 2232,1546 C 2258,1523 2293,1510 2331,1508 2369,1506 2410,1514 2450,1534 2490,1553 2527,1581 2557,1617 2588,1652 2611,1693 2624,1735 2637,1777 2640,1819 2632,1857 2624,1894 2606,1926 2579,1949 2552,1972 2518,1985 2480,1988 2441,1990 2400,1981 2361,1962 2321,1943 2284,1914 2253,1879 2223,1843 2200,1802 2187,1760 2174,1718 2171,1676 2179,1639 2187,1601 2205,1569 2232,1546 L 2232,1546 Z"/>
        <path fill="none" stroke="rgb(255,245,206)" d="M 2232,1546 C 2258,1523 2293,1510 2331,1508 2369,1506 2410,1514 2450,1534 2490,1553 2527,1581 2557,1617 2588,1652 2611,1693 2624,1735 2637,1777 2640,1819 2632,1857 2624,1894 2606,1926 2579,1949 2552,1972 2518,1985 2480,1988 2441,1990 2400,1981 2361,1962 2321,1943 2284,1914 2253,1879 2223,1843 2200,1802 2187,1760 2174,1718 2171,1676 2179,1639 2187,1601 2205,1569 2232,1546 Z"/>
       </g>
      </g>
      <g class="com.sun.star.drawing.CustomShape">
       <g id="id23">
        <rect class="BoundingBox" stroke="none" fill="none" x="2385" y="1552" width="590" height="557"/>
        <path fill="rgb(255,245,206)" stroke="none" d="M 2534,1660 C 2578,1622 2629,1592 2681,1573 2732,1555 2783,1549 2827,1555 2872,1562 2909,1581 2934,1610 2960,1640 2973,1679 2973,1724 2973,1769 2959,1818 2933,1867 2907,1915 2870,1960 2826,1999 2781,2037 2730,2067 2679,2086 2627,2104 2577,2111 2532,2104 2488,2098 2451,2079 2425,2049 2399,2019 2386,1980 2386,1935 2386,1890 2400,1841 2426,1793 2452,1744 2489,1699 2534,1660 L 2534,1660 Z"/>
        <path fill="none" stroke="rgb(255,245,206)" d="M 2534,1660 C 2578,1622 2629,1592 2681,1573 2732,1555 2783,1549 2827,1555 2872,1562 2909,1581 2934,1610 2960,1640 2973,1679 2973,1724 2973,1769 2959,1818 2933,1867 2907,1915 2870,1960 2826,1999 2781,2037 2730,2067 2679,2086 2627,2104 2577,2111 2532,2104 2488,2098 2451,2079 2425,2049 2399,2019 2386,1980 2386,1935 2386,1890 2400,1841 2426,1793 2452,1744 2489,1699 2534,1660 L 2534,1660 Z"/>
       </g>
      </g>
      <g class="com.sun.star.drawing.CustomShape">
       <g id="id24">
        <rect class="BoundingBox" stroke="none" fill="none" x="2312" y="1893" width="291" height="294"/>
        <path fill="rgb(255,245,206)" stroke="none" d="M 2359,1925 C 2377,1909 2400,1899 2424,1895 2449,1892 2475,1895 2499,1904 2523,1913 2545,1929 2562,1949 2579,1969 2591,1993 2597,2018 2603,2043 2602,2069 2595,2093 2587,2117 2574,2137 2555,2153 2537,2169 2514,2180 2490,2183 2465,2187 2439,2184 2415,2175 2391,2165 2369,2150 2352,2130 2335,2110 2323,2086 2317,2061 2311,2035 2312,2009 2320,1986 2327,1962 2340,1941 2359,1925 L 2359,1925 Z"/>
        <path fill="none" stroke="rgb(255,245,206)" d="M 2359,1925 C 2377,1909 2400,1899 2424,1895 2449,1892 2475,1895 2499,1904 2523,1913 2545,1929 2562,1949 2579,1969 2591,1993 2597,2018 2603,2043 2602,2069 2595,2093 2587,2117 2574,2137 2555,2153 2537,2169 2514,2180 2490,2183 2465,2187 2439,2184 2415,2175 2391,2165 2369,2150 2352,2130 2335,2110 2323,2086 2317,2061 2311,2035 2312,2009 2320,1986 2327,1962 2340,1941 2359,1925 L 2359,1925 Z"/>
       </g>
      </g>
      <g class="com.sun.star.drawing.CustomShape">
       <g id="id25">
        <rect class="BoundingBox" stroke="none" fill="none" x="2579" y="979" width="404" height="380"/>
        <path fill="rgb(255,245,206)" stroke="none" d="M 2981,1169 C 2981,1202 2972,1234 2954,1263 2937,1291 2911,1315 2881,1332 2850,1348 2816,1357 2780,1357 2745,1357 2711,1348 2680,1332 2650,1315 2624,1291 2607,1263 2589,1234 2580,1202 2580,1169 2580,1135 2589,1103 2607,1074 2624,1046 2650,1022 2680,1005 2711,989 2745,980 2780,980 2816,980 2850,989 2881,1005 2911,1022 2937,1046 2954,1074 2972,1103 2981,1135 2981,1168 L 2981,1169 Z"/>
        <path fill="none" stroke="rgb(255,245,206)" d="M 2981,1169 C 2981,1202 2972,1234 2954,1263 2937,1291 2911,1315 2881,1332 2850,1348 2816,1357 2780,1357 2745,1357 2711,1348 2680,1332 2650,1315 2624,1291 2607,1263 2589,1234 2580,1202 2580,1169 2580,1135 2589,1103 2607,1074 2624,1046 2650,1022 2680,1005 2711,989 2745,980 2780,980 2816,980 2850,989 2881,1005 2911,1022 2937,1046 2954,1074 2972,1103 2981,1135 2981,1168 L 2981,1169 Z"/>
       </g>
      </g>
      <g class="com.sun.star.drawing.CustomShape">
       <g id="id26">
        <rect class="BoundingBox" stroke="none" fill="none" x="2279" y="1279" width="704" height="280"/>
        <path fill="rgb(255,245,206)" stroke="none" d="M 2981,1419 C 2981,1443 2965,1467 2934,1488 2903,1509 2859,1526 2806,1538 2752,1551 2692,1557 2631,1557 2569,1557 2509,1551 2455,1538 2402,1526 2358,1509 2327,1488 2296,1467 2280,1443 2280,1419 2280,1394 2296,1370 2327,1349 2358,1328 2402,1311 2455,1299 2509,1286 2569,1280 2631,1280 2692,1280 2752,1286 2806,1299 2859,1311 2903,1328 2934,1349 2965,1370 2981,1394 2981,1418 L 2981,1419 Z"/>
        <path fill="none" stroke="rgb(255,245,206)" d="M 2981,1419 C 2981,1443 2965,1467 2934,1488 2903,1509 2859,1526 2806,1538 2752,1551 2692,1557 2631,1557 2569,1557 2509,1551 2455,1538 2402,1526 2358,1509 2327,1488 2296,1467 2280,1443 2280,1419 2280,1394 2296,1370 2327,1349 2358,1328 2402,1311 2455,1299 2509,1286 2569,1280 2631,1280 2692,1280 2752,1286 2806,1299 2859,1311 2903,1328 2934,1349 2965,1370 2981,1394 2981,1418 L 2981,1419 Z"/>
       </g>
      </g>
      <g class="com.sun.star.drawing.CustomShape">
       <g id="id27">
        <rect class="BoundingBox" stroke="none" fill="none" x="2678" y="1155" width="535" height="404"/>
        <path fill="rgb(255,245,206)" stroke="none" d="M 3211,1357 C 3211,1392 3199,1426 3175,1457 3152,1487 3118,1513 3078,1530 3038,1548 2992,1557 2945,1557 2898,1557 2852,1548 2812,1530 2772,1513 2738,1487 2715,1457 2691,1426 2679,1392 2679,1357 2679,1321 2691,1287 2715,1256 2738,1226 2772,1200 2812,1183 2852,1165 2898,1156 2945,1156 2992,1156 3038,1165 3078,1183 3118,1200 3152,1226 3175,1256 3199,1287 3211,1321 3211,1356 L 3211,1357 Z"/>
        <path fill="none" stroke="rgb(255,245,206)" d="M 3211,1357 C 3211,1392 3199,1426 3175,1457 3152,1487 3118,1513 3078,1530 3038,1548 2992,1557 2945,1557 2898,1557 2852,1548 2812,1530 2772,1513 2738,1487 2715,1457 2691,1426 2679,1392 2679,1357 2679,1321 2691,1287 2715,1256 2738,1226 2772,1200 2812,1183 2852,1165 2898,1156 2945,1156 2992,1156 3038,1165 3078,1183 3118,1200 3152,1226 3175,1256 3199,1287 3211,1321 3211,1356 L 3211,1357 Z"/>
       </g>
      </g>
      <g class="com.sun.star.drawing.CustomShape">
       <g id="id28">
        <rect class="BoundingBox" stroke="none" fill="none" x="2479" y="1379" width="404" height="380"/>
        <path fill="rgb(255,245,206)" stroke="none" d="M 2881,1569 C 2881,1602 2872,1634 2854,1663 2837,1691 2811,1715 2781,1732 2750,1748 2716,1757 2681,1757 2645,1757 2611,1748 2580,1732 2550,1715 2524,1691 2507,1663 2489,1634 2480,1602 2480,1569 2480,1535 2489,1503 2507,1474 2524,1446 2550,1422 2580,1405 2611,1389 2645,1380 2681,1380 2716,1380 2750,1389 2781,1405 2811,1422 2837,1446 2854,1474 2872,1503 2881,1535 2881,1568 L 2881,1569 Z"/>
        <path fill="none" stroke="rgb(255,245,206)" d="M 2881,1569 C 2881,1602 2872,1634 2854,1663 2837,1691 2811,1715 2781,1732 2750,1748 2716,1757 2681,1757 2645,1757 2611,1748 2580,1732 2550,1715 2524,1691 2507,1663 2489,1634 2480,1602 2480,1569 2480,1535 2489,1503 2507,1474 2524,1446 2550,1422 2580,1405 2611,1389 2645,1380 2681,1380 2716,1380 2750,1389 2781,1405 2811,1422 2837,1446 2854,1474 2872,1503 2881,1535 2881,1568 L 2881,1569 Z"/>
       </g>
      </g>
      <g class="com.sun.star.drawing.CustomShape">
       <g id="id29">
        <rect class="BoundingBox" stroke="none" fill="none" x="2479" y="1079" width="304" height="280"/>
        <path fill="rgb(255,245,206)" stroke="none" d="M 2781,1219 C 2781,1243 2774,1267 2761,1288 2748,1309 2729,1326 2706,1338 2683,1351 2657,1357 2631,1357 2604,1357 2578,1351 2555,1338 2532,1326 2513,1309 2500,1288 2487,1267 2480,1243 2480,1219 2480,1194 2487,1170 2500,1149 2513,1128 2532,1111 2555,1099 2578,1086 2604,1080 2631,1080 2657,1080 2683,1086 2706,1099 2729,1111 2748,1128 2761,1149 2774,1170 2781,1194 2781,1219 L 2781,1219 Z"/>
        <path fill="none" stroke="rgb(255,245,206)" d="M 2781,1219 C 2781,1243 2774,1267 2761,1288 2748,1309 2729,1326 2706,1338 2683,1351 2657,1357 2631,1357 2604,1357 2578,1351 2555,1338 2532,1326 2513,1309 2500,1288 2487,1267 2480,1243 2480,1219 2480,1194 2487,1170 2500,1149 2513,1128 2532,1111 2555,1099 2578,1086 2604,1080 2631,1080 2657,1080 2683,1086 2706,1099 2729,1111 2748,1128 2761,1149 2774,1170 2781,1194 2781,1219 Z"/>
       </g>
      </g>
      <g class="com.sun.star.drawing.CustomShape">
       <g id="id30">
        <rect class="BoundingBox" stroke="none" fill="none" x="1713" y="943" width="390" height="395"/>
        <path fill="rgb(255,245,206)" stroke="none" d="M 2035,985 C 2061,1006 2080,1034 2091,1066 2102,1097 2104,1132 2097,1166 2091,1200 2076,1232 2053,1260 2031,1287 2002,1308 1970,1321 1938,1334 1904,1339 1870,1334 1837,1329 1806,1316 1780,1295 1755,1274 1736,1246 1725,1214 1714,1183 1711,1148 1718,1114 1724,1080 1740,1048 1762,1020 1784,993 1813,972 1845,959 1877,946 1912,941 1945,946 1978,951 2009,964 2035,985 L 2035,985 Z"/>
        <path fill="none" stroke="rgb(255,245,206)" d="M 2035,985 C 2061,1006 2080,1034 2091,1066 2102,1097 2104,1132 2097,1166 2091,1200 2076,1232 2053,1260 2031,1287 2002,1308 1970,1321 1938,1334 1904,1339 1870,1334 1837,1329 1806,1316 1780,1295 1755,1274 1736,1246 1725,1214 1714,1183 1711,1148 1718,1114 1724,1080 1740,1048 1762,1020 1784,993 1813,972 1845,959 1877,946 1912,941 1945,946 1978,951 2009,964 2035,985 L 2035,985 Z"/>
       </g>
      </g>
      <g class="com.sun.star.drawing.CustomShape">
       <g id="id31">
        <rect class="BoundingBox" stroke="none" fill="none" x="1779" y="1329" width="290" height="295"/>
        <path fill="rgb(255,245,206)" stroke="none" d="M 2019,1360 C 2038,1375 2052,1396 2060,1419 2068,1443 2069,1468 2064,1494 2059,1519 2048,1543 2031,1564 2014,1584 1993,1600 1969,1610 1945,1620 1919,1624 1895,1621 1870,1617 1847,1608 1828,1592 1809,1577 1795,1556 1787,1533 1780,1509 1778,1483 1783,1458 1788,1433 1800,1408 1817,1388 1833,1368 1855,1352 1879,1342 1903,1332 1928,1328 1953,1331 1978,1334 2000,1344 2019,1360 L 2019,1360 Z"/>
        <path fill="none" stroke="rgb(255,245,206)" d="M 2019,1360 C 2038,1375 2052,1396 2060,1419 2068,1443 2069,1468 2064,1494 2059,1519 2048,1543 2031,1564 2014,1584 1993,1600 1969,1610 1945,1620 1919,1624 1895,1621 1870,1617 1847,1608 1828,1592 1809,1577 1795,1556 1787,1533 1780,1509 1778,1483 1783,1458 1788,1433 1800,1408 1817,1388 1833,1368 1855,1352 1879,1342 1903,1332 1928,1328 1953,1331 1978,1334 2000,1344 2019,1360 Z"/>
       </g>
      </g>
      <g class="com.sun.star.drawing.CustomShape">
       <g id="id32">
        <rect class="BoundingBox" stroke="none" fill="none" x="1927" y="890" width="462" height="486"/>
        <path fill="rgb(255,245,206)" stroke="none" d="M 2326,927 C 2353,949 2372,981 2381,1018 2390,1055 2388,1097 2376,1140 2364,1182 2342,1223 2312,1260 2283,1296 2246,1325 2207,1345 2168,1365 2127,1375 2089,1374 2050,1373 2016,1360 1989,1338 1961,1316 1942,1284 1934,1247 1925,1209 1927,1167 1939,1125 1951,1082 1973,1041 2002,1005 2032,969 2068,939 2108,919 2147,899 2188,889 2226,891 2264,892 2299,904 2326,927 L 2326,927 Z"/>
        <path fill="none" stroke="rgb(255,245,206)" d="M 2326,927 C 2353,949 2372,981 2381,1018 2390,1055 2388,1097 2376,1140 2364,1182 2342,1223 2312,1260 2283,1296 2246,1325 2207,1345 2168,1365 2127,1375 2089,1374 2050,1373 2016,1360 1989,1338 1961,1316 1942,1284 1934,1247 1925,1209 1927,1167 1939,1125 1951,1082 1973,1041 2002,1005 2032,969 2068,939 2108,919 2147,899 2188,889 2226,891 2264,892 2299,904 2326,927 L 2326,927 Z"/>
       </g>
      </g>
      <g class="com.sun.star.drawing.CustomShape">
       <g id="id33">
        <rect class="BoundingBox" stroke="none" fill="none" x="2014" y="1257" width="390" height="395"/>
        <path fill="rgb(255,245,206)" stroke="none" d="M 2336,1299 C 2362,1320 2381,1348 2392,1380 2403,1411 2405,1446 2398,1480 2392,1514 2377,1546 2354,1574 2332,1601 2303,1622 2271,1635 2239,1648 2205,1653 2171,1648 2138,1643 2107,1630 2081,1609 2056,1588 2037,1560 2026,1528 2015,1497 2012,1462 2019,1428 2025,1394 2041,1362 2063,1334 2085,1307 2114,1286 2146,1273 2178,1260 2213,1255 2246,1260 2279,1265 2310,1278 2336,1299 L 2336,1299 Z"/>
        <path fill="none" stroke="rgb(255,245,206)" d="M 2336,1299 C 2362,1320 2381,1348 2392,1380 2403,1411 2405,1446 2398,1480 2392,1514 2377,1546 2354,1574 2332,1601 2303,1622 2271,1635 2239,1648 2205,1653 2171,1648 2138,1643 2107,1630 2081,1609 2056,1588 2037,1560 2026,1528 2015,1497 2012,1462 2019,1428 2025,1394 2041,1362 2063,1334 2085,1307 2114,1286 2146,1273 2178,1260 2213,1255 2246,1260 2279,1265 2310,1278 2336,1299 L 2336,1299 Z"/>
       </g>
      </g>
      <g class="com.sun.star.drawing.CustomShape">
       <g id="id34">
        <rect class="BoundingBox" stroke="none" fill="none" x="1634" y="1229" width="290" height="295"/>
        <path fill="rgb(255,245,206)" stroke="none" d="M 1874,1260 C 1893,1275 1907,1296 1915,1319 1923,1343 1924,1368 1919,1394 1914,1419 1903,1443 1886,1464 1869,1484 1848,1500 1824,1510 1800,1520 1774,1524 1750,1521 1725,1517 1702,1508 1683,1492 1664,1477 1650,1456 1642,1433 1635,1409 1633,1383 1638,1358 1643,1333 1655,1308 1672,1288 1688,1268 1710,1252 1734,1242 1758,1232 1783,1228 1808,1231 1833,1234 1855,1244 1874,1260 L 1874,1260 Z"/>
        <path fill="none" stroke="rgb(255,245,206)" d="M 1874,1260 C 1893,1275 1907,1296 1915,1319 1923,1343 1924,1368 1919,1394 1914,1419 1903,1443 1886,1464 1869,1484 1848,1500 1824,1510 1800,1520 1774,1524 1750,1521 1725,1517 1702,1508 1683,1492 1664,1477 1650,1456 1642,1433 1635,1409 1633,1383 1638,1358 1643,1333 1655,1308 1672,1288 1688,1268 1710,1252 1734,1242 1758,1232 1783,1228 1808,1231 1833,1234 1855,1244 1874,1260 L 1874,1260 Z"/>
       </g>
      </g>
      <g class="com.sun.star.drawing.CustomShape">
       <g id="id35">
        <rect class="BoundingBox" stroke="none" fill="none" x="2248" y="679" width="404" height="380"/>
        <path fill="rgb(255,245,206)" stroke="none" d="M 2650,868 C 2650,902 2641,934 2623,963 2606,991 2580,1015 2550,1032 2519,1048 2485,1057 2450,1057 2414,1057 2380,1048 2349,1032 2319,1015 2293,991 2276,963 2258,934 2249,902 2249,869 2249,835 2258,803 2276,774 2293,746 2319,722 2349,705 2380,689 2414,680 2450,680 2485,680 2519,689 2550,705 2580,722 2606,746 2623,774 2641,803 2650,835 2650,868 L 2650,868 Z"/>
        <path fill="none" stroke="rgb(255,245,206)" d="M 2650,868 C 2650,902 2641,934 2623,963 2606,991 2580,1015 2550,1032 2519,1048 2485,1057 2450,1057 2414,1057 2380,1048 2349,1032 2319,1015 2293,991 2276,963 2258,934 2249,902 2249,869 2249,835 2258,803 2276,774 2293,746 2319,722 2349,705 2380,689 2414,680 2450,680 2485,680 2519,689 2550,705 2580,722 2606,746 2623,774 2641,803 2650,835 2650,868 L 2650,868 Z"/>
       </g>
      </g>
      <g class="com.sun.star.drawing.CustomShape">
       <g id="id36">
        <rect class="BoundingBox" stroke="none" fill="none" x="2048" y="955" width="304" height="280"/>
        <path fill="rgb(255,245,206)" stroke="none" d="M 2350,1095 C 2350,1119 2343,1143 2330,1164 2317,1185 2298,1202 2275,1214 2252,1227 2226,1233 2200,1233 2173,1233 2147,1227 2124,1214 2101,1202 2082,1185 2069,1164 2056,1143 2049,1119 2049,1095 2049,1070 2056,1046 2069,1025 2082,1004 2101,987 2124,975 2147,962 2173,956 2200,956 2226,956 2252,962 2275,975 2298,987 2317,1004 2330,1025 2343,1046 2350,1070 2350,1094 L 2350,1095 Z"/>
        <path fill="none" stroke="rgb(255,245,206)" d="M 2350,1095 C 2350,1119 2343,1143 2330,1164 2317,1185 2298,1202 2275,1214 2252,1227 2226,1233 2200,1233 2173,1233 2147,1227 2124,1214 2101,1202 2082,1185 2069,1164 2056,1143 2049,1119 2049,1095 2049,1070 2056,1046 2069,1025 2082,1004 2101,987 2124,975 2147,962 2173,956 2200,956 2226,956 2252,962 2275,975 2298,987 2317,1004 2330,1025 2343,1046 2350,1070 2350,1094 L 2350,1095 Z"/>
       </g>
      </g>
      <g class="com.sun.star.drawing.CustomShape">
       <g id="id37">
        <rect class="BoundingBox" stroke="none" fill="none" x="2347" y="855" width="535" height="404"/>
        <path fill="rgb(255,245,206)" stroke="none" d="M 2880,1057 C 2880,1092 2868,1126 2844,1157 2821,1187 2787,1213 2747,1230 2707,1248 2661,1257 2614,1257 2567,1257 2521,1248 2481,1230 2441,1213 2407,1187 2384,1157 2360,1126 2348,1092 2348,1057 2348,1021 2360,987 2384,956 2407,926 2441,900 2481,883 2521,865 2567,856 2614,856 2661,856 2707,865 2747,883 2787,900 2821,926 2844,956 2868,987 2880,1021 2880,1056 L 2880,1057 Z"/>
        <path fill="none" stroke="rgb(255,245,206)" d="M 2880,1057 C 2880,1092 2868,1126 2844,1157 2821,1187 2787,1213 2747,1230 2707,1248 2661,1257 2614,1257 2567,1257 2521,1248 2481,1230 2441,1213 2407,1187 2384,1157 2360,1126 2348,1092 2348,1057 2348,1021 2360,987 2384,956 2407,926 2441,900 2481,883 2521,865 2567,856 2614,856 2661,856 2707,865 2747,883 2787,900 2821,926 2844,956 2868,987 2880,1021 2880,1056 L 2880,1057 Z"/>
       </g>
      </g>
      <g class="com.sun.star.drawing.CustomShape">
       <g id="id38">
        <rect class="BoundingBox" stroke="none" fill="none" x="2248" y="1055" width="404" height="380"/>
        <path fill="rgb(255,245,206)" stroke="none" d="M 2650,1244 C 2650,1278 2641,1310 2623,1339 2606,1367 2580,1391 2550,1408 2519,1424 2485,1433 2450,1433 2414,1433 2380,1424 2349,1408 2319,1391 2293,1367 2276,1339 2258,1310 2249,1278 2249,1244 2249,1211 2258,1179 2276,1150 2293,1122 2319,1098 2349,1081 2380,1065 2414,1056 2450,1056 2485,1056 2519,1065 2550,1081 2580,1098 2606,1122 2623,1150 2641,1179 2650,1211 2650,1244 L 2650,1244 Z"/>
        <path fill="none" stroke="rgb(255,245,206)" d="M 2650,1244 C 2650,1278 2641,1310 2623,1339 2606,1367 2580,1391 2550,1408 2519,1424 2485,1433 2450,1433 2414,1433 2380,1424 2349,1408 2319,1391 2293,1367 2276,1339 2258,1310 2249,1278 2249,1244 2249,1211 2258,1179 2276,1150 2293,1122 2319,1098 2349,1081 2380,1065 2414,1056 2450,1056 2485,1056 2519,1065 2550,1081 2580,1098 2606,1122 2623,1150 2641,1179 2650,1211 2650,1244 L 2650,1244 Z"/>
       </g>
      </g>
      <g class="com.sun.star.drawing.CustomShape">
       <g id="id39">
        <rect class="BoundingBox" stroke="none" fill="none" x="2148" y="779" width="304" height="280"/>
        <path fill="rgb(255,245,206)" stroke="none" d="M 2450,919 C 2450,943 2443,967 2430,988 2417,1009 2398,1026 2375,1038 2352,1051 2326,1057 2300,1057 2273,1057 2247,1051 2224,1038 2201,1026 2182,1009 2169,988 2156,967 2149,943 2149,919 2149,894 2156,870 2169,849 2182,828 2201,811 2224,799 2247,786 2273,780 2300,780 2326,780 2352,786 2375,799 2398,811 2417,828 2430,849 2443,870 2450,894 2450,918 L 2450,919 Z"/>
        <path fill="none" stroke="rgb(255,245,206)" d="M 2450,919 C 2450,943 2443,967 2430,988 2417,1009 2398,1026 2375,1038 2352,1051 2326,1057 2300,1057 2273,1057 2247,1051 2224,1038 2201,1026 2182,1009 2169,988 2156,967 2149,943 2149,919 2149,894 2156,870 2169,849 2182,828 2201,811 2224,799 2247,786 2273,780 2300,780 2326,780 2352,786 2375,799 2398,811 2417,828 2430,849 2443,870 2450,894 2450,918 L 2450,919 Z"/>
       </g>
      </g>
     </g>
    </g>
   </g>
  </g>
 </g>
</svg>